<?xml version="1.0" encoding="UTF-8"?>
<!DOCTYPE svg PUBLIC "-//W3C//DTD SVG 1.1//EN" "http://www.w3.org/Graphics/SVG/1.1/DTD/svg11.dtd">
<!-- Creator: CorelDRAW -->
<svg xmlns="http://www.w3.org/2000/svg" xml:space="preserve" width="0.888496in" height="0.521756in" version="1.1" style="shape-rendering:geometricPrecision; text-rendering:geometricPrecision; image-rendering:optimizeQuality; fill-rule:evenodd; clip-rule:evenodd"
viewBox="0 0 60.92 35.78"
 xmlns:xlink="http://www.w3.org/1999/xlink"
 xmlns:xodm="http://www.corel.com/coreldraw/odm/2003">
 <defs>
  <style type="text/css">
   <![CDATA[
    .str0 {stroke:#EF5132;stroke-width:0.21;stroke-miterlimit:2.61313}
    .str1 {stroke:#FEFEFE;stroke-width:0.83;stroke-miterlimit:2.61313}
    .fil3 {fill:none}
    .fil4 {fill:#FEFEFE}
    .fil2 {fill:#EF5132}
    .fil1 {fill:#FEFEFE;fill-rule:nonzero}
    .fil0 {fill:#EF5132;fill-rule:nonzero}
   ]]>
  </style>
 </defs>
 <g id="Layer_x0020_1">
  <metadata id="CorelCorpID_0Corel-Layer"/>
  <path class="fil0 str0" d="M13.61 28.72l-1.8 0.5 0.37 4.92 0.86 -0.24 -0.1 -1.42 1.14 -0.32c1.37,-0.38 2.02,-1.34 1.69,-2.53 -0.25,-0.88 -1.04,-1.22 -2.16,-0.91zm0.3 2.7l-1.02 0.29 -0.15 -1.95 0.98 -0.28c0.63,-0.18 1.06,-0.03 1.2,0.47 0.2,0.72 -0.17,1.23 -1.01,1.47zm3.08 1.47l0.85 -0.17 -0.03 -5.23 -0.85 0.17 0.03 5.23zm4.84 -4.54l-0.02 0.56c-0.3,-0.35 -0.76,-0.48 -1.33,-0.4 -1.17,0.17 -1.93,1.19 -1.75,2.43 0.15,1.01 0.94,1.5 1.84,1.37 0.48,-0.07 0.86,-0.28 1.13,-0.6l-0.02 0.39 0.81 -0.12 0.2 -3.76 -0.85 0.12zm-1.15 3.2c-0.62,0.09 -1.01,-0.21 -1.1,-0.78 -0.12,-0.81 0.34,-1.44 1.06,-1.55 0.62,-0.09 1.01,0.21 1.1,0.78 0.12,0.81 -0.34,1.44 -1.06,1.55zm4.2 -2.8l0.99 -0.09 0.08 -0.7 -0.99 0.09 0.1 -0.85 -0.86 0.08 -0.09 0.85 -0.6 0.05 -0.08 0.7 0.6 -0.05 -0.2 1.77c-0.01,0.11 -0.01,0.2 -0,0.29 0.06,0.62 0.51,0.95 1.14,0.89 0.3,-0.03 0.62,-0.11 0.87,-0.3l-0.21 -0.62c-0.14,0.11 -0.3,0.17 -0.47,0.19 -0.3,0.03 -0.45,-0.12 -0.47,-0.37 -0,-0.05 -0,-0.1 -0,-0.16l0.19 -1.76zm5.26 0.52c-0.05,-1.01 -0.76,-1.58 -1.78,-1.52 -1.23,0.07 -2.08,1.02 -2.01,2.27 0.05,0.98 0.79,1.58 1.9,1.52 0.57,-0.03 1.12,-0.23 1.48,-0.59l-0.39 -0.58c-0.24,0.26 -0.62,0.41 -1.04,0.44 -0.71,0.04 -1.07,-0.26 -1.11,-0.85l2.92 -0.16c0.03,-0.16 0.04,-0.34 0.03,-0.53zm-1.79 -0.83c0.57,-0.03 0.97,0.26 0.99,0.82l-2.11 0.11c0.13,-0.55 0.53,-0.91 1.12,-0.94zm5.79 -0.8l-0.1 0.55c-0.25,-0.39 -0.69,-0.58 -1.26,-0.58 -1.18,0 -2.08,0.91 -2.07,2.16 0,1.02 0.72,1.62 1.63,1.62 0.48,-0 0.89,-0.16 1.2,-0.43l-0.07 0.38 0.82 -0 0.72 -3.69 -0.86 0zm-1.58 3c-0.62,0 -0.98,-0.35 -0.98,-0.92 -0,-0.82 0.53,-1.38 1.27,-1.39 0.62,-0 0.98,0.35 0.98,0.92 0,0.82 -0.53,1.38 -1.27,1.39zm6.54 -2.73l-0.51 1.89c-0.19,0.71 -0.65,1.03 -1.26,0.99 -0.49,-0.03 -0.72,-0.29 -0.69,-0.71 0.01,-0.09 0.02,-0.18 0.05,-0.28l0.53 -1.99 -0.86 -0.05 -0.54 2.01c-0.04,0.16 -0.07,0.3 -0.08,0.44 -0.05,0.81 0.46,1.28 1.25,1.33 0.48,0.03 0.92,-0.09 1.28,-0.38l-0.11 0.4 0.82 0.05 0.97 -3.63 -0.86 -0.05zm3.02 3.93l0.89 0.1 1.52 -4.69 -0.89 -0.1 -1.52 4.69zm5.46 -2.92c-0.48,-0.08 -0.94,-0.02 -1.33,0.23l0.15 -0.39 -0.81 -0.14 -1.35 3.51 0.85 0.15 0.71 -1.82c0.27,-0.68 0.75,-0.95 1.37,-0.84 0.5,0.09 0.69,0.36 0.61,0.79 -0.01,0.08 -0.04,0.18 -0.08,0.27l-0.74 1.93 0.85 0.15 0.75 -1.95c0.05,-0.15 0.1,-0.29 0.12,-0.43 0.14,-0.8 -0.31,-1.32 -1.12,-1.46zm3.12 4.52c0.68,0.18 1.37,0.05 1.84,-0.37l-0.51 -0.58c-0.32,0.28 -0.71,0.34 -1.11,0.24 -0.61,-0.16 -0.86,-0.59 -0.71,-1.14 0.21,-0.79 0.87,-1.2 1.58,-1.01 0.42,0.11 0.68,0.35 0.76,0.73l0.81 -0.18c-0.14,-0.63 -0.6,-1.05 -1.32,-1.24 -1.26,-0.33 -2.37,0.33 -2.69,1.52 -0.25,0.94 0.27,1.75 1.34,2.03zm2.41 0.78c0.29,0.1 0.64,-0.03 0.76,-0.38 0.11,-0.3 -0.04,-0.58 -0.32,-0.68 -0.31,-0.11 -0.65,0.04 -0.77,0.38 -0.1,0.29 0.04,0.59 0.33,0.69z"/>
  <path class="fil1" d="M0.08 17.01c-0.15,-0.6 -0.09,-1.17 0.2,-1.71 0.29,-0.54 0.72,-0.9 1.3,-1.08l8.49 -2.62c0.59,-0.18 1.17,-0.13 1.72,0.17 0.55,0.3 0.92,0.75 1.11,1.36 0,0 0,0 0,0 0,0 0,0 0,0 0,0.01 0.01,0.02 0.01,0.02 0,0 0,0 0,0 0.17,0.6 0.11,1.17 -0.19,1.71 -0.29,0.54 -0.73,0.9 -1.31,1.08l-1.82 0.56 2.78 9.01c0.21,0.67 0.14,1.31 -0.2,1.94 -0.34,0.63 -0.85,1.05 -1.53,1.26 -0.69,0.21 -1.36,0.16 -1.99,-0.17 -0.63,-0.33 -1.06,-0.84 -1.27,-1.53l-2.78 -9.01 -1.71 0.53c-0.59,0.18 -1.16,0.13 -1.69,-0.17 -0.53,-0.29 -0.89,-0.74 -1.08,-1.33 0,0 0,0 0,0 0,0 -0,-0.01 -0.01,-0.02 0,0 0,0 0,0 0,0 0,0 0,0l-0.02 0.01zm19.51 -2.94c0.19,-0.05 0.38,-0.09 0.57,-0.13 0.19,-0.04 0.36,-0.07 0.53,-0.08 0.57,-0.05 1.11,-0.01 1.6,0.13 0.49,0.14 0.93,0.37 1.3,0.68l0.01 0.07 1.98 -1.29c0.04,-0.03 0.09,-0.07 0.14,-0.09 0.05,-0.03 0.11,-0.04 0.17,-0.05 0.06,-0.02 0.11,-0.04 0.17,-0.05 0.05,-0.01 0.1,-0.02 0.15,-0.02 0.17,-0.01 0.33,0 0.5,0.06 0.16,0.05 0.31,0.14 0.44,0.25 0.33,0.28 0.59,0.6 0.78,0.98 0.19,0.38 0.31,0.78 0.35,1.2l0.68 7.6c0.07,0.74 -0.11,1.36 -0.52,1.87 -0.41,0.51 -0.92,0.79 -1.52,0.84 -0.02,0 -0.03,0 -0.05,0 -0.02,0 -0.04,0 -0.07,0.01 -0.02,-0.01 -0.03,-0.02 -0.05,-0.02 -0.01,0 -0.04,0 -0.07,0.01l-2.16 -0.97 0.01 0.11c-0.3,0.36 -0.68,0.66 -1.12,0.89 -0.44,0.23 -0.97,0.37 -1.59,0.43 -0.2,0.02 -0.4,0.02 -0.61,0.02 -0.21,-0 -0.44,-0.02 -0.67,-0.04 -0.7,-0.06 -1.4,-0.28 -2.08,-0.67 -0.68,-0.39 -1.29,-0.91 -1.84,-1.58 -0.36,-0.47 -0.65,-0.99 -0.87,-1.55 -0.22,-0.57 -0.35,-1.17 -0.41,-1.8 -0.01,-0.06 -0.01,-0.12 -0.02,-0.17 -0,-0.05 -0.01,-0.11 -0.02,-0.17 -0.06,-1.56 0.32,-2.94 1.15,-4.13 0.83,-1.19 1.87,-1.97 3.13,-2.32zm0.75 6.32c0.02,0.27 0.08,0.51 0.18,0.71 0.09,0.2 0.23,0.4 0.39,0.58 0.18,0.18 0.39,0.31 0.62,0.4 0.23,0.09 0.46,0.12 0.68,0.1 0.02,-0 0.03,-0 0.06,-0 0.02,-0 0.05,-0 0.08,-0.01 0.25,-0.05 0.49,-0.17 0.72,-0.34 0.23,-0.17 0.4,-0.41 0.53,-0.71 0.05,-0.11 0.09,-0.22 0.12,-0.33 0.03,-0.11 0.04,-0.22 0.05,-0.35 0.01,-0.08 0.01,-0.15 0.01,-0.22 0,-0.07 -0,-0.13 -0.01,-0.19 -0,-0.03 -0.01,-0.06 -0.01,-0.08 -0,-0.02 -0,-0.04 -0.01,-0.06 -0.02,-0.03 -0.03,-0.05 -0.03,-0.08 -0,-0.02 -0,-0.04 -0.01,-0.06 -0.1,-0.39 -0.24,-0.7 -0.44,-0.94 -0.2,-0.24 -0.44,-0.41 -0.74,-0.5 -0.06,-0.02 -0.13,-0.04 -0.19,-0.05 -0.06,-0.01 -0.12,-0.02 -0.16,-0.03 -0.06,-0.01 -0.12,-0.02 -0.18,-0.02 -0.06,-0 -0.12,-0 -0.18,0 -0.39,0.05 -0.72,0.23 -1,0.53 -0.28,0.31 -0.44,0.71 -0.48,1.22 0,0.03 0,0.06 -0,0.1 -0,0.04 -0,0.07 -0,0.1 0,0.03 0,0.06 -0,0.1 -0,0.04 -0,0.07 -0,0.1zm9.62 4.77c-0.51,-0.32 -0.87,-0.65 -1.08,-0.99 -0.22,-0.34 -0.32,-0.68 -0.31,-1.01 0,-0.09 0.01,-0.18 0.03,-0.27 0.02,-0.09 0.04,-0.18 0.08,-0.27 0.13,-0.37 0.38,-0.67 0.73,-0.9 0.35,-0.22 0.78,-0.33 1.28,-0.31 0.17,0 0.34,0.03 0.53,0.06 0.19,0.04 0.38,0.09 0.57,0.18l0.45 0.15 0.31 0.12c0.34,0.15 0.61,0.25 0.81,0.3 0.2,0.05 0.38,0.09 0.54,0.13l0.14 0 0.27 0.01c0.12,0 0.21,-0.01 0.27,-0.05 0.06,-0.04 0.11,-0.08 0.14,-0.14 0.02,-0.03 0.02,-0.05 0.02,-0.07 0,-0.02 0,-0.03 0,-0.05 0,-0.08 -0.02,-0.14 -0.06,-0.21 -0.04,-0.06 -0.11,-0.12 -0.2,-0.19 -0.02,-0 -0.03,-0 -0.05,-0.01 -0.01,-0.01 -0.02,-0.02 -0.02,-0.03 -0.01,-0.02 -0.03,-0.03 -0.04,-0.04 -0.02,-0.01 -0.03,-0.01 -0.05,-0.01l-0.2 -0.07 -0.45 -0.13 -0.58 -0.2 -0.43 -0.13c-1.05,-0.32 -1.81,-0.66 -2.29,-1.02 -0.47,-0.36 -0.82,-0.83 -1.03,-1.39 -0.08,-0.21 -0.14,-0.43 -0.17,-0.64 -0.03,-0.21 -0.04,-0.43 -0.04,-0.64 0.03,-1.04 0.55,-1.96 1.56,-2.74 1.01,-0.78 2.37,-1.15 4.1,-1.09 0.03,0 0.05,0 0.07,0 0.02,0 0.04,0 0.07,0 0.02,0 0.03,0 0.06,0 0.02,0 0.04,0 0.06,0 0.39,0.01 0.76,0.05 1.11,0.11 0.35,0.06 0.66,0.14 0.95,0.22 0.57,0.17 1.03,0.36 1.38,0.59 0.35,0.22 0.6,0.45 0.76,0.68 0.1,0.15 0.17,0.31 0.21,0.46 0.04,0.15 0.06,0.31 0.05,0.48 -0.01,0.35 -0.13,0.67 -0.37,0.98 -0.24,0.3 -0.55,0.5 -0.95,0.6 -0.09,0.01 -0.18,0.03 -0.27,0.04 -0.09,0.01 -0.19,0.02 -0.3,0.01 -0.14,-0 -0.29,-0.02 -0.46,-0.06 -0.17,-0.04 -0.39,-0.09 -0.64,-0.16l-0.68 -0.18 -0.34 -0.1 -0.36 -0.08c-0.02,-0 -0.03,-0 -0.06,-0.01 -0.02,-0.01 -0.04,-0.01 -0.06,-0.01 -0.03,-0.02 -0.05,-0.02 -0.07,-0.02 -0.02,-0 -0.04,-0 -0.07,-0 -0.09,-0.02 -0.17,-0.03 -0.24,-0.04 -0.07,-0.01 -0.13,-0.02 -0.19,-0.02 -0.06,-0 -0.12,0 -0.17,0.01 -0.05,0.01 -0.1,0.02 -0.15,0.05l-0.05 0.04 -0.07 0.07c-0.06,0.06 -0.08,0.13 -0.06,0.2 0.02,0.08 0.09,0.16 0.21,0.26 0.02,0 0.03,0 0.03,0.01 0.01,0.01 0.02,0.02 0.03,0.04 0.01,0.02 0.03,0.03 0.04,0.04 0.01,0.01 0.03,0.01 0.04,0.01l0.2 0.07 0.34 0.12 0.79 0.27 0.56 0.18 0.49 0.2c0.27,0.1 0.53,0.22 0.77,0.35 0.25,0.14 0.48,0.28 0.7,0.44 0.5,0.38 0.88,0.83 1.12,1.34 0.24,0.51 0.36,1.04 0.34,1.57 -0,0.05 -0,0.09 -0,0.14 -0,0.05 -0,0.09 -0,0.14 -0.06,0.47 -0.22,0.93 -0.48,1.38 -0.26,0.45 -0.64,0.86 -1.14,1.23 -0.47,0.35 -1.01,0.61 -1.65,0.79 -0.63,0.18 -1.37,0.25 -2.22,0.23 -0.15,-0 -0.31,-0.01 -0.48,-0.03 -0.17,-0.01 -0.33,-0.03 -0.5,-0.05 -0.74,-0.08 -1.38,-0.21 -1.91,-0.37 -0.53,-0.17 -0.97,-0.35 -1.31,-0.56zm10.27 -10.64c0.24,-0.16 0.5,-0.27 0.77,-0.33 0.28,-0.06 0.56,-0.06 0.84,-0.02l0.22 0.03 0.16 -1.06c0.05,-0.34 0.17,-0.66 0.34,-0.95 0.17,-0.29 0.4,-0.53 0.68,-0.74 0.29,-0.2 0.6,-0.34 0.91,-0.41 0.32,-0.07 0.64,-0.09 0.97,-0.04 0.03,0 0.06,0.01 0.1,0.02 0.04,0.01 0.07,0.01 0.1,0.02 0.28,0.07 0.55,0.19 0.8,0.35 0.25,0.16 0.46,0.37 0.64,0.63 0.2,0.28 0.34,0.58 0.42,0.92 0.08,0.33 0.09,0.67 0.04,1.02l-0.15 1.01 0.29 0.04c0.28,0.04 0.55,0.14 0.78,0.28 0.24,0.14 0.44,0.33 0.6,0.55 0.18,0.23 0.3,0.48 0.37,0.76 0.06,0.28 0.08,0.55 0.03,0.82 -0.04,0.25 -0.13,0.49 -0.26,0.72 -0.13,0.22 -0.31,0.43 -0.54,0.61 -0.22,0.16 -0.48,0.29 -0.76,0.37 -0.28,0.08 -0.57,0.1 -0.87,0.07l-0.31 -0.05 -0.86 5.64c-0.05,0.33 -0.16,0.64 -0.34,0.94 -0.18,0.3 -0.4,0.54 -0.68,0.75 -0.28,0.2 -0.58,0.34 -0.9,0.41 -0.33,0.07 -0.65,0.08 -0.98,0.03 -0.03,-0 -0.06,-0.01 -0.1,-0.02 -0.04,-0.01 -0.07,-0.01 -0.1,-0.02 -0.28,-0.07 -0.55,-0.19 -0.8,-0.34 -0.25,-0.15 -0.47,-0.36 -0.64,-0.62 -0.2,-0.29 -0.34,-0.6 -0.42,-0.93 -0.08,-0.33 -0.09,-0.66 -0.04,-1.01l0.87 -5.66 -0.18 -0.03c-0.3,-0.05 -0.58,-0.15 -0.85,-0.31 -0.27,-0.16 -0.49,-0.37 -0.67,-0.61 -0.15,-0.22 -0.25,-0.46 -0.31,-0.73 -0.06,-0.26 -0.07,-0.52 -0.03,-0.77 0.04,-0.27 0.14,-0.52 0.29,-0.76 0.15,-0.24 0.34,-0.44 0.56,-0.6zm20.51 10.26c-0.01,0.01 -0.01,0.03 -0.02,0.05 -0.01,0.02 -0.01,0.04 -0.02,0.05 -0,0.01 -0.01,0.03 -0.02,0.05 -0.01,0.02 -0.01,0.04 -0.02,0.05 -0.21,0.59 -0.5,0.96 -0.9,1.12 -0.39,0.16 -0.94,0.12 -1.64,-0.13l-5.57 -1.95c0.03,0.06 0.05,0.12 0.08,0.18 0.03,0.07 0.05,0.13 0.08,0.18 0.01,0.02 0.02,0.04 0.05,0.08 0.02,0.03 0.03,0.06 0.04,0.1 0.18,0.27 0.41,0.52 0.7,0.74 0.29,0.22 0.68,0.42 1.17,0.59 0.03,0.01 0.06,0.02 0.1,0.03 0.04,0.01 0.07,0.02 0.1,0.01 0.03,0.01 0.06,0.02 0.1,0.03 0.04,0.01 0.07,0.02 0.1,0.03 0.2,0.06 0.45,0.11 0.74,0.16 0.29,0.05 0.63,0.09 1.02,0.12 0.28,0.02 0.51,0.04 0.7,0.08 0.18,0.03 0.33,0.07 0.44,0.11 0.03,0.01 0.05,0.02 0.06,0.02 0.01,0.01 0.03,0.01 0.04,0.02 0.51,0.18 0.88,0.5 1.1,0.95 0.22,0.45 0.25,0.91 0.09,1.37 -0.01,0.03 -0.02,0.06 -0.03,0.1 -0.01,0.04 -0.03,0.07 -0.06,0.09 -0.02,0.04 -0.03,0.08 -0.05,0.11 -0.02,0.03 -0.04,0.06 -0.07,0.09 -0.24,0.35 -0.56,0.61 -0.97,0.77 -0.41,0.16 -1.01,0.24 -1.79,0.24 -0.28,-0.02 -0.59,-0.05 -0.92,-0.09 -0.33,-0.04 -0.68,-0.11 -1.05,-0.19 -0.25,-0.06 -0.5,-0.12 -0.74,-0.19 -0.24,-0.07 -0.48,-0.14 -0.7,-0.22 -2.15,-0.77 -3.66,-1.94 -4.52,-3.52 -0.86,-1.58 -0.99,-3.2 -0.39,-4.87 0,-0.01 0.01,-0.03 0.01,-0.04 0.01,-0.01 0.01,-0.03 0.02,-0.04 0,-0.01 0.01,-0.03 0.02,-0.04 0,-0.01 0.01,-0.03 0.01,-0.04 0.61,-1.6 1.71,-2.75 3.3,-3.45 1.59,-0.7 3.3,-0.73 5.11,-0.08 0.58,0.22 1.12,0.49 1.6,0.81 0.49,0.32 0.92,0.7 1.3,1.14 0.51,0.6 0.9,1.25 1.16,1.97 0.26,0.72 0.4,1.41 0.43,2.08 0,0.23 -0.01,0.45 -0.05,0.68 -0.03,0.23 -0.08,0.45 -0.13,0.65zm-7.33 -3.05l2.55 0.89c0.01,-0.03 0.02,-0.06 0.03,-0.1 0.01,-0.04 0.02,-0.08 0.02,-0.13 0.06,-0.35 0,-0.65 -0.16,-0.91 -0.17,-0.26 -0.4,-0.44 -0.7,-0.55 -0.03,-0.01 -0.06,-0.02 -0.11,-0.04 -0.04,-0.01 -0.09,-0.02 -0.14,-0.02 -0.25,-0.02 -0.49,0.02 -0.73,0.12 -0.24,0.1 -0.46,0.29 -0.66,0.55 -0.02,0.02 -0.05,0.05 -0.07,0.09 -0.02,0.03 -0.03,0.06 -0.04,0.09z"/>
  <path class="fil2" d="M44.37 7.94c0,0 1.72,-1.11 1.64,-2.42 -0.19,-3.02 5.67,1.95 -1.64,2.42z"/>
  <path class="fil2" d="M44.46 9.66c0,0 1.36,1.72 2.01,0.81 0.65,-0.91 -0.43,-1.9 -2.01,-0.81zm1.47 -0.18c-0.14,0.01 -0.24,0.13 -0.23,0.27 0.01,0.14 0.13,0.24 0.27,0.23 0.14,-0.01 0.24,-0.13 0.23,-0.27 -0.01,-0.14 -0.13,-0.24 -0.27,-0.23z"/>
  <g>
   <path class="fil3 str1" d="M36.17 8.46c3.71,-0.73 8.33,3.22 6.1,6.57 -1.82,1.61 -3.62,1.07 -4.21,-1.3 -1.11,-1.75 -3.04,-3.52 -4.85,-3.77 1.77,-0.99 3.85,-0.44 6.18,1.33 -0.81,-1.75 -1.91,-2.59 -3.22,-2.82z"/>
   <path id="_1" class="fil2" d="M36.17 8.46c3.71,-0.73 8.33,3.22 6.1,6.57 -1.82,1.61 -3.62,1.07 -4.21,-1.3 -1.11,-1.75 -3.04,-3.52 -4.85,-3.77 1.77,-0.99 3.85,-0.44 6.18,1.33 -0.81,-1.75 -1.91,-2.59 -3.22,-2.82z"/>
  </g>
  <path class="fil4" d="M39.1 5.5c-3.02,-2.54 1.62,-6.57 4.04,-5.23 1.75,2.3 -1.6,7.27 -4.04,5.23z"/>
  <path class="fil4" d="M39.45 4.24c0,0 -2.66,7.03 -10.9,8.13 -8.24,1.1 4.13,-0.28 10.9,-8.13z"/>
  <path class="fil2" d="M20.96 9.05l-4.58 -0.14c-0.16,-0 -0.3,0.13 -0.31,0.29l0 0c-0,0.16 0.13,0.3 0.29,0.31l4.61 0.14c-0,0.21 -0.01,0.4 -0.01,0.57l-4.55 -0.14c-0.16,-0.01 -0.3,0.13 -0.31,0.29l0 0c-0,0.16 0.13,0.3 0.29,0.31l4.52 0.14c-0.02,0.22 -0.05,0.39 -0.07,0.54l-3.9 -0.12c-0.16,-0 -0.3,0.13 -0.31,0.29l0 0c-0.01,0.16 0.13,0.3 0.29,0.31l3.91 0.12c0.06,0.03 0.17,0.02 0.37,0.01l0.07 0c0.05,0 0.09,-0.01 0.13,-0.02 1.51,-0.24 1.3,-1.31 1.43,-2.37 0.13,-0.98 -0.52,-1.34 -1.11,-1.47 -0.04,-0.03 -0.1,-0.05 -0.15,-0.05l-0.16 -0c-0.29,-0.03 -0.52,-0.02 -0.52,-0.02l-3.67 -0.11c-0.16,-0 -0.3,0.13 -0.31,0.29l0 0c-0,0.16 0.13,0.3 0.29,0.31l3.73 0.11c0.01,0.15 0.01,0.29 0.02,0.43z"/>
  <path class="fil2" d="M21.59 9.81c0,0 7.09,2.51 13.25,-3.08 6.16,-5.59 -2.88,2.98 -13.25,3.08z"/>
  <path class="fil1" d="M40.09 11.96c0,0 1.38,1.45 1.02,2.75 0.01,0.34 -0.43,0.24 -0.27,-0.08 0.32,-1.15 -0.83,-2.55 -0.83,-2.55l-0.2 -0.29 0.29 0.17z"/>
  <path class="fil4" d="M20.07 34.1c0,0 17.22,-4.61 24.57,0.18 7.35,4.8 -5.64,-3.82 -24.57,-0.18z"/>
  <path class="fil2" d="M16.74 19.38c-0.77,-4.25 3.98,-4.81 3.98,-4.81 0,0 -3.04,0.94 -3.98,4.81z"/>
 </g>
</svg>
