<?xml version="1.0" encoding="UTF-8"?>
<!DOCTYPE svg PUBLIC "-//W3C//DTD SVG 1.1//EN" "http://www.w3.org/Graphics/SVG/1.1/DTD/svg11.dtd">
<!-- Creator: CorelDRAW -->
<svg xmlns="http://www.w3.org/2000/svg" xml:space="preserve" width="0.888488in" height="0.521622in" version="1.1" style="shape-rendering:geometricPrecision; text-rendering:geometricPrecision; image-rendering:optimizeQuality; fill-rule:evenodd; clip-rule:evenodd"
viewBox="0 0 35.7 20.96"
 xmlns:xlink="http://www.w3.org/1999/xlink"
 xmlns:xodm="http://www.corel.com/coreldraw/odm/2003">
 <defs>
  <style type="text/css">
   <![CDATA[
    .str1 {stroke:#2A3944;stroke-width:0.49;stroke-miterlimit:2.61313}
    .str0 {stroke:#EF5132;stroke-width:0.12;stroke-miterlimit:2.61313}
    .fil3 {fill:none}
    .fil4 {fill:#2A3944}
    .fil2 {fill:#EF5132}
    .fil1 {fill:#2A3944;fill-rule:nonzero}
    .fil0 {fill:#EF5132;fill-rule:nonzero}
   ]]>
  </style>
 </defs>
 <g id="Layer_x0020_1">
  <metadata id="CorelCorpID_0Corel-Layer"/>
  <g id="_2405520133216">
   <path class="fil0 str0" d="M7.97 16.82l-1.05 0.29 0.22 2.88 0.5 -0.14 -0.06 -0.83 0.67 -0.19c0.8,-0.22 1.18,-0.79 0.99,-1.48 -0.15,-0.52 -0.61,-0.71 -1.27,-0.53l0 0zm0.18 1.58l-0.6 0.17 -0.09 -1.14 0.57 -0.16c0.37,-0.11 0.62,-0.02 0.7,0.28 0.12,0.42 -0.1,0.72 -0.59,0.86zm1.8 0.86l0.5 -0.1 -0.02 -3.06 -0.5 0.1 0.02 3.06zm2.84 -2.66l-0.01 0.33c-0.18,-0.2 -0.45,-0.28 -0.78,-0.23 -0.69,0.1 -1.13,0.7 -1.03,1.42 0.09,0.59 0.55,0.88 1.08,0.8 0.28,-0.04 0.5,-0.16 0.66,-0.35l-0.01 0.23 0.47 -0.07 0.12 -2.2 -0.5 0.07 -0.01 0.01zm-0.67 1.87c-0.36,0.05 -0.59,-0.12 -0.64,-0.46 -0.07,-0.47 0.2,-0.84 0.62,-0.91 0.36,-0.05 0.59,0.12 0.64,0.46 0.07,0.47 -0.2,0.84 -0.62,0.91zm2.46 -1.64l0.58 -0.05 0.05 -0.41 -0.58 0.05 0.06 -0.5 -0.5 0.05 -0.05 0.5 -0.35 0.03 -0.05 0.41 0.35 -0.03 -0.12 1.04c-0.01,0.06 -0.01,0.12 0,0.17 0.04,0.36 0.3,0.56 0.67,0.52 0.18,-0.02 0.36,-0.06 0.51,-0.18l-0.12 -0.36c-0.08,0.06 -0.18,0.1 -0.28,0.11 -0.18,0.02 -0.26,-0.07 -0.28,-0.22 0,-0.03 0,-0.06 0,-0.09l0.11 -1.03 0 -0.01zm3.08 0.3c-0.03,-0.59 -0.45,-0.93 -1.04,-0.89 -0.72,0.04 -1.22,0.6 -1.18,1.33 0.03,0.57 0.46,0.93 1.11,0.89 0.33,-0.02 0.66,-0.13 0.87,-0.35l-0.23 -0.34c-0.14,0.15 -0.36,0.24 -0.61,0.26 -0.42,0.02 -0.63,-0.15 -0.65,-0.5l1.71 -0.09c0.02,-0.09 0.02,-0.2 0.02,-0.31l0 -0zm-1.05 -0.49c0.33,-0.02 0.57,0.15 0.58,0.48l-1.24 0.06c0.08,-0.32 0.31,-0.53 0.66,-0.55l0 0.01zm3.39 -0.47l-0.06 0.32c-0.15,-0.23 -0.4,-0.34 -0.74,-0.34 -0.69,0 -1.22,0.53 -1.21,1.27 0,0.6 0.42,0.95 0.95,0.95 0.28,0 0.52,-0.09 0.7,-0.25l-0.04 0.22 0.48 0 0.42 -2.16 -0.5 0 -0.01 -0.01zm-0.93 1.76c-0.36,0 -0.57,-0.2 -0.57,-0.54 0,-0.48 0.31,-0.81 0.74,-0.81 0.36,0 0.57,0.2 0.57,0.54 0,0.48 -0.31,0.81 -0.74,0.81zm3.83 -1.6l-0.3 1.11c-0.11,0.42 -0.38,0.6 -0.74,0.58 -0.29,-0.02 -0.42,-0.17 -0.4,-0.42 0.01,-0.05 0.01,-0.11 0.03,-0.16l0.31 -1.17 -0.5 -0.03 -0.32 1.18c-0.02,0.09 -0.04,0.18 -0.05,0.26 -0.03,0.47 0.27,0.75 0.73,0.78 0.28,0.02 0.54,-0.05 0.75,-0.22l-0.06 0.23 0.48 0.03 0.57 -2.13 -0.5 -0.03 0.01 -0.01zm1.77 2.3l0.52 0.06 0.89 -2.75 -0.52 -0.06 -0.89 2.75zm3.2 -1.71c-0.28,-0.05 -0.55,-0.01 -0.78,0.13l0.09 -0.23 -0.47 -0.08 -0.79 2.06 0.5 0.09 0.42 -1.07c0.16,-0.4 0.44,-0.56 0.8,-0.49 0.29,0.05 0.4,0.21 0.36,0.46 -0.01,0.05 -0.02,0.11 -0.05,0.16l-0.43 1.13 0.5 0.09 0.44 -1.14c0.03,-0.09 0.06,-0.17 0.07,-0.25 0.08,-0.47 -0.18,-0.77 -0.66,-0.86l0.01 0zm1.83 2.65c0.4,0.11 0.8,0.03 1.08,-0.22l-0.3 -0.34c-0.19,0.16 -0.42,0.2 -0.65,0.14 -0.36,-0.09 -0.5,-0.35 -0.42,-0.67 0.12,-0.46 0.51,-0.7 0.93,-0.59 0.25,0.06 0.4,0.2 0.45,0.43l0.47 -0.11c-0.08,-0.37 -0.35,-0.62 -0.77,-0.73 -0.74,-0.19 -1.39,0.19 -1.58,0.89 -0.15,0.55 0.16,1.03 0.79,1.19l0.01 -0zm1.41 0.46c0.17,0.06 0.38,-0.02 0.45,-0.22 0.06,-0.18 -0.02,-0.34 -0.19,-0.4 -0.18,-0.06 -0.38,0.02 -0.45,0.22 -0.06,0.17 0.02,0.35 0.19,0.4l0 -0.01z"/>
   <path class="fil1" d="M0.05 9.96c-0.09,-0.35 -0.05,-0.69 0.12,-1 0.17,-0.32 0.42,-0.53 0.76,-0.63l4.97 -1.53c0.35,-0.11 0.69,-0.08 1.01,0.1 0.32,0.18 0.54,0.44 0.65,0.8 0,0 0,0 0,0 0,0 0,0 0,0 0,0.01 0.01,0.01 0.01,0.01 0,0 0,0 0,0 0.1,0.35 0.06,0.69 -0.11,1 -0.17,0.32 -0.43,0.53 -0.77,0.63l-1.07 0.33 1.63 5.28c0.12,0.39 0.08,0.77 -0.12,1.14 -0.2,0.37 -0.5,0.62 -0.9,0.74 -0.4,0.12 -0.8,0.09 -1.17,-0.1 -0.37,-0.19 -0.62,-0.49 -0.74,-0.9l-1.63 -5.28 -1 0.31c-0.35,0.11 -0.68,0.08 -0.99,-0.1 -0.31,-0.17 -0.52,-0.43 -0.63,-0.78 0,0 0,0 0,0 0,0 0,-0.01 -0.01,-0.01 0,0 0,0 0,0 0,0 0,0 0,0l-0.01 0.01 -0.01 -0.01zm11.43 -1.72c0.11,-0.03 0.22,-0.05 0.33,-0.08 0.11,-0.02 0.21,-0.04 0.31,-0.05 0.33,-0.03 0.65,-0.01 0.94,0.08 0.29,0.08 0.54,0.22 0.76,0.4l0.01 0.04 1.16 -0.76c0.02,-0.02 0.05,-0.04 0.08,-0.05 0.03,-0.02 0.06,-0.02 0.1,-0.03 0.04,-0.01 0.06,-0.02 0.1,-0.03 0.03,-0.01 0.06,-0.01 0.09,-0.01 0.1,-0.01 0.19,0 0.29,0.04 0.09,0.03 0.18,0.08 0.26,0.15 0.19,0.16 0.35,0.35 0.46,0.57 0.11,0.22 0.18,0.46 0.2,0.7l0.4 4.45c0.04,0.43 -0.06,0.8 -0.3,1.1 -0.24,0.3 -0.54,0.46 -0.89,0.49 -0.01,0 -0.02,0 -0.03,0 -0.01,0 -0.02,0 -0.04,0.01 -0.01,-0.01 -0.02,-0.01 -0.03,-0.01 -0.01,0 -0.02,0 -0.04,0.01l-1.27 -0.57 0.01 0.06c-0.18,0.21 -0.4,0.39 -0.66,0.52 -0.26,0.13 -0.57,0.22 -0.93,0.25 -0.12,0.01 -0.23,0.01 -0.36,0.01 -0.12,0 -0.26,-0.01 -0.39,-0.02 -0.41,-0.04 -0.82,-0.16 -1.22,-0.39 -0.4,-0.23 -0.76,-0.53 -1.08,-0.93 -0.21,-0.28 -0.38,-0.58 -0.51,-0.91 -0.13,-0.33 -0.2,-0.69 -0.24,-1.05 -0.01,-0.04 -0.01,-0.07 -0.01,-0.1 0,-0.03 -0.01,-0.06 -0.01,-0.1 -0.04,-0.91 0.19,-1.72 0.67,-2.42 0.49,-0.7 1.1,-1.15 1.83,-1.36l0.01 -0.01zm0.44 3.7c0.01,0.16 0.05,0.3 0.11,0.42 0.05,0.12 0.13,0.23 0.23,0.34 0.11,0.11 0.23,0.18 0.36,0.23 0.13,0.05 0.27,0.07 0.4,0.06 0.01,0 0.02,0 0.04,0 0.01,0 0.03,0 0.05,-0.01 0.15,-0.03 0.29,-0.1 0.42,-0.2 0.13,-0.1 0.23,-0.24 0.31,-0.42 0.03,-0.06 0.05,-0.13 0.07,-0.19 0.02,-0.06 0.02,-0.13 0.03,-0.2 0.01,-0.05 0.01,-0.09 0.01,-0.13 0,-0.04 0,-0.08 -0.01,-0.11 0,-0.02 -0.01,-0.04 -0.01,-0.05 0,-0.01 0,-0.02 -0.01,-0.04 -0.01,-0.02 -0.02,-0.03 -0.02,-0.05 0,-0.01 0,-0.02 -0.01,-0.04 -0.06,-0.23 -0.14,-0.41 -0.26,-0.55 -0.12,-0.14 -0.26,-0.24 -0.43,-0.29 -0.04,-0.01 -0.08,-0.02 -0.11,-0.03 -0.04,-0.01 -0.07,-0.01 -0.09,-0.02 -0.04,-0.01 -0.07,-0.01 -0.11,-0.01 -0.04,0 -0.07,0 -0.11,0 -0.23,0.03 -0.42,0.13 -0.59,0.31 -0.16,0.18 -0.26,0.42 -0.28,0.71 0,0.02 0,0.04 0,0.06 0,0.02 0,0.04 0,0.06 0,0.02 0,0.04 0,0.06 0,0.02 0,0.04 0,0.06l0 0.02zm5.64 2.79c-0.3,-0.19 -0.51,-0.38 -0.63,-0.58 -0.13,-0.2 -0.19,-0.4 -0.18,-0.59 0,-0.05 0.01,-0.11 0.02,-0.16 0.01,-0.05 0.02,-0.11 0.05,-0.16 0.08,-0.22 0.22,-0.39 0.43,-0.53 0.2,-0.13 0.46,-0.19 0.75,-0.18 0.1,0 0.2,0.02 0.31,0.04 0.11,0.02 0.22,0.05 0.33,0.11l0.26 0.09 0.18 0.07c0.2,0.09 0.36,0.15 0.47,0.18 0.12,0.03 0.22,0.05 0.32,0.08l0.08 0 0.16 0.01c0.07,0 0.12,-0.01 0.16,-0.03 0.04,-0.02 0.06,-0.05 0.08,-0.08 0.01,-0.02 0.01,-0.03 0.01,-0.04 0,-0.01 0,-0.02 0,-0.03 0,-0.05 -0.01,-0.08 -0.04,-0.12 -0.02,-0.04 -0.06,-0.07 -0.12,-0.11 -0.01,0 -0.02,0 -0.03,-0.01 -0.01,-0.01 -0.01,-0.01 -0.01,-0.02 -0.01,-0.01 -0.02,-0.02 -0.02,-0.02 -0.01,-0.01 -0.02,-0.01 -0.03,-0.01l-0.12 -0.04 -0.26 -0.08 -0.34 -0.12 -0.25 -0.08c-0.62,-0.19 -1.06,-0.39 -1.34,-0.6 -0.28,-0.21 -0.48,-0.49 -0.6,-0.81 -0.05,-0.12 -0.08,-0.25 -0.1,-0.38 -0.02,-0.12 -0.02,-0.25 -0.02,-0.38 0.02,-0.61 0.32,-1.15 0.91,-1.61 0.59,-0.46 1.39,-0.67 2.4,-0.64 0.02,0 0.03,0 0.04,0 0.01,0 0.02,0 0.04,0 0.01,0 0.02,0 0.04,0 0.01,0 0.02,0 0.04,0 0.23,0.01 0.45,0.03 0.65,0.06 0.2,0.04 0.39,0.08 0.56,0.13 0.33,0.1 0.6,0.21 0.81,0.35 0.2,0.13 0.35,0.26 0.45,0.4 0.06,0.09 0.1,0.18 0.12,0.27 0.02,0.09 0.04,0.18 0.03,0.28 -0.01,0.2 -0.08,0.39 -0.22,0.57 -0.14,0.18 -0.32,0.29 -0.56,0.35 -0.05,0.01 -0.11,0.02 -0.16,0.02 -0.05,0.01 -0.11,0.01 -0.18,0.01 -0.08,0 -0.17,-0.01 -0.27,-0.04 -0.1,-0.02 -0.23,-0.05 -0.38,-0.09l-0.4 -0.11 -0.2 -0.06 -0.21 -0.05c-0.01,0 -0.02,0 -0.04,-0.01 -0.01,-0.01 -0.02,-0.01 -0.04,-0.01 -0.02,-0.01 -0.03,-0.01 -0.04,-0.01 -0.01,0 -0.02,0 -0.04,0 -0.05,-0.01 -0.1,-0.02 -0.14,-0.02 -0.04,-0.01 -0.08,-0.01 -0.11,-0.01 -0.04,0 -0.07,0 -0.1,0.01 -0.03,0.01 -0.06,0.01 -0.09,0.03l-0.03 0.02 -0.04 0.04c-0.04,0.04 -0.05,0.08 -0.04,0.12 0.01,0.05 0.05,0.09 0.12,0.15 0.01,0 0.02,0 0.02,0.01 0.01,0.01 0.01,0.01 0.02,0.02 0.01,0.01 0.02,0.02 0.02,0.02 0.01,0.01 0.02,0.01 0.02,0.01l0.12 0.04 0.2 0.07 0.46 0.16 0.33 0.11 0.29 0.12c0.16,0.06 0.31,0.13 0.45,0.2 0.15,0.08 0.28,0.16 0.41,0.26 0.29,0.22 0.52,0.49 0.66,0.79 0.14,0.3 0.21,0.61 0.2,0.92 0,0.03 0,0.05 0,0.08 0,0.03 0,0.05 0,0.08 -0.04,0.28 -0.13,0.54 -0.28,0.81 -0.15,0.26 -0.38,0.5 -0.67,0.72 -0.28,0.2 -0.59,0.36 -0.97,0.46 -0.37,0.11 -0.8,0.15 -1.3,0.13 -0.09,0 -0.18,-0.01 -0.28,-0.02 -0.1,-0.01 -0.19,-0.02 -0.29,-0.03 -0.43,-0.05 -0.81,-0.12 -1.12,-0.22 -0.31,-0.1 -0.57,-0.2 -0.77,-0.33l0.02 -0.01zm6.02 -6.23c0.14,-0.09 0.29,-0.16 0.45,-0.19 0.16,-0.04 0.33,-0.04 0.49,-0.01l0.13 0.02 0.09 -0.62c0.03,-0.2 0.1,-0.39 0.2,-0.56 0.1,-0.17 0.23,-0.31 0.4,-0.43 0.17,-0.12 0.35,-0.2 0.53,-0.24 0.19,-0.04 0.38,-0.05 0.57,-0.02 0.02,0 0.04,0.01 0.06,0.01 0.02,0.01 0.04,0.01 0.06,0.01 0.16,0.04 0.32,0.11 0.47,0.2 0.15,0.09 0.27,0.22 0.38,0.37 0.12,0.16 0.2,0.34 0.25,0.54 0.05,0.19 0.05,0.39 0.02,0.6l-0.09 0.59 0.17 0.02c0.16,0.02 0.32,0.08 0.46,0.16 0.14,0.08 0.26,0.19 0.35,0.32 0.11,0.13 0.18,0.28 0.22,0.45 0.04,0.16 0.05,0.32 0.02,0.48 -0.02,0.15 -0.08,0.29 -0.15,0.42 -0.08,0.13 -0.18,0.25 -0.32,0.36 -0.13,0.09 -0.28,0.17 -0.45,0.22 -0.16,0.05 -0.33,0.06 -0.51,0.04l-0.18 -0.03 -0.5 3.3c-0.03,0.19 -0.09,0.38 -0.2,0.55 -0.11,0.18 -0.23,0.32 -0.4,0.44 -0.16,0.12 -0.34,0.2 -0.53,0.24 -0.19,0.04 -0.38,0.05 -0.57,0.02 -0.02,0 -0.04,-0.01 -0.06,-0.01 -0.02,-0.01 -0.04,-0.01 -0.06,-0.01 -0.16,-0.04 -0.32,-0.11 -0.47,-0.2 -0.15,-0.09 -0.28,-0.21 -0.38,-0.36 -0.12,-0.17 -0.2,-0.35 -0.25,-0.54 -0.05,-0.19 -0.05,-0.39 -0.02,-0.59l0.51 -3.32 -0.11 -0.02c-0.18,-0.03 -0.34,-0.09 -0.5,-0.18 -0.16,-0.09 -0.29,-0.22 -0.39,-0.36 -0.09,-0.13 -0.15,-0.27 -0.18,-0.43 -0.04,-0.15 -0.04,-0.3 -0.02,-0.45 0.02,-0.16 0.08,-0.3 0.17,-0.45 0.09,-0.14 0.2,-0.26 0.33,-0.35l0.01 0.01zm12.02 6.01c-0.01,0.01 -0.01,0.02 -0.01,0.03 -0.01,0.01 -0.01,0.02 -0.01,0.03 0,0.01 -0.01,0.02 -0.01,0.03 -0.01,0.01 -0.01,0.02 -0.01,0.03 -0.12,0.35 -0.29,0.56 -0.53,0.66 -0.23,0.09 -0.55,0.07 -0.96,-0.08l-3.26 -1.14c0.02,0.04 0.03,0.07 0.05,0.11 0.02,0.04 0.03,0.08 0.05,0.11 0.01,0.01 0.01,0.02 0.03,0.05 0.01,0.02 0.02,0.04 0.02,0.06 0.11,0.16 0.24,0.3 0.41,0.43 0.17,0.13 0.4,0.25 0.69,0.35 0.02,0.01 0.04,0.01 0.06,0.02 0.02,0.01 0.04,0.01 0.06,0.01 0.02,0.01 0.04,0.01 0.06,0.02 0.02,0.01 0.04,0.01 0.06,0.02 0.12,0.04 0.26,0.06 0.43,0.09 0.17,0.03 0.37,0.05 0.6,0.07 0.16,0.01 0.3,0.02 0.41,0.05 0.11,0.02 0.19,0.04 0.26,0.06 0.02,0.01 0.03,0.01 0.04,0.01 0.01,0.01 0.02,0.01 0.02,0.01 0.3,0.11 0.52,0.29 0.64,0.56 0.13,0.26 0.15,0.53 0.05,0.8 -0.01,0.02 -0.01,0.04 -0.02,0.06 -0.01,0.02 -0.02,0.04 -0.04,0.05 -0.01,0.02 -0.02,0.05 -0.03,0.06 -0.01,0.02 -0.02,0.04 -0.04,0.05 -0.14,0.2 -0.33,0.36 -0.57,0.45 -0.24,0.09 -0.59,0.14 -1.05,0.14 -0.16,-0.01 -0.35,-0.03 -0.54,-0.05 -0.19,-0.02 -0.4,-0.06 -0.62,-0.11 -0.15,-0.04 -0.29,-0.07 -0.43,-0.11 -0.14,-0.04 -0.28,-0.08 -0.41,-0.13 -1.26,-0.45 -2.14,-1.14 -2.65,-2.06 -0.5,-0.93 -0.58,-1.87 -0.23,-2.85 0,-0.01 0.01,-0.02 0.01,-0.02 0.01,-0.01 0.01,-0.02 0.01,-0.02 0,-0.01 0.01,-0.02 0.01,-0.02 0,-0.01 0.01,-0.02 0.01,-0.02 0.36,-0.94 1,-1.61 1.93,-2.02 0.93,-0.41 1.93,-0.43 2.99,-0.05 0.34,0.13 0.66,0.29 0.94,0.47 0.29,0.19 0.54,0.41 0.76,0.67 0.3,0.35 0.53,0.73 0.68,1.15 0.15,0.42 0.23,0.83 0.25,1.22 0,0.13 -0.01,0.26 -0.03,0.4 -0.02,0.13 -0.05,0.26 -0.08,0.38l-0.01 0zm-4.29 -1.79l1.49 0.52c0.01,-0.02 0.01,-0.04 0.02,-0.06 0.01,-0.02 0.01,-0.05 0.01,-0.08 0.04,-0.2 0,-0.38 -0.09,-0.53 -0.1,-0.15 -0.23,-0.26 -0.41,-0.32 -0.02,-0.01 -0.04,-0.01 -0.06,-0.02 -0.02,-0.01 -0.05,-0.01 -0.08,-0.01 -0.15,-0.01 -0.29,0.01 -0.43,0.07 -0.14,0.06 -0.27,0.17 -0.39,0.32 -0.01,0.01 -0.03,0.03 -0.04,0.05 -0.01,0.02 -0.02,0.04 -0.02,0.05l0.01 0.01z"/>
   <path class="fil2" d="M25.99 4.65c0,0 1.01,-0.65 0.96,-1.42 -0.11,-1.77 3.32,1.14 -0.96,1.42z"/>
   <path class="fil2" d="M26.05 5.66c0,0 0.8,1.01 1.18,0.47 0.38,-0.53 -0.25,-1.11 -1.18,-0.47zm0.86 -0.11c-0.08,0.01 -0.14,0.08 -0.13,0.16 0.01,0.08 0.08,0.14 0.16,0.13 0.08,-0.01 0.14,-0.08 0.13,-0.16 -0.01,-0.08 -0.08,-0.14 -0.16,-0.13z"/>
   <g>
    <path class="fil3 str1" d="M21.19 4.95c2.17,-0.43 4.88,1.89 3.57,3.85 -1.07,0.94 -2.12,0.63 -2.47,-0.76 -0.65,-1.03 -1.78,-2.06 -2.84,-2.21 1.04,-0.58 2.26,-0.26 3.62,0.78 -0.47,-1.03 -1.12,-1.52 -1.89,-1.65l0 -0.01z"/>
    <path id="_1" class="fil2" d="M21.19 4.95c2.17,-0.43 4.88,1.89 3.57,3.85 -1.07,0.94 -2.12,0.63 -2.47,-0.76 -0.65,-1.03 -1.78,-2.06 -2.84,-2.21 1.04,-0.58 2.26,-0.26 3.62,0.78 -0.47,-1.03 -1.12,-1.52 -1.89,-1.65l0 -0.01z"/>
   </g>
   <path class="fil4" d="M22.91 3.22c-1.77,-1.49 0.95,-3.85 2.37,-3.06 1.03,1.35 -0.94,4.26 -2.37,3.06z"/>
   <path class="fil4" d="M23.11 2.48c0,0 -1.56,4.12 -6.39,4.76 -4.83,0.64 2.42,-0.16 6.39,-4.76z"/>
   <path class="fil2" d="M12.28 5.3l-2.68 -0.08c-0.09,0 -0.18,0.08 -0.18,0.17l0 0c0,0.09 0.08,0.18 0.17,0.18l2.7 0.08c0,0.12 -0.01,0.23 -0.01,0.33l-2.67 -0.08c-0.09,-0.01 -0.18,0.08 -0.18,0.17l0 0c0,0.09 0.08,0.18 0.17,0.18l2.65 0.08c-0.01,0.13 -0.03,0.23 -0.04,0.32l-2.28 -0.07c-0.09,0 -0.18,0.08 -0.18,0.17l0 0c-0.01,0.09 0.08,0.18 0.17,0.18l2.29 0.07c0.04,0.02 0.1,0.01 0.22,0.01l0.04 0c0.03,0 0.05,-0.01 0.08,-0.01 0.88,-0.14 0.76,-0.77 0.84,-1.39 0.08,-0.57 -0.3,-0.79 -0.65,-0.86 -0.02,-0.02 -0.06,-0.03 -0.09,-0.03l-0.09 0c-0.17,-0.02 -0.3,-0.01 -0.3,-0.01l-2.15 -0.06c-0.09,0 -0.18,0.08 -0.18,0.17l0 0c0,0.09 0.08,0.18 0.17,0.18l2.19 0.06c0.01,0.09 0.01,0.17 0.01,0.25l0.01 -0.01z"/>
   <path class="fil2" d="M12.65 5.74c0,0 4.15,1.47 7.76,-1.8 3.61,-3.28 -1.69,1.75 -7.76,1.8z"/>
   <path class="fil1" d="M23.49 7c0,0 0.81,0.85 0.6,1.61 0.01,0.2 -0.25,0.14 -0.16,-0.05 0.19,-0.67 -0.49,-1.49 -0.49,-1.49l-0.12 -0.17 0.17 0.1 -0.01 -0z"/>
   <path class="fil4" d="M11.76 19.98c0,0 10.09,-2.7 14.39,0.11 4.31,2.81 -3.3,-2.24 -14.39,-0.11z"/>
   <path class="fil2" d="M9.81 11.35c-0.45,-2.49 2.33,-2.82 2.33,-2.82 0,0 -1.78,0.55 -2.33,2.82z"/>
  </g>
 </g>
</svg>
