<?xml version="1.0" encoding="UTF-8"?>
<!DOCTYPE svg PUBLIC "-//W3C//DTD SVG 1.1//EN" "http://www.w3.org/Graphics/SVG/1.1/DTD/svg11.dtd">
<!-- Creator: CorelDRAW 2017 -->
<svg xmlns="http://www.w3.org/2000/svg" xml:space="preserve" width="0.920756in" height="0.919343in" version="1.1" style="shape-rendering:geometricPrecision; text-rendering:geometricPrecision; image-rendering:optimizeQuality; fill-rule:evenodd; clip-rule:evenodd"
viewBox="0 0 187.49 187.2"
  xmlns:xlink="http://www.w3.org/1999/xlink">
 <defs>
  <style type="text/css">
   <![CDATA[
    .str0 {stroke:#373435;stroke-width:1.14;stroke-miterlimit:2.61313;stroke-dasharray:13.940304 13.940304}
    .fil4 {fill:none}
    .fil0 {fill:#373435}
    .fil2 {fill:#FFCC29}
    .fil3 {fill:#FEFEFE;fill-rule:nonzero}
    .fil1 {fill:url(#id2);fill-rule:nonzero}
   ]]>
  </style>
    <mask id="id0">
  <linearGradient id="id1" gradientUnits="userSpaceOnUse" x1="66.37" y1="134.68" x2="66.38" y2="48.98">
   <stop offset="0" style="stop-opacity:1; stop-color:white"/>
   <stop offset="1" style="stop-opacity:0; stop-color:white"/>
  </linearGradient>
     <rect style="fill:url(#id1)" x="34.56" y="36.5" width="84.91" height="59.85"/>
    </mask>
  <linearGradient id="id2" gradientUnits="userSpaceOnUse" x1="40.02" y1="104.56" x2="111.12" y2="104.55">
   <stop offset="0" style="stop-opacity:1; stop-color:#7E2726"/>
   <stop offset="1" style="stop-opacity:1; stop-color:#ED3237"/>
  </linearGradient>
 </defs>
 <g id="Layer_x0020_1">
  <metadata id="CorelCorpID_0Corel-Layer"/>
  <g id="_2920452055632">
   <path class="fil0" d="M139.41 81.08c-26.06,31.99 -62.48,42.23 -104.25,41.23 39.4,-5.61 74.28,-19.13 104.25,-41.23z"/>
   <polygon class="fil0" points="141.76,72.54 136.76,74.6 145.3,81.08 145.59,75.19 158.55,74.31 145.63,71.46 137.64,60.76 "/>
   <path class="fil1" d="M74.4 128.12c15.51,0 29.2,-7.77 37.4,-19.62 -5.64,3.27 -11.54,6 -17.66,8.24 -11.68,4.27 -24.19,6.76 -37.35,7.84 5.42,2.28 11.37,3.54 17.61,3.54zm44.68 -37.07c0.51,-2.72 0.77,-5.52 0.77,-8.39 0,-25.11 -20.35,-45.46 -45.46,-45.46 -25.11,0 -45.46,20.35 -45.46,45.46 0,14.13 6.45,26.75 16.56,35.08 15.52,-2.85 30.29,-7.01 44.28,-12.51 10.18,-4.01 19.95,-8.73 29.3,-14.18z"/>
   <path class="fil0" d="M93.76 123.8l0 -1.49c12.97,1.16 20.4,15.25 27.09,25.62 -3.96,-18.38 -11.35,-29.95 -27.09,-31.05l0 0c-4.81,1.74 -9.74,3.16 -14.73,4.32l0 6.68 0 22.4 14.73 0 0 -26.49z"/>
   <path class="fil2" d="M41.74 51.04l13.44 0 0 25.33 23.85 0 0 -25.33 14.73 0 0 52.58 -0.06 0.03 -0.06 0.03 -0.06 0.02 -0 0 -0.06 0.03 -0.06 0.03 -0.06 0.02 -0.06 0.03 -0.06 0.03 -0.06 0.03 -0.06 0.03 -0.04 0.01 -0.03 0.01 -0.06 0.02 -0.03 0.01 -0.03 0.01 -0.06 0.03 -0.06 0.03 -0.06 0.03 -0.06 0.02 -0.06 0.03 -0.01 0 -0.05 0.02 -0.06 0.02 -0.06 0.03 -0.06 0.03 -0.06 0.03 -0.06 0.02 -0.06 0.03 -0.03 0.01 -0.03 0.01 -0.01 0 -0.06 0.03 -0.06 0.03 -0.06 0.02 -0.06 0.03 -0.06 0.03 -0.06 0.02 -0.06 0.03 -0.03 0.01 -0.03 0.01 -0.06 0.03 -0.06 0.02 -0.06 0.03 -0.06 0.02 -0.02 0.01 -0.04 0.02 -0.06 0.02 -0.06 0.03 -0.01 0 -0.06 0.02 -0.06 0.03 -0.06 0.02 -0.06 0.03 -0.06 0.02 -0.06 0.03 -0.06 0.02 -0.05 0.02 -0.02 0.01 -0.06 0.03 -0.06 0.02 -0.01 0 -0.05 0.02 -0.06 0.03 -0.06 0.02 -0.06 0.02 -0.06 0.03 -0.02 0.01 -0.04 0.01 -0.06 0.02 -0.06 0.03 -0.06 0.02 -0.06 0.02 -0.06 0.03 -0.06 0.02 -0.06 0.02 -0.16 0.06 -0.17 0.06 -0.17 0.06 -0.16 0.06 -0.01 0 -0.14 0.06 -0.02 0.01 -0.17 0.06 -0.17 0.06 -0.15 0.06 -0.18 0.07 -0.12 0.05 -0.04 0.02 -0.17 0.06 -0.15 0.06 -0.02 0.01 -0.17 0.06 -0.17 0.06 -0.1 0.04 -0.07 0.02 -0.14 0.06 -0.03 0.01 -0.17 0.06 -0.17 0.06 -0.17 0.06 -0.08 0.03 -0.06 0.02 -0.03 0.01 -0.17 0.06 -0.17 0.06 -0.17 0.06 -0.13 0.05 -0.04 0.01 -0.06 0.02 -0.11 0.04 -0.17 0.06 -0.17 0.06 -0.12 0.05 -0.04 0.02 -0.17 0.06 -0.03 0.01 -0.13 0.05 -0.17 0.06 -0.12 0.04 -0.05 0.02 -0.17 0.06 -0.17 0.06 -0.01 0 -0.16 0.06 -0.11 0.04 -0.06 0.02 -0.17 0.06 -0.17 0.06 -0.16 0.06 -0.01 0 -0.11 0.04 -0.06 0.02 -0.17 0.06 -0.17 0.06 -0.17 0.06 -0.1 0.04 -0.04 0.01 -0.03 0.01 -0.17 0.06 -0.17 0.06 -0.17 0.06 -0.09 0.03 -0.08 0.03 -0.11 0.04 -0.06 0.02 -0.17 0.06 -0.17 0.06 -0.09 0.03 -0.08 0.03 -0.17 0.06 -0.09 0.03 -0.08 0.03 -0.17 0.06 -0.08 0.03 -0.09 0.03 -0.17 0.06 -0.17 0.06 -0.07 0.02 -0.1 0.04 -0.07 0.02 -0.1 0.03 -0.17 0.06 -0.17 0.06 -0.17 0.06 -0.04 0.01 -0.02 0.01 -0.11 0.03 0 -18.05 -23.85 0 0 24.68 -0.23 0.05 -0.09 0.02 -0.13 0.03 -0.23 0.05 -0.06 0.01 -0.17 0.04 -0.12 0.03 -0.1 0.02 -0.23 0.05 -0.23 0.05 -0.03 0 -0.13 0.03 -0.07 0.01 -0.23 0.05 -0.23 0.05 -0.19 0.04 -0.03 0.01 -0 0 -0 0 -0.23 0.05 -0.23 0.05 -0.22 0.05 -0 0 -0.19 0.04 -0.03 0.01 -0.23 0.05 -0.26 0.05 -0.2 0.04 -0.16 0.03 -0.06 0.01 -0.23 0.05 -0.06 0.01 -0.17 0.03 -0.23 0.05 -0.13 0.03 -0.1 0.02 -0.1 0.02 -0.13 0.03 -0.23 0.04 -0.23 0.05 -0.1 0.02 -0.03 0.01 -0.1 0.02 -0.23 0.05 -0.23 0.04 -0.17 0.03 -0.06 0.01 -0.07 0.01 -0.16 0.03 -0.23 0.04 -0.2 0.04 -0.03 0 -0.23 0.04 -0.04 0.01 -0.19 0.04 -0.23 0.04 -0 0 -0.23 0.04 -0.23 0.04 -0.01 0 -0.22 0.04 -0.04 0.01 -0.2 0.04 -0.23 0.04 -0.21 0.04 -0.02 0 -0.07 0.01c-1.8,-1.49 -3.49,-3.11 -5.04,-4.85l0 -60.46c0.42,-0.47 0.85,-0.93 1.29,-1.39z"/>
   <path class="fil3" style="mask:url(#id0)" d="M118.76 72.7c-7.3,13.61 -22.28,22.94 -39.58,22.94 -22.45,0 -41,-15.72 -43.92,-36.11 7.92,-13.36 22.48,-22.33 39.14,-22.33 21.68,0 39.82,15.18 44.36,35.5z"/>
  </g>
  <g id="_2920452057808">
    <circle class="fil4 str0" cx="93.74" cy="93.74" r="93.18">
        <animateTransform attributeName="transform" attributeType="XML" type="rotate" from="0 280 144" to="360 280 144" dur="10s" repeatCount="indefinite"/>
    </circle>
   </g>
  </g>
</svg>
