<?xml version="1.0" encoding="UTF-8"?>
<!DOCTYPE svg PUBLIC "-//W3C//DTD SVG 1.1//EN" "http://www.w3.org/Graphics/SVG/1.1/DTD/svg11.dtd">
<!-- Creator: CorelDRAW 2017 -->
<svg xmlns="http://www.w3.org/2000/svg" xml:space="preserve" width="0.6365in" height="0.555354in" version="1.1" style="shape-rendering:geometricPrecision; text-rendering:geometricPrecision; image-rendering:optimizeQuality; fill-rule:evenodd; clip-rule:evenodd"
viewBox="0 0 95.6 83.42"
 xmlns:xlink="http://www.w3.org/1999/xlink">
 <defs>
  <style type="text/css">
   <![CDATA[
    .fil0 {fill:#373435}
    .fil2 {fill:#FFCC29}
    .fil3 {fill:#FEFEFE;fill-rule:nonzero}
    .fil1 {fill:url(#id2);fill-rule:nonzero}
   ]]>
  </style>
    <mask id="id0">
  <linearGradient id="id1" gradientUnits="userSpaceOnUse" x1="27.61" y1="71.9" x2="27.62" y2="8.69">
   <stop offset="0" style="stop-opacity:1; stop-color:white"/>
   <stop offset="1" style="stop-opacity:0; stop-color:white"/>
  </linearGradient>
     <rect style="fill:url(#id1)" x="4.14" y="-0.52" width="62.63" height="44.15"/>
    </mask>
  <linearGradient id="id2" gradientUnits="userSpaceOnUse" x1="8.18" y1="49.68" x2="60.62" y2="49.68">
   <stop offset="0" style="stop-opacity:1; stop-color:#7E2726"/>
   <stop offset="1" style="stop-opacity:1; stop-color:#ED3237"/>
  </linearGradient>
 </defs>
 <g id="Layer_x0020_1">
  <metadata id="CorelCorpID_0Corel-Layer"/>
  <g id="_2920561668224">
   <path class="fil0" d="M81.49 32.37c-19.22,23.6 -46.09,31.15 -76.9,30.41 29.06,-4.14 54.79,-14.11 76.9,-30.41z"/>
   <polygon class="fil0" points="83.22,26.07 79.53,27.59 85.83,32.37 86.05,28.02 95.6,27.37 86.08,25.27 80.18,17.38 "/>
   <path class="fil1" d="M33.53 67.06c11.44,0 21.54,-5.73 27.59,-14.47 -4.16,2.41 -8.51,4.43 -13.03,6.08 -8.61,3.15 -17.84,4.99 -27.55,5.78 4,1.68 8.38,2.61 12.99,2.61zm32.96 -27.35c0.37,-2.01 0.57,-4.07 0.57,-6.19 0,-18.52 -15.01,-33.53 -33.53,-33.53 -18.52,0 -33.53,15.01 -33.53,33.53 0,10.42 4.76,19.73 12.21,25.88 11.45,-2.1 22.34,-5.17 32.66,-9.23 7.51,-2.96 14.72,-6.44 21.62,-10.46z"/>
   <path class="fil0" d="M47.81 63.88l0 -1.1c9.57,0.85 15.05,11.25 19.99,18.9 -2.92,-13.56 -8.37,-22.09 -19.99,-22.9l0 0c-3.55,1.28 -7.18,2.33 -10.86,3.19l0 4.93 0 16.53 10.86 0 0 -19.54z"/>
   <path class="fil2" d="M9.44 10.21l9.91 0 0 18.68 17.6 0 0 -18.68 10.86 0 0 38.78 -0.05 0.02 -0.05 0.02 -0.04 0.02 -0 0 -0.04 0.02 -0.05 0.02 -0.05 0.02 -0.04 0.02 -0.05 0.02 -0.05 0.02 -0.04 0.02 -0.03 0.01 -0.02 0.01 -0.05 0.02 -0.02 0.01 -0.02 0.01 -0.05 0.02 -0.05 0.02 -0.04 0.02 -0.05 0.02 -0.05 0.02 -0.01 0 -0.04 0.02 -0.05 0.02 -0.05 0.02 -0.04 0.02 -0.05 0.02 -0.04 0.02 -0.05 0.02 -0.02 0.01 -0.02 0.01 -0.01 0 -0.04 0.02 -0.05 0.02 -0.05 0.02 -0.05 0.02 -0.05 0.02 -0.05 0.02 -0.04 0.02 -0.02 0.01 -0.02 0.01 -0.05 0.02 -0.05 0.02 -0.05 0.02 -0.05 0.02 -0.01 0.01 -0.03 0.01 -0.05 0.02 -0.05 0.02 -0 0 -0.04 0.02 -0.05 0.02 -0.05 0.02 -0.04 0.02 -0.05 0.02 -0.04 0.02 -0.05 0.02 -0.03 0.01 -0.01 0 -0.04 0.02 -0.05 0.02 -0.01 0 -0.04 0.02 -0.05 0.02 -0.05 0.02 -0.05 0.02 -0.05 0.02 -0.02 0.01 -0.03 0.01 -0.05 0.02 -0.05 0.02 -0.05 0.02 -0.05 0.02 -0.05 0.02 -0.05 0.02 -0.05 0.02 -0.12 0.05 -0.12 0.05 -0.12 0.05 -0.12 0.05 -0.01 0 -0.11 0.04 -0.02 0.01 -0.12 0.05 -0.12 0.05 -0.11 0.04 -0.13 0.05 -0.09 0.03 -0.03 0.01 -0.12 0.05 -0.11 0.04 -0.01 0.01 -0.12 0.05 -0.12 0.05 -0.07 0.03 -0.05 0.02 -0.1 0.04 -0.02 0.01 -0.12 0.05 -0.12 0.05 -0.12 0.05 -0.06 0.02 -0.04 0.02 -0.02 0.01 -0.12 0.05 -0.12 0.05 -0.12 0.05 -0.1 0.04 -0.03 0.01 -0.04 0.02 -0.08 0.03 -0.12 0.04 -0.12 0.05 -0.09 0.03 -0.03 0.01 -0.12 0.04 -0.02 0.01 -0.1 0.04 -0.12 0.05 -0.09 0.03 -0.04 0.01 -0.12 0.05 -0.12 0.05 -0.01 0 -0.12 0.04 -0.08 0.03 -0.04 0.02 -0.12 0.04 -0.12 0.04 -0.12 0.04 -0.01 0 -0.08 0.03 -0.05 0.02 -0.13 0.04 -0.12 0.04 -0.12 0.04 -0.07 0.03 -0.03 0.01 -0.03 0.01 -0.12 0.04 -0.12 0.04 -0.13 0.04 -0.07 0.02 -0.06 0.02 -0.08 0.03 -0.04 0.02 -0.13 0.04 -0.12 0.04 -0.06 0.02 -0.06 0.02 -0.12 0.04 -0.07 0.02 -0.06 0.02 -0.13 0.04 -0.06 0.02 -0.07 0.02 -0.13 0.04 -0.12 0.04 -0.05 0.02 -0.08 0.03 -0.05 0.02 -0.07 0.02 -0.13 0.04 -0.13 0.04 -0.13 0.04 -0.03 0.01 -0.02 0.01 -0.08 0.02 0 -13.31 -17.6 0 0 18.21 -0.17 0.04 -0.07 0.02 -0.1 0.02 -0.17 0.04 -0.04 0.01 -0.12 0.03 -0.09 0.02 -0.08 0.02 -0.17 0.04 -0.17 0.04 -0.02 0 -0.1 0.02 -0.05 0.01 -0.17 0.04 -0.17 0.04 -0.14 0.03 -0.02 0 -0 0 -0 0 -0.17 0.04 -0.17 0.03 -0.17 0.04 -0 0 -0.14 0.03 -0.02 0.01 -0.17 0.03 -0.19 0.04 -0.15 0.03 -0.12 0.02 -0.05 0.01 -0.17 0.03 -0.05 0.01 -0.12 0.02 -0.17 0.03 -0.1 0.02 -0.07 0.01 -0.07 0.02 -0.1 0.02 -0.17 0.03 -0.17 0.03 -0.07 0.02 -0.02 0 -0.07 0.01 -0.17 0.03 -0.17 0.03 -0.12 0.02 -0.05 0.01 -0.05 0.01 -0.12 0.02 -0.17 0.03 -0.15 0.03 -0.02 0 -0.17 0.03 -0.03 0.01 -0.14 0.03 -0.17 0.03 -0 0 -0.17 0.03 -0.17 0.03 -0 0 -0.16 0.03 -0.03 0.01 -0.14 0.03 -0.17 0.03 -0.15 0.03 -0.02 0 -0.05 0.01c-1.33,-1.1 -2.57,-2.29 -3.72,-3.58l0 -44.6c0.31,-0.35 0.63,-0.69 0.95,-1.02z"/>
   <path class="fil3" style="mask:url(#id0)" d="M66.25 26.19c-5.39,10.04 -16.44,16.92 -29.19,16.92 -16.56,0 -30.24,-11.6 -32.4,-26.64 5.84,-9.86 16.58,-16.47 28.87,-16.47 16,0 29.37,11.2 32.72,26.19z"/>
  </g>
 </g>
</svg>
