<?xml version="1.0" encoding="UTF-8"?>
<!DOCTYPE svg PUBLIC "-//W3C//DTD SVG 1.1//EN" "http://www.w3.org/Graphics/SVG/1.1/DTD/svg11.dtd">
<!-- Creator: CorelDRAW 2017 -->
<svg xmlns="http://www.w3.org/2000/svg" xml:space="preserve" width="0.982665in" height="0.857386in" version="1.1" style="shape-rendering:geometricPrecision; text-rendering:geometricPrecision; image-rendering:optimizeQuality; fill-rule:evenodd; clip-rule:evenodd"
viewBox="0 0 982.66 857.38"
 xmlns:xlink="http://www.w3.org/1999/xlink">
 <defs>
  <style type="text/css">
   <![CDATA[
    .fil3 {fill:#373435}
    .fil1 {fill:#FFCC29}
    .fil2 {fill:#FEFEFE;fill-rule:nonzero}
    .fil0 {fill:url(#id2);fill-rule:nonzero}
   ]]>
  </style>
    <mask id="id0">
  <linearGradient id="id1" gradientUnits="userSpaceOnUse" x1="283.79" y1="739.04" x2="283.84" y2="89.29">
   <stop offset="0" style="stop-opacity:1; stop-color:white"/>
   <stop offset="1" style="stop-opacity:0; stop-color:white"/>
  </linearGradient>
     <rect style="fill:url(#id1)" x="44.46" y="-3.47" width="640" height="449.99"/>
    </mask>
  <linearGradient id="id2" gradientUnits="userSpaceOnUse" x1="84.03" y1="510.66" x2="623.09" y2="510.6">
   <stop offset="0" style="stop-opacity:1; stop-color:#7E2726"/>
   <stop offset="1" style="stop-opacity:1; stop-color:#ED3237"/>
  </linearGradient>
 </defs>
 <g id="Layer_x0020_1">
  <metadata id="CorelCorpID_0Corel-Layer"/>
  <g id="_2541509079088">
   <path class="fil0" d="M344.66 689.31c117.58,0 221.4,-58.87 283.59,-148.75 -42.76,24.8 -87.46,45.49 -133.92,62.5 -88.54,32.39 -183.39,51.26 -283.21,59.42 41.07,17.29 86.18,26.83 133.54,26.83zm338.78 -281.08c3.85,-20.61 5.87,-41.85 5.87,-63.57 0,-190.35 -154.31,-344.66 -344.66,-344.66 -190.35,0 -344.65,154.31 -344.65,344.66 0,107.11 48.9,202.79 125.53,266 117.66,-21.63 229.64,-53.15 335.73,-94.89 77.18,-30.38 151.27,-66.19 222.17,-107.54z"/>
   <path class="fil1" d="M97.06 104.92l101.89 0 0 192.01 180.86 0 0 -192.01 111.64 0 0 398.62 -0.46 0.2 -0.48 0.2 -0.44 0.19 -0.03 0.01 -0.46 0.19 -0.46 0.2 -0.48 0.19 -0.46 0.2 -0.46 0.2 -0.48 0.19 -0.46 0.2 -0.27 0.11 -0.19 0.09 -0.48 0.19 -0.24 0.11 -0.22 0.09 -0.47 0.19 -0.48 0.2 -0.46 0.2 -0.47 0.19 -0.48 0.2 -0.1 0.04 -0.37 0.16 -0.47 0.19 -0.48 0.2 -0.46 0.2 -0.48 0.2 -0.46 0.18 -0.47 0.2 -0.19 0.07 -0.21 0.09 -0.07 0.02 -0.46 0.2 -0.48 0.19 -0.46 0.19 -0.48 0.2 -0.46 0.2 -0.48 0.19 -0.47 0.19 -0.22 0.09 -0.26 0.1 -0.46 0.2 -0.48 0.19 -0.46 0.19 -0.48 0.19 -0.12 0.06 -0.34 0.13 -0.48 0.19 -0.47 0.19 -0.05 0.03 -0.43 0.16 -0.46 0.2 -0.48 0.19 -0.46 0.2 -0.48 0.18 -0.46 0.2 -0.48 0.19 -0.35 0.13 -0.13 0.05 -0.46 0.2 -0.48 0.19 -0.06 0.02 -0.41 0.16 -0.48 0.2 -0.48 0.18 -0.46 0.19 -0.48 0.2 -0.17 0.07 -0.3 0.11 -0.48 0.19 -0.48 0.2 -0.46 0.19 -0.48 0.18 -0.48 0.2 -0.46 0.19 -0.48 0.19 -1.25 0.49 -1.26 0.49 -1.25 0.49 -1.21 0.48 -0.05 0.01 -1.09 0.43 -0.16 0.06 -1.26 0.49 -1.26 0.49 -1.16 0.45 -1.35 0.52 -0.93 0.35 -0.33 0.13 -1.26 0.48 -1.12 0.43 -0.15 0.06 -1.26 0.48 -1.26 0.48 -0.74 0.3 -0.52 0.18 -1.07 0.42 -0.2 0.06 -1.26 0.48 -1.26 0.48 -1.26 0.48 -0.59 0.22 -0.44 0.17 -0.24 0.09 -1.26 0.48 -1.26 0.46 -1.28 0.48 -0.98 0.37 -0.28 0.1 -0.42 0.16 -0.86 0.32 -1.26 0.46 -1.27 0.46 -0.93 0.34 -0.33 0.13 -1.28 0.46 -0.26 0.1 -1.02 0.37 -1.26 0.47 -0.89 0.33 -0.38 0.13 -1.28 0.46 -1.28 0.47 -0.09 0.02 -1.19 0.43 -0.83 0.31 -0.44 0.16 -1.28 0.45 -1.27 0.47 -1.19 0.41 -0.09 0.04 -0.8 0.28 -0.48 0.17 -1.29 0.45 -1.28 0.45 -1.28 0.46 -0.75 0.27 -0.27 0.1 -0.26 0.09 -1.29 0.45 -1.27 0.45 -1.29 0.46 -0.69 0.24 -0.59 0.2 -0.85 0.29 -0.44 0.16 -1.29 0.44 -1.28 0.44 -0.65 0.23 -0.64 0.22 -1.29 0.44 -0.67 0.23 -0.6 0.21 -1.29 0.44 -0.6 0.2 -0.69 0.24 -1.29 0.44 -1.28 0.44 -0.5 0.17 -0.78 0.27 -0.56 0.19 -0.73 0.24 -1.29 0.44 -1.3 0.43 -1.29 0.44 -0.33 0.11 -0.16 0.06 -0.8 0.26 0 -136.84 -180.86 0 0 187.13 -1.72 0.38 -0.7 0.16 -1.02 0.22 -1.73 0.39 -0.44 0.09 -1.28 0.28 -0.94 0.21 -0.77 0.17 -1.73 0.38 -1.72 0.38 -0.21 0.04 -0.99 0.22 -0.53 0.11 -1.73 0.37 -1.73 0.38 -1.44 0.31 -0.25 0.05 -0.01 0 -0.01 0.02 -1.73 0.37 -1.73 0.35 -1.7 0.37 -0.02 0 -1.47 0.31 -0.26 0.06 -1.74 0.35 -1.96 0.42 -1.5 0.31 -1.24 0.24 -0.49 0.11 -1.74 0.36 -0.48 0.1 -1.25 0.26 -1.74 0.35 -1 0.2 -0.74 0.15 -0.74 0.16 -0.99 0.2 -1.74 0.34 -1.74 0.34 -0.76 0.16 -0.24 0.05 -0.74 0.15 -1.74 0.35 -1.74 0.33 -1.25 0.26 -0.49 0.09 -0.53 0.11 -1.21 0.23 -1.75 0.34 -1.5 0.3 -0.25 0.04 -1.74 0.33 -0.29 0.06 -1.46 0.27 -1.74 0.34 -0.02 0 -1.73 0.32 -1.76 0.33 -0.05 0.01 -1.69 0.32 -0.27 0.06 -1.48 0.27 -1.75 0.32 -1.57 0.3 -0.19 0.02 -0.54 0.1c-13.67,-11.28 -26.44,-23.57 -38.22,-36.8l0 -458.41c3.18,-3.57 6.44,-7.07 9.76,-10.51z"/>
   <path class="fil2" style="mask:url(#id0)" d="M680.99 269.15c-55.38,103.16 -168.94,173.9 -300.07,173.9 -170.22,0 -310.86,-119.18 -332.98,-273.77 60.02,-101.32 170.42,-169.27 296.72,-169.27 164.41,0 301.91,115.13 336.33,269.15z"/>
  </g>
  <path class="fil3" d="M837.54 332.68c-197.59,242.57 -473.72,320.15 -790.43,312.6 298.72,-42.53 563.16,-145.02 790.43,-312.6z"/>
  <polygon class="fil3" points="855.4,267.92 817.43,283.55 882.19,332.68 884.43,288.02 982.66,281.32 884.71,259.74 824.14,178.61 "/>
  <path class="fil3" d="M491.45 656.56l0 -11.29c98.35,8.78 154.68,115.65 205.42,194.25 -30.01,-139.39 -86.05,-227.08 -205.42,-235.42l0 0c-36.44,13.2 -73.82,23.94 -111.64,32.76l0 50.68 0 169.85 111.64 0 0 -200.82z"/>
 </g>
</svg>
