<?xml version="1.0" encoding="UTF-8"?>
<!DOCTYPE svg PUBLIC "-//W3C//DTD SVG 1.1//EN" "http://www.w3.org/Graphics/SVG/1.1/DTD/svg11.dtd">
<!-- Creator: CorelDRAW -->
<svg xmlns="http://www.w3.org/2000/svg" xml:space="preserve" width="0.453335in" height="0.453339in" version="1.1" style="shape-rendering:geometricPrecision; text-rendering:geometricPrecision; image-rendering:optimizeQuality; fill-rule:evenodd; clip-rule:evenodd"
viewBox="0 0 11.47 11.47"
 xmlns:xlink="http://www.w3.org/1999/xlink"
 xmlns:xodm="http://www.corel.com/coreldraw/odm/2003">
 <defs>
  <style type="text/css">
   <![CDATA[
    .fil0 {fill:#30D48B}
    .fil2 {fill:#5BCB9C}
    .fil1 {fill:#FDFFFE}
   ]]>
  </style>
 </defs>
 <g id="Layer_x0020_1">
  <metadata id="CorelCorpID_0Corel-Layer"/>
  <path class="fil0" d="M5.73 0c-3.17,0 -5.73,2.57 -5.73,5.73 0,3.17 2.57,5.73 5.73,5.73 3.17,0 5.73,-2.57 5.73,-5.73 0,-3.17 -2.57,-5.73 -5.73,-5.73z"/>
  <path class="fil1" d="M1.15 7.54c0.43,0.01 0.88,0 1.31,0 0.46,0 0.76,0 1.09,-0.25 0.23,-0.18 0.45,-0.45 0.49,-0.85 0.06,-0.64 -0.33,-0.93 -0.34,-1.02 0.03,-0.16 0.12,-0.25 0.15,-0.44 0.08,-0.5 -0.14,-0.97 -0.53,-1.23 -0.3,-0.2 -0.54,-0.22 -0.97,-0.22 -0.38,0 -0.81,-0.02 -1.19,0l-0.01 4z"/>
  <path class="fil1" d="M5.89 4.69c-1.99,-0 -1.94,2.87 -0.06,2.9 0.81,0.01 1.44,-0.62 1.47,-1.4 0.04,-0.81 -0.62,-1.5 -1.41,-1.5z"/>
  <path class="fil1" d="M8.98 4.22l-0 1.21c0,0.45 -0.07,1.4 0.12,1.73 0.21,0.36 0.84,0.61 1.3,0.3l-0 -0.67c-0.57,-0.01 -0.48,-0.06 -0.47,-1.11l0.47 -0.01c-0,-0.18 0.02,-0.79 -0.02,-0.9 -0.01,-0 -0.02,-0.02 -0.03,-0.01l-0.05 -0.01c-0.01,-0 -0.02,-0 -0.03,-0l-0.33 -0.01 -0.02 -0.71c-0.2,0.01 -0.77,0.14 -0.94,0.2z"/>
  <polygon class="fil1" points="7.67,3.73 7.66,7.55 8.6,7.55 8.61,3.56 "/>
  <path class="fil0" d="M5.75 5.68c-0.65,0.17 -0.36,1.07 0.25,0.9 0.55,-0.16 0.35,-1.06 -0.25,-0.9z"/>
  <path class="fil1" d="M5.74 7.95c-0.61,0.17 -0.36,1.08 0.25,0.9 0.57,-0.16 0.34,-1.06 -0.25,-0.9z"/>
  <path class="fil0" d="M2.09 6.6c0.34,0.01 1,0.13 1,-0.3 -0.01,-0.41 -0.65,-0.28 -0.99,-0.29l-0.01 0.59z"/>
  <path class="fil0" d="M2.77 5c0.07,-0.02 -0.01,0.05 0.08,-0.05 0.03,-0.03 0.05,-0.07 0.05,-0.12 0.02,-0.11 -0.01,-0.16 -0.05,-0.23 -0.04,-0.01 -0.41,-0.15 -0.63,-0.08l-0.1 0.26c0,0.08 0.01,0.16 0.01,0.24 0.21,0.02 0.44,0.03 0.64,-0.02z"/>
  <path class="fil2" d="M2.77 5c-0.2,0.05 -0.43,0.04 -0.64,0.02 -0,-0.08 -0.01,-0.16 -0.01,-0.24l0.1 -0.26c0.22,-0.07 0.59,0.07 0.63,0.08 -0.12,-0.17 -0.27,-0.13 -0.55,-0.13 -0.27,-0 -0.22,0.02 -0.22,0.28 0,0.19 -0.03,0.29 0.08,0.31 0.03,0.01 0.05,0.01 0.08,0.01 0.06,0 0.14,-0 0.21,-0l0.25 -0.01c0.06,-0.03 0.04,-0.02 0.07,-0.06z"/>
 </g>
</svg>
