<?xml version="1.0" encoding="UTF-8"?>
<!DOCTYPE svg PUBLIC "-//W3C//DTD SVG 1.1//EN" "http://www.w3.org/Graphics/SVG/1.1/DTD/svg11.dtd">
<!-- Creator: CorelDRAW 2019 (64-Bit) -->
<svg xmlns="http://www.w3.org/2000/svg" xml:space="preserve" width="0.894276in" height="0.197189in" version="1.1" style="shape-rendering:geometricPrecision; text-rendering:geometricPrecision; image-rendering:optimizeQuality; fill-rule:evenodd; clip-rule:evenodd"
viewBox="0 0 114.2 25.18"
 xmlns:xlink="http://www.w3.org/1999/xlink">
 <defs>
  <style type="text/css">
   <![CDATA[
    .fil0 {fill:#FEFEFE}
   ]]>
  </style>
 </defs>
 <g id="Layer_x0020_1">
  <metadata id="CorelCorpID_0Corel-Layer"/>
  <path class="fil0" d="M79.91 4.46l-10.43 -0.01c-0.06,0.02 -1.67,2.29 -1.9,2.54 -0.16,0.17 -0.4,0.55 -0.55,0.77l-0.37 0.52c-0.07,0.1 -0.14,0.16 -0.2,0.25 -0.04,0.05 -0.05,0.06 -0.08,0.14l-0.64 0.9c-0.41,0.49 -0.11,0.37 -1.4,0.37l-3.11 0c-0.42,0 -0.63,0.06 -0.24,-0.36l0.05 -0.04c0.13,-0.14 0.61,-0.8 0.73,-0.97l1.03 -1.43c0.37,-0.41 0.84,-1.12 1.16,-1.58l0.66 -0.88c0.19,-0.26 0.13,-0.22 -0.21,-0.22 -3.26,0.01 -6.54,0.01 -9.8,0 -0.33,-0 -0.27,-0.03 -0.44,0.17 -0.24,0.29 -0.74,1.05 -1.03,1.4 -0.03,0.03 -0.04,0.04 -0.06,0.08l-0.1 0.15c-0.12,0.17 -0.26,0.29 -0.38,0.46 -0.1,0.14 -0.18,0.23 -0.26,0.36 -0.17,0.24 -0.38,0.46 -0.52,0.71 -0.08,0.15 -0.15,0.24 -0.25,0.36 -0.27,0.35 -0.5,0.73 -0.79,1.06 -0.19,0.21 -0.92,1.26 -1.04,1.45l-0.13 0.18c-0,0 -0.01,0.01 -0.01,0.01l-0.77 1.01c-0.05,0.07 -0.08,0.12 -0.13,0.19 -0.01,0.01 -0.03,0.04 -0.03,0.04 -0,0 -0.01,0.01 -0.01,0.01l-0.61 0.81c-0.78,1.11 -0.98,1.06 -0.34,1.06l24.51 0c0.72,0 0.63,0.12 0.94,-0.3l0.77 -1.06c0.13,-0.14 0.17,-0.2 0.28,-0.35 0.17,-0.24 0.33,-0.46 0.52,-0.71l0.51 -0.71c0.32,-0.41 0.91,-1.21 1.16,-1.59 0.24,-0.36 0.55,-0.7 0.79,-1.06 0.05,-0.07 0.07,-0.13 0.12,-0.2 0.25,-0.36 0.53,-0.69 0.79,-1.04 0.14,-0.18 0.23,-0.37 0.37,-0.54 0.05,-0.06 0.09,-0.1 0.15,-0.17 0.05,-0.07 0.08,-0.11 0.13,-0.18 0.05,-0.06 0.09,-0.08 0.15,-0.16 0.07,-0.11 0.17,-0.24 0.25,-0.35 0.09,-0.12 0.17,-0.28 0.25,-0.38l0.39 -0.52c0.06,-0.08 0.11,-0.09 0.11,-0.2l-0 -0zm-79.91 10.75l16.84 0c0.01,0.14 -0.13,0.23 -0.2,0.33l-0.46 0.65c-0.17,0.2 -0.16,0.18 -0.39,0.18 -2.23,-0.02 -4.53,0 -6.76,0 -3.01,0 -6.02,0 -9.03,0l0 0.99 15.24 0c0,0.15 -0.12,0.23 -0.19,0.32l-0.43 0.58c-0.1,0.12 -0.12,0.22 -0.3,0.23 -0.66,0.02 -1.38,-0 -2.05,-0l-12.28 0 0 0.97c1.13,-0.01 13.61,-0.02 13.65,0.01 0.1,0.09 -0.24,0.42 -0.35,0.56l-0.4 0.57 -12.9 0.01 0 4.56 114.2 -0.01 0 -4.55 -16.86 -0c0.01,-0.24 0.53,-0.74 0.64,-0.97 0.07,-0.28 0.33,-0.2 0.84,-0.2l11.27 0c1.35,0 2.74,0.03 4.09,0 0.04,-0.14 0.03,-0.75 0.01,-0.92 -0.61,-0.03 -1.29,-0 -1.91,-0l-12.98 0c-0.2,0 -0.61,0.08 -0.41,-0.18 0.15,-0.19 0.74,-1.03 0.79,-1.04l10.86 -0c0.48,0 3.44,0.05 3.63,-0.02 0.04,-0.12 0.04,-0.75 -0,-0.86 -0.14,-0.05 -3.32,-0.02 -3.44,-0.02 -0.92,0 -10.23,0.04 -10.29,-0.02 -0.06,-0.06 -0.04,-0.08 -0,-0.14l0.71 -0.96c0.1,-0.13 0.17,-0.1 0.36,-0.1 3.59,0.02 7.22,0 10.81,0 0.36,0 1.62,0.05 1.88,-0.02l0 -15.17 -114.2 0 0 15.21 -0 0zm43.85 -1.24c0.18,-0.25 0.39,-0.5 0.57,-0.75l0.55 -0.78c0.04,-0.07 0.09,-0.11 0.13,-0.18l1 -1.33c0.47,-0.61 0.7,-1.18 0.71,-1.94 0.01,-0.52 -0.01,-0.78 -0.14,-1.2 -0.11,-0.37 -0.05,-0.19 -0.18,-0.46 -0.08,-0.16 -0.14,-0.3 -0.23,-0.44 -0.22,-0.34 -0.6,-0.81 -0.91,-1.06l-0.53 -0.36c-0,-0 -0.01,-0.01 -0.01,-0.01l-0.68 -0.4c-0.19,-0.1 -0.8,-0.29 -1,-0.33 -0.91,-0.2 -1.39,-0.26 -2.39,-0.26l-19.86 0c-0.22,0 -0.43,0 -0.65,0 -0.34,-0 -0.3,0.02 -0.44,0.24l-2.52 3.43c-0.21,0.3 -0.33,0.42 -0.57,0.75 -0.51,0.69 -0.63,0.56 0.69,0.56l18.54 0c0.49,0 1.28,-0.05 1.09,0.52 -0.02,0.05 -0.03,0.08 -0.05,0.12l-1.15 1.67c-0.08,0.14 -1.01,1.31 -1.11,1.54 -0.09,0.2 -0.13,0.37 0.05,0.52 0.25,0.2 0.73,0.19 1.14,0.19l6.62 0c0.41,0 0.93,0.03 1.33,-0.01zm-28.95 6.65c0.81,0.03 1.69,0 2.51,0l15.17 0c0.26,0 1.24,-0.03 1.48,-0.08 0.1,-0.02 0.14,-0.05 0.25,-0.05 0.13,-0.01 0.19,0.01 0.3,-0.03 0.14,-0.04 0.43,-0.05 0.81,-0.16 0.17,-0.05 0.36,-0.05 0.51,-0.12 0.3,-0.13 0.18,-0.07 0.48,-0.14 0.21,-0.05 0.32,-0.07 0.51,-0.15 0.17,-0.06 0.27,-0.13 0.45,-0.18 0.15,-0.04 0.27,-0.13 0.42,-0.2 0.22,-0.09 0.67,-0.3 0.85,-0.43 0.12,-0.09 0.28,-0.14 0.4,-0.23 0.14,-0.09 0.24,-0.16 0.38,-0.25 0.85,-0.54 1.7,-1.31 2.39,-2.04 0.35,-0.37 0.69,-0.79 1.01,-1.2 0.19,-0.24 -0.32,-0.16 -0.71,-0.16l-11.36 0c-0.52,-0 -1.36,-0.04 -1.04,-0.71 0.14,-0.29 1.75,-2.29 2.14,-2.91 0.19,-0.3 0.41,-0.61 0.1,-0.84 -0.15,-0.11 -0.28,-0.1 -0.5,-0.12 -0.35,-0.04 -0.88,-0.01 -1.26,-0.01l-7.58 0c-0.27,0 -0.36,-0.05 -0.52,0.1 -0.11,0.11 -0.16,0.24 -0.26,0.36l-0.93 1.29c-0.04,0.06 -0.08,0.12 -0.13,0.18 -0.1,0.12 -0.15,0.24 -0.26,0.37 -0.1,0.12 -0.2,0.24 -0.28,0.37 -0.15,0.26 -0.74,0.93 -0.81,1.06 -0.1,0.18 -0.17,0.23 -0.27,0.38 -0.31,0.44 -0.8,1.05 -1.07,1.46l-0.4 0.54c-0.06,0.1 -0.08,0.1 -0.14,0.18 -0.25,0.35 -0.23,0.36 -0.54,0.74 -0.06,0.07 -0.06,0.12 -0.12,0.2 -0.05,0.07 -0.09,0.1 -0.14,0.17l-0.52 0.73c-0.02,0.03 -0.04,0.05 -0.06,0.08 -0.01,0.01 -0.01,0.01 -0.03,0.04l-0.45 0.61c-0.13,0.2 -0.36,0.45 -0.54,0.71l-0.2 0.28c-0.06,0.08 -0.04,0.02 -0.05,0.13l0 -0zm60.57 -5.39c-0.08,0.06 -0.76,1 -0.83,1.1 -0.15,0.21 -0.15,0.13 -0.31,0.42 -0.1,0.18 -0.31,0.4 -0.42,0.78 -0.07,0.24 -0.15,0.57 -0.1,0.84 0.09,0.41 0.19,0.69 0.45,0.99 0.07,0.08 0.15,0.17 0.24,0.24 0.22,0.18 0.36,0.27 0.63,0.37 0.37,0.14 0.14,0.09 0.31,0.17 0.21,0.09 0.88,0.28 1.11,0.33 1.14,0.25 4.54,0.16 5.65,0.16l12.54 0c0.15,0 0.34,0.01 0.48,0 0.17,-0.01 0.19,-0.12 0.26,-0.23 0.07,-0.1 0.14,-0.17 0.21,-0.27l1.14 -1.53c0.04,-0.06 0.05,-0.1 0.09,-0.16l0.82 -1.11c0.16,-0.21 0.25,-0.29 0.42,-0.54l0.15 -0.21c0.09,-0.09 0.17,-0.16 0.25,-0.35l0.31 -0.42c0.51,-0.71 0.65,-0.61 -0.26,-0.61l-21.24 0c-0.26,0 -1.82,-0.05 -1.91,0.03l0 0zm0.97 -1.26c1.13,0.03 2.29,0 3.43,0l7.3 0c0.16,0 0.28,0.03 0.38,-0.07 0.06,-0.07 0.14,-0.18 0.18,-0.25 0.06,-0.1 0.12,-0.15 0.19,-0.24l0.73 -1.01c0.2,-0.31 0.34,-0.46 0.55,-0.72 0.06,-0.08 0.11,-0.18 0.18,-0.26 0.22,-0.27 0.21,-0.28 0.37,-0.5 0.07,-0.1 0.1,-0.17 0.17,-0.26 0.3,-0.38 0.68,-0.91 0.93,-1.21l0.31 -0.41c0,-0.01 0.01,-0.01 0.01,-0.01 0.02,-0.03 0.03,-0.05 0.05,-0.07l0.36 -0.51c0.13,-0.17 0.25,-0.32 0.36,-0.48l2.19 -2.99c0.06,-0.09 0.12,-0.17 0.19,-0.25 0.05,-0.05 0.06,-0.08 0.09,-0.13 0.18,-0.25 -0.11,-0.15 -0.78,-0.15l-9.87 0c-0.47,0 -0.31,-0.02 -0.56,0.31 -0.06,0.08 -0.13,0.16 -0.19,0.24l-0.81 1.12c-0.05,0.07 -0.05,0.05 -0.1,0.11 -0.06,0.08 -0.1,0.17 -0.16,0.27 -0.07,0.1 -0.13,0.14 -0.2,0.23l-0.74 0.99c-0.06,0.09 -0.13,0.17 -0.19,0.25l-0.36 0.49c-0.13,0.18 -0.25,0.31 -0.36,0.51l-0.82 1.11c-0.03,0.05 -0.05,0.1 -0.08,0.14l-1.3 1.73c-0.12,0.17 -0.22,0.31 -0.36,0.49 -0.21,0.28 -0.43,0.49 -0.56,0.74 -0.06,0.12 -0.1,0.16 -0.18,0.26l-0.28 0.37c-0.07,0.08 -0.07,0.03 -0.07,0.17l-0 -0zm-33.97 6.64c3.36,0.01 6.87,0.02 10.22,0l0.2 -0c0.13,-0.19 0.79,-1.01 0.87,-1.15 0.05,-0.08 0.08,-0.13 0.13,-0.19l0.48 -0.67c0.09,-0.11 0.18,-0.18 0.26,-0.32 0.07,-0.13 0.16,-0.26 0.24,-0.37 0.31,-0.45 0.55,-0.75 0.87,-1.15 0.06,-0.07 0.01,-0.06 0.12,-0.19 0.14,-0.17 0.25,-0.38 0.38,-0.49l0.25 -0.33c0.04,-0.05 0.07,-0.12 0.11,-0.18 0.08,-0.13 0.23,-0.18 0.2,-0.38 -0.78,-0.04 -1.66,-0 -2.45,-0l-7.42 0c-0.77,0 -0.46,-0.07 -0.84,0.38l-3.39 4.63c-0.09,0.11 -0.23,0.26 -0.24,0.41l0 0.01zm15.19 0l10.4 0 0.86 -1.16c0.18,-0.23 0.04,-0 0.26,-0.34l0.75 -0.98c0,-0 0.01,-0.01 0.01,-0.01 0,-0 0.01,-0.01 0.01,-0.01 0.05,-0.06 0.05,-0.11 0.1,-0.17 0.07,-0.12 0.16,-0.21 0.25,-0.33l0.24 -0.34c0.18,-0.2 0.33,-0.45 0.5,-0.67 0.17,-0.22 0.33,-0.45 0.5,-0.68 0.08,-0.11 0.47,-0.56 0.47,-0.69 -0.2,-0.06 -4.33,-0.03 -4.9,-0.03 -1.65,0 -3.31,0 -4.96,0 -0.56,0 -0.56,-0.11 -0.86,0.36 -0.11,0.16 -0.11,0.1 -0.19,0.24l-0.06 0.11c-0.22,0.38 -1,1.35 -1.31,1.8l-0.67 0.87c-0.06,0.07 -0.06,0.13 -0.11,0.21 -0.17,0.26 -0.27,0.32 -0.52,0.71 -0.09,0.13 -0.15,0.25 -0.26,0.36l-0.4 0.55c-0.07,0.11 -0.1,0.07 -0.11,0.22l0 -0.01z"/>
 </g>
</svg>
