<?xml version="1.0" encoding="UTF-8"?>
<!DOCTYPE svg PUBLIC "-//W3C//DTD SVG 1.1//EN" "http://www.w3.org/Graphics/SVG/1.1/DTD/svg11.dtd">
<!-- Creator: CorelDRAW 2019 (64-Bit) -->
<svg xmlns="http://www.w3.org/2000/svg" xml:space="preserve" width="0.767in" height="0.169126in" version="1.1" style="shape-rendering:geometricPrecision; text-rendering:geometricPrecision; image-rendering:optimizeQuality; fill-rule:evenodd; clip-rule:evenodd"
viewBox="0 0 767 169.13"
 xmlns:xlink="http://www.w3.org/1999/xlink">
 <defs>
  <style type="text/css">
   <![CDATA[
    .fil0 {fill:#FEFEFE}
   ]]>
  </style>
 </defs>
 <g id="Layer_x0020_1">
  <metadata id="CorelCorpID_0Corel-Layer"/>
  <path class="fil0" d="M536.72 29.93l-70.02 -0.05c-0.38,0.15 -11.23,15.41 -12.78,17.04 -1.09,1.15 -2.66,3.71 -3.72,5.16l-2.48 3.52c-0.46,0.67 -0.91,1.08 -1.35,1.7 -0.26,0.37 -0.33,0.43 -0.57,0.91l-4.31 6.03c-2.78,3.29 -0.74,2.5 -9.4,2.5l-20.86 0c-2.8,0 -4.21,0.4 -1.62,-2.44l0.31 -0.28c0.87,-0.91 4.07,-5.37 4.92,-6.53l6.94 -9.57c2.5,-2.72 5.61,-7.55 7.8,-10.64l4.42 -5.93c1.28,-1.76 0.85,-1.48 -1.42,-1.46 -21.91,0.1 -43.91,0.09 -65.81,0 -2.2,-0.01 -1.8,-0.19 -2.94,1.16 -1.64,1.94 -4.94,7.04 -6.91,9.43 -0.19,0.23 -0.24,0.29 -0.42,0.56l-0.64 0.98c-0.78,1.12 -1.77,1.96 -2.53,3.09 -0.64,0.96 -1.19,1.56 -1.78,2.43 -1.11,1.62 -2.52,3.11 -3.46,4.79 -0.55,0.98 -1.04,1.59 -1.66,2.4 -1.83,2.37 -3.38,4.91 -5.34,7.11 -1.28,1.44 -6.16,8.49 -6.96,9.72l-0.85 1.24c-0.02,0.03 -0.05,0.06 -0.07,0.09l-5.18 6.79c-0.32,0.47 -0.52,0.78 -0.85,1.25 -0.04,0.06 -0.18,0.24 -0.2,0.28 -0.02,0.03 -0.05,0.07 -0.07,0.1l-4.07 5.46c-5.23,7.46 -6.59,7.12 -2.31,7.12l164.63 0c4.85,0 4.22,0.83 6.3,-2.01l5.17 -7.11c0.85,-0.92 1.16,-1.36 1.87,-2.33 1.17,-1.61 2.24,-3.07 3.49,-4.76l3.45 -4.8c2.14,-2.78 6.12,-8.12 7.8,-10.67 1.62,-2.45 3.71,-4.68 5.31,-7.11 0.31,-0.47 0.46,-0.86 0.78,-1.33 1.65,-2.43 3.54,-4.65 5.29,-6.98 0.91,-1.21 1.54,-2.48 2.51,-3.64 0.35,-0.42 0.59,-0.64 0.98,-1.12 0.37,-0.46 0.53,-0.74 0.89,-1.23 0.31,-0.42 0.59,-0.54 0.98,-1.09 0.5,-0.72 1.17,-1.62 1.7,-2.35 0.6,-0.82 1.12,-1.85 1.69,-2.54l2.63 -3.52c0.43,-0.54 0.74,-0.63 0.75,-1.34zm-536.72 72.2l113.09 0c0.05,0.94 -0.87,1.57 -1.33,2.22l-3.08 4.37c-1.11,1.35 -1.09,1.23 -2.6,1.22 -14.96,-0.13 -30.44,-0 -45.44,-0 -20.21,0 -40.43,0 -60.64,0l0 6.65 102.37 0c0,1.03 -0.81,1.57 -1.25,2.18l-2.87 3.93c-0.66,0.81 -0.83,1.5 -2.02,1.54 -4.46,0.15 -9.26,-0.01 -13.76,-0.01l-82.47 0 0 6.54c7.61,-0.04 91.39,-0.16 91.67,0.09 0.68,0.62 -1.6,2.85 -2.33,3.77l-2.66 3.82 -86.67 0.07 0 30.6 767 -0.03 0 -30.56 -113.27 -0.01c0.08,-1.59 3.56,-4.97 4.28,-6.52 0.5,-1.86 2.23,-1.34 5.66,-1.34l75.68 0c9.09,0 18.39,0.2 27.45,0 0.24,-0.97 0.19,-5.05 0.07,-6.15 -4.12,-0.19 -8.64,-0.02 -12.8,-0.02l-87.16 0c-1.31,0 -4.09,0.52 -2.74,-1.21 0.98,-1.25 4.97,-6.91 5.32,-6.99l72.93 -0.03c3.22,0 23.12,0.32 24.39,-0.13 0.24,-0.78 0.24,-5.01 -0.02,-5.77 -0.91,-0.36 -22.29,-0.14 -23.08,-0.14 -6.19,0 -68.69,0.24 -69.12,-0.14 -0.38,-0.37 -0.27,-0.55 -0.01,-0.95l4.74 -6.42c0.69,-0.89 1.17,-0.69 2.45,-0.69 24.08,0.14 48.49,0 72.61,0 2.43,0 10.86,0.31 12.61,-0.11l0 -101.91 -767 0 0 102.13zm294.5 -8.3c1.22,-1.7 2.61,-3.35 3.83,-5.05l3.69 -5.25c0.29,-0.47 0.57,-0.72 0.9,-1.18l6.71 -8.96c3.15,-4.09 4.71,-7.95 4.77,-13.06 0.04,-3.49 -0.1,-5.24 -0.93,-8.05 -0.72,-2.47 -0.34,-1.3 -1.22,-3.11 -0.51,-1.05 -0.94,-2 -1.56,-2.97 -1.46,-2.27 -4,-5.45 -6.1,-7.15l-3.58 -2.44c-0.03,-0.02 -0.07,-0.04 -0.1,-0.06l-4.55 -2.69c-1.28,-0.67 -5.37,-1.95 -6.69,-2.24 -6.13,-1.36 -9.34,-1.75 -16.07,-1.75l-133.41 0c-1.45,0 -2.91,0.01 -4.37,0 -2.27,-0.02 -1.99,0.15 -2.95,1.63l-16.91 23.04c-1.41,2 -2.23,2.84 -3.84,5.04 -3.4,4.64 -4.2,3.74 4.62,3.74l124.52 0c3.28,0 8.61,-0.36 7.3,3.48 -0.12,0.35 -0.18,0.55 -0.35,0.82l-7.71 11.21c-0.52,0.91 -6.8,8.81 -7.45,10.31 -0.58,1.34 -0.86,2.48 0.37,3.46 1.71,1.36 4.91,1.28 7.68,1.28l44.47 0c2.77,0 6.23,0.18 8.92,-0.05zm-194.46 44.67c5.45,0.23 11.37,0.02 16.87,0.02l101.88 0c1.76,0 8.31,-0.23 9.95,-0.55 0.66,-0.13 0.94,-0.32 1.69,-0.35 0.87,-0.04 1.25,0.04 2,-0.19 0.97,-0.29 2.87,-0.31 5.41,-1.05 1.14,-0.33 2.43,-0.35 3.45,-0.79 2.04,-0.87 1.19,-0.45 3.21,-0.96 1.39,-0.35 2.14,-0.5 3.44,-0.99 1.14,-0.43 1.83,-0.87 3.01,-1.2 1.02,-0.28 1.79,-0.88 2.85,-1.33 1.48,-0.62 4.47,-2.02 5.69,-2.88 0.83,-0.59 1.86,-0.94 2.69,-1.52 0.91,-0.63 1.64,-1.09 2.55,-1.66 5.74,-3.64 11.45,-8.8 16.07,-13.68 2.36,-2.49 4.65,-5.31 6.81,-8.09 1.27,-1.63 -2.16,-1.05 -4.79,-1.05l-76.33 0c-3.48,-0.01 -9.13,-0.29 -6.99,-4.76 0.92,-1.92 11.72,-15.38 14.38,-19.54 1.3,-2.04 2.75,-4.13 0.7,-5.62 -0.99,-0.72 -1.85,-0.64 -3.35,-0.81 -2.37,-0.28 -5.94,-0.07 -8.46,-0.07l-50.94 0c-1.81,0 -2.44,-0.34 -3.48,0.67 -0.77,0.74 -1.1,1.6 -1.75,2.43l-6.26 8.63c-0.3,0.39 -0.54,0.81 -0.87,1.24 -0.64,0.81 -1.01,1.64 -1.72,2.48 -0.67,0.79 -1.37,1.61 -1.9,2.5 -1.04,1.74 -4.94,6.23 -5.43,7.13 -0.66,1.22 -1.17,1.54 -1.84,2.53 -2.05,2.99 -5.37,7.05 -7.2,9.79l-2.67 3.63c-0.38,0.65 -0.53,0.66 -0.91,1.2 -1.65,2.36 -1.54,2.45 -3.6,4.98 -0.4,0.5 -0.42,0.79 -0.79,1.35 -0.31,0.48 -0.6,0.69 -0.92,1.17l-3.51 4.91c-0.14,0.2 -0.24,0.33 -0.42,0.53 -0.05,0.06 -0.09,0.1 -0.23,0.26l-3.04 4.08c-0.87,1.35 -2.41,3.02 -3.6,4.8l-1.31 1.91c-0.41,0.52 -0.3,0.12 -0.35,0.87zm406.84 -36.2c-0.55,0.43 -5.09,6.71 -5.57,7.37 -1.04,1.42 -1.02,0.89 -2.06,2.79 -0.65,1.21 -2.06,2.69 -2.84,5.24 -0.5,1.62 -1.03,3.85 -0.64,5.62 0.61,2.75 1.25,4.66 3.04,6.64 0.48,0.53 1.01,1.17 1.59,1.64 1.47,1.2 2.43,1.82 4.2,2.49 2.46,0.93 0.91,0.6 2.07,1.11 1.38,0.61 5.89,1.89 7.46,2.23 7.65,1.67 30.47,1.09 37.95,1.09l84.25 0c1.02,0 2.26,0.07 3.25,0.01 1.13,-0.07 1.26,-0.79 1.76,-1.52 0.48,-0.69 0.94,-1.12 1.41,-1.83l7.65 -10.29c0.28,-0.4 0.31,-0.67 0.59,-1.05l5.5 -7.44c1.07,-1.38 1.69,-1.97 2.81,-3.63l1.04 -1.4c0.59,-0.63 1.11,-1.06 1.67,-2.34l2.06 -2.81c3.41,-4.78 4.39,-4.1 -1.72,-4.1l-142.63 0c-1.75,0 -12.22,-0.32 -12.86,0.17zm6.49 -8.43c7.6,0.17 15.4,0.01 23.02,0.01l49 0c1.08,0 1.91,0.22 2.54,-0.44 0.42,-0.44 0.92,-1.22 1.23,-1.69 0.42,-0.64 0.79,-1 1.28,-1.61l4.89 -6.78c1.34,-2.07 2.32,-3.09 3.69,-4.87 0.42,-0.55 0.75,-1.22 1.18,-1.74 1.48,-1.8 1.39,-1.91 2.46,-3.37 0.49,-0.67 0.68,-1.13 1.17,-1.75 2.03,-2.57 4.55,-6.13 6.26,-8.13l2.05 -2.78c0.02,-0.03 0.04,-0.07 0.06,-0.1 0.12,-0.19 0.22,-0.32 0.34,-0.48l2.42 -3.41c0.85,-1.11 1.69,-2.14 2.44,-3.2l14.68 -20.11c0.42,-0.58 0.8,-1.12 1.25,-1.65 0.31,-0.36 0.37,-0.51 0.61,-0.85 1.21,-1.68 -0.74,-1.04 -5.21,-1.04l-66.3 0c-3.13,-0 -2.08,-0.16 -3.78,2.09 -0.43,0.56 -0.87,1.09 -1.27,1.63l-5.44 7.5c-0.33,0.45 -0.32,0.31 -0.67,0.77 -0.4,0.52 -0.67,1.17 -1.11,1.82 -0.46,0.66 -0.87,0.97 -1.31,1.57l-5 6.64c-0.43,0.59 -0.87,1.13 -1.26,1.65l-2.39 3.27c-0.89,1.18 -1.71,2.11 -2.41,3.42l-5.48 7.48c-0.2,0.33 -0.36,0.66 -0.55,0.91l-8.74 11.63c-0.81,1.14 -1.51,2.1 -2.39,3.27 -1.43,1.91 -2.89,3.31 -3.76,4.96 -0.42,0.79 -0.69,1.09 -1.18,1.76l-1.85 2.51c-0.44,0.52 -0.46,0.23 -0.46,1.11zm-228.19 44.63c22.6,0.08 46.11,0.16 68.66,0.01l1.32 -0.02c0.88,-1.28 5.33,-6.81 5.83,-7.72 0.31,-0.56 0.56,-0.86 0.86,-1.27l3.25 -4.52c0.59,-0.76 1.2,-1.23 1.72,-2.12 0.49,-0.85 1.07,-1.72 1.61,-2.49 2.05,-3 3.72,-5.02 5.83,-7.75 0.39,-0.5 0.09,-0.37 0.83,-1.28 0.96,-1.17 1.71,-2.52 2.52,-3.3l1.67 -2.2c0.25,-0.33 0.49,-0.77 0.76,-1.2 0.56,-0.89 1.53,-1.23 1.37,-2.54 -5.22,-0.26 -11.13,-0.02 -16.43,-0.02l-49.81 0c-5.19,0 -3.12,-0.46 -5.65,2.55l-22.76 31.1c-0.63,0.77 -1.54,1.72 -1.59,2.73zm102.04 -0l69.82 -0 5.8 -7.78c1.23,-1.54 0.28,-0.03 1.76,-2.26l5.04 -6.61c0.02,-0.02 0.06,-0.06 0.07,-0.07 0.02,-0.02 0.05,-0.06 0.07,-0.08 0.36,-0.43 0.36,-0.71 0.64,-1.15 0.5,-0.78 1.09,-1.44 1.67,-2.21l1.59 -2.3c1.22,-1.35 2.25,-3.03 3.38,-4.53 1.13,-1.5 2.19,-3.01 3.37,-4.55 0.56,-0.73 3.13,-3.78 3.15,-4.64 -1.34,-0.41 -29.07,-0.17 -32.92,-0.17 -11.11,0 -22.21,0 -33.31,0 -3.77,0 -3.77,-0.72 -5.77,2.39 -0.71,1.1 -0.73,0.69 -1.29,1.61l-0.42 0.73c-1.48,2.54 -6.7,9.06 -8.81,12.06l-4.48 5.86c-0.37,0.48 -0.37,0.85 -0.73,1.4 -1.16,1.72 -1.79,2.18 -3.48,4.78 -0.57,0.87 -1.03,1.65 -1.78,2.41l-2.67 3.69c-0.44,0.74 -0.66,0.46 -0.71,1.46z"/>
 </g>
</svg>
