<?xml version="1.0" encoding="UTF-8"?>
<!DOCTYPE svg PUBLIC "-//W3C//DTD SVG 1.1//EN" "http://www.w3.org/Graphics/SVG/1.1/DTD/svg11.dtd">
<!-- Creator: CorelDRAW 2019 (64-Bit) -->
<svg xmlns="http://www.w3.org/2000/svg" xml:space="preserve" width="0.8in" height="0.426094in" version="1.1" style="shape-rendering:geometricPrecision; text-rendering:geometricPrecision; image-rendering:optimizeQuality; fill-rule:evenodd; clip-rule:evenodd"
viewBox="0 0 173.64 92.49"
 xmlns:xlink="http://www.w3.org/1999/xlink">
 <defs>
  <style type="text/css">
   <![CDATA[
    .fil0 {fill:#FEFEFE}
   ]]>
  </style>
 </defs>
 <g id="Layer_x0020_1">
  <metadata id="CorelCorpID_0Corel-Layer"/>
  <path class="fil0" d="M137.97 21.1l4.11 -3.31c0.51,0.27 1.35,1.51 1.71,2.03 0.28,0.4 1.6,1.69 1.6,2.14 0,0.33 -0.7,0.63 -0.95,0.89 -0.25,0.26 -0.71,0.65 -1,0.84 -0.66,0.42 -1.36,1.29 -2.1,1.65 -0.39,-0.34 -1.4,-1.59 -1.76,-2.04 -0.17,-0.22 -0.17,-0.32 -0.37,-0.55 -0.18,-0.2 -0.29,-0.31 -0.47,-0.51 -0.31,-0.35 -0.52,-0.75 -0.77,-1.13zm-4.54 3.19l-3 -3.74c-0.43,-0.55 -0.48,-0.75 -1.1,-1.17 -0.25,0.17 -0.37,0.15 -0.62,0.36 -0.53,0.43 -0.55,0.37 -1.16,0.92 -0.27,0.25 -0.35,0.16 -0.62,0.42 -0.44,0.41 -2.17,1.42 -2.09,1.96 0.07,0.47 3.4,4.28 3.52,4.74 -0.53,0.79 -2.29,1.69 -2.1,2.29 0.05,0.16 2.53,3.17 2.98,3.7 2.19,2.72 5.47,6.51 7.42,9.2l1.56 1.87c0.4,0.45 0.83,1.18 1.53,1.9 0.31,0.32 0.77,0.93 0.99,1.34 -0.45,0.86 -1.75,2.13 -2.46,3.18 -0.22,0.33 -0.63,0.67 -0.88,1.02l-3.39 4.21c-1.12,1.31 -2.36,2.79 -3.38,4.16 -0.63,0.85 -2.24,2.66 -2.56,3.15 -0.25,0.38 -0.76,0.74 -0.76,1.14 0,0.24 2.93,2.63 3.31,2.88 0.82,-0.39 0.47,-0.46 0.99,-0.97 0.81,-0.82 1.91,-2.78 2.81,-3.26 1.07,0.72 2.24,1.77 3.28,2.6 0.3,0.24 0.95,0.62 0.95,1.08 0,0.22 -2,2.66 -2.32,3.02 -0.22,0.25 -0.75,0.69 -0.57,1.09 0.25,0.53 3.8,2.85 3.8,3.38 0,0.66 -3.07,3.62 -3.07,4.29 0,0.37 0.67,0.79 0.93,0.97 1.06,0.76 2.08,1.94 3.3,2.52 0.59,-0.4 2.15,-2.66 2.87,-3.39 0.24,-0.25 0.39,-0.73 0.81,-0.6 0.26,0.08 2.03,1.73 2.7,2.08 0.7,-0.47 2.71,-3.16 3.37,-3.99 1.27,-1.59 3.87,-4.61 4.97,-6.13 0.5,-0.7 1.17,-1.34 1.68,-2.06 0.51,-0.73 1.14,-1.32 1.67,-2.01 0.56,-0.74 1.09,-1.36 1.65,-2.1 0.52,-0.69 1.18,-1.31 1.67,-2.01 0.52,-0.75 1.12,-1.37 1.68,-2.06l4.96 -6.14c0.79,-0.96 4.91,-5.86 4.91,-6.31 0,-0.18 -6.93,-8.44 -7.66,-9.45 -1.17,-1.63 -2.6,-3.14 -3.81,-4.77l-3.87 -4.71c-0.66,-0.7 -1.23,-1.6 -1.9,-2.33 -0.66,-0.72 -1.27,-1.6 -1.93,-2.37 -0.3,-0.35 -0.65,-0.83 -0.95,-1.2l-2.86 -3.57c-0.16,-0.2 -0.35,-0.33 -0.51,-0.53 -0.21,-0.29 -0.2,-0.35 -0.47,-0.63 -0.16,-0.17 -0.29,-0.41 -0.44,-0.6 -0.17,-0.23 -0.35,-0.34 -0.53,-0.58 -0.62,-0.82 -1.13,-1.73 -1.78,-2.51 -0.41,-0.48 -0.72,-0.8 -1.31,-0.23 -0.58,0.56 -3.16,2.72 -3.61,2.82 -0.05,-0.17 -3.51,-4.48 -3.74,-4.48 -0.48,0 -2.14,1.37 -2.64,1.78 -0.28,0.23 -0.64,0.42 -0.87,0.66 -0.62,0.63 -1.9,0.75 -0.16,2.4l2.64 3.32c0.26,0.37 -0.22,0.57 -0.49,0.82 -0.91,0.83 -2.3,1.94 -3.33,2.62z"/>
  <path class="fil0" d="M8.87 34.96c0,0.81 0.72,0.65 1.42,0.72 0.74,0.08 1.31,0.07 2.06,0.15 1.24,0.13 2.92,0.02 3.87,0.48 -0.17,0.75 -0.51,1.94 -0.61,2.64 -0.18,1.34 -0.06,0.44 -0.28,1.32 -0.06,0.25 -0.06,0.42 -0.11,0.68 -0.06,0.27 -0.15,0.33 -0.23,0.63 -0.13,0.55 -0.05,0.8 -0.24,1.35 -0.13,0.37 -0.21,0.88 -0.35,1.31 -0.19,0.58 -0.49,2.5 -0.58,2.67 -0.29,0.62 -0.37,1.87 -0.65,2.6 -0.27,0.73 -0.3,1.88 -0.62,2.63 -0.24,0.56 -0.52,2.53 -0.57,2.68 -0.34,0.86 -0.52,2.16 -0.66,2.59 -0.12,0.4 -0.2,0.89 -0.34,1.25 -0.19,0.46 -0.14,0.9 -0.3,1.35 -0.26,0.75 -0.54,2.33 -0.65,2.6 -0.62,1.67 -0.63,3.55 -1.74,4.76 -0.6,0.65 -2.56,1.3 -3.4,1.44 -0.54,0.09 -0.81,0.29 -1.31,0.34 -0.61,0.07 -0.56,0.2 -1.33,0.26 -0.65,0.05 -0.84,0.13 -1.36,0.29 -0.52,0.16 -0.6,0.31 -0.78,0.82 -0.15,0.42 -0.21,1.04 0.1,1.27 0.3,0.14 5.57,0.08 6.36,-0.02 1.82,-0.22 4.43,-0.23 6.46,-0.23 1.11,0 2.1,-0.11 3.25,-0.06 1.02,0.04 2.13,0.12 3.19,0.12 2.38,-0 4.45,0.25 6.87,0.25 0.8,0 0.8,-0.78 0.99,-1.34 0.12,-0.36 0.27,-0.46 -0.05,-0.76 -0.38,-0.37 -1.47,-0.34 -1.99,-0.35 -0.49,-0.01 -0.49,-0.14 -0.95,-0.21 -0.36,-0.06 -0.71,-0.06 -1.06,-0.11 -0.37,-0.05 -0.61,-0.19 -1,-0.23 -0.83,-0.09 -1.3,-0.17 -2.02,-0.31 -0.96,-0.18 -0.99,-0.24 -1.73,-0.66 -0.41,-0.23 -1.02,-0.75 -1.13,-1.2 -0.11,-0.41 -0.32,-1.64 -0.32,-2.07 0,-0.32 0.33,-2.82 0.4,-3.03 0.38,-1.04 0.65,-2.38 0.89,-3.46 0.06,-0.26 0.16,-0.37 0.22,-0.63 0.07,-0.29 0.04,-0.48 0.09,-0.76 0.05,-0.24 0.48,-1.28 0.59,-2.04 0.03,-0.18 0.05,-0.6 0.1,-0.76 0.1,-0.32 0.15,-0.19 0.23,-0.69 0.07,-0.43 0.12,-0.35 0.22,-0.64 0.15,-0.44 0.31,-1.61 0.43,-2.15 0.08,-0.38 0.15,-0.27 0.25,-0.61 0.2,-0.67 0.29,-1.45 0.52,-2.11 0.16,-0.45 0.15,-1.07 0.29,-1.43 0.36,-0.91 0.78,-3.95 0.95,-4.32 0.3,-0.61 0.42,-2.03 0.57,-2.86 0.05,-0.28 0.14,-0.31 0.21,-0.65 0.14,-0.71 0.25,-1.53 0.45,-2.19 0.09,-0.29 0.16,-0.3 0.22,-0.63 0.06,-0.31 0.09,-0.43 0.33,-0.53 0.26,-0.11 1.28,-0.13 1.62,-0.16 0.94,-0.1 2.41,-0.2 3.3,-0.2 2.3,0.01 4.74,-0.07 6.93,-0.06 1.46,0.01 2.02,0.05 2.4,-1.09 0.16,-0.48 0.67,-2.29 0.67,-2.83 0,-0.9 -2.01,-0.52 -2.97,-0.65 -0.98,-0.13 -2.71,-0.03 -3.77,-0.03 -0.94,0 -2.78,-0 -3.64,-0.1 -1.11,-0.13 -2.74,0.16 -3.54,-0.26 0,-0.02 0.41,-1.81 0.45,-1.94 0.11,-0.35 0.11,-0.71 0.21,-1.02 0.14,-0.44 0.2,-0.33 0.27,-0.95 0.06,-0.54 0.77,-3.13 0.96,-3.94 0.08,-0.36 0.19,-0.46 0.27,-0.9 0.17,-0.94 0.49,-1.99 0.75,-2.93 0.11,-0.41 0.16,-0.5 0.23,-1 0.08,-0.55 0.21,-0.37 0.32,-0.91l0.59 -1.87c0.71,-2.68 1.83,-4.26 3.72,-6.03 1.39,-1.32 4.26,-2.86 6.95,-2.86 2.03,0 3.65,0.88 5.07,1.55l2.33 0.98c1.41,0.59 2.39,0.66 3.88,0.66 0.68,0 1.28,-0.32 1.73,-0.54 1.53,-0.75 2.81,-2.13 2.81,-4.12 0,-0.91 -0.28,-1.56 -0.78,-1.98 -0.21,-0.18 -0.15,-0.11 -0.35,-0.32l-1.37 -0.77c-2.39,-0.91 -5.78,-1.01 -8.44,-0.69 -0.81,0.1 -1.27,0.32 -1.93,0.33 -0.78,0.02 -1.21,0.19 -1.93,0.34 -0.47,0.1 -0.25,0.2 -0.79,0.31 -0.51,0.1 -0.4,0.2 -0.88,0.29 -0.83,0.16 -3.79,1.68 -4.52,2.28l-1.35 0.98c-1.76,1.32 -3.36,2.68 -4.86,4.21 -0.2,0.21 -0.25,0.38 -0.5,0.6 -0.13,0.12 -0.43,0.46 -0.56,0.61 -0.36,0.42 -0.69,0.79 -1.05,1.22 -0.87,1.02 -1.69,2.13 -2.41,3.29 -0.34,0.55 -1.11,1.7 -1.29,2.15 -0.11,0.27 -0.59,1.25 -0.75,1.52 -0.26,0.46 -0.39,1.11 -0.67,1.6 -0.17,0.3 -0.14,0.57 -0.26,0.84 -0.11,0.22 -0.26,0.59 -0.37,0.8 -0.26,0.49 -0.36,1.18 -0.57,1.69 -0.09,0.21 -0.1,0.1 -0.19,0.36l-0.42 1.29c-0.39,1.06 -0.91,2.27 -1.18,3.42 -0.1,0.42 -0.55,1.21 -0.84,1.43 -0.48,0.37 -0.77,0.65 -1.32,0.95 -0.71,0.39 -2.87,1.27 -3.11,1.42 -0.36,0.23 -1.13,0.4 -1.59,0.67 -0.85,0.51 -2.41,0.78 -2.41,2.18z"/>
  <path class="fil0" d="M47.92 41.34l-1.9 -0.08c0.04,-0.42 0.78,-1.76 0.97,-2.14 0.33,-0.63 0.89,-1.29 1.31,-1.82 0.72,-0.91 2.16,-2.37 3.09,-3.1 0.94,-0.74 2.7,-1.96 3.84,-2.36 0.31,-0.11 0.23,-0.16 0.48,-0.26 0.17,-0.07 0.44,-0.1 0.63,-0.17 2.4,-0.87 3.63,-0.8 6.12,-0.8 0.49,0 1.9,0.42 2.32,0.56 0.8,0.27 1.3,0.54 1.9,1.05 0.53,0.45 1.01,0.92 1.31,1.64 0.14,0.33 0.33,0.7 0.38,1.09 0.06,0.43 0.29,0.88 0.29,1.19 0,1.88 0.2,2.37 -1.12,3.67 -0.57,0.56 -1.33,0.61 -2.32,0.68 -0.85,0.06 -2.04,0.14 -2.87,0.13 -1.03,-0.01 -1.68,0.23 -2.82,0.24 -2.02,0.02 -3.68,0.31 -5.7,0.31 -2.02,0 -3.91,0.18 -5.89,0.18zm-14.1 16.31c0,0.95 0.12,3.43 0.39,4.09 0.17,0.42 0.11,0.98 0.32,1.52 0.19,0.5 0.36,0.88 0.5,1.4 0.19,0.72 0.78,1.42 0.92,1.84 0.23,0.66 1.58,2.17 2.06,2.66 2.62,2.73 6.55,4.06 11.57,4.06 2.67,0 4.2,-0.17 6.27,-0.72 0.34,-0.09 0.26,-0.15 0.62,-0.23 0.85,-0.2 0.48,-0.18 1.33,-0.39l3.11 -1.31c0.81,-0.34 1.53,-0.8 2.31,-1.18 0.4,-0.19 0.78,-0.47 1.09,-0.63 1.57,-0.79 3.82,-2.53 5.16,-3.61 0.33,-0.27 0.57,-0.57 0.89,-0.82 0.39,-0.32 0.4,-0.67 0.63,-1.15 0.17,-0.37 0.1,-1.15 0.16,-1.57 0.08,-0.62 -0.11,-1.02 -0.69,-0.63 -0.22,0.14 -0.88,0.56 -1.02,0.7 -0.3,0.29 -0.73,0.5 -1.05,0.73 -0.88,0.65 -2.19,1.53 -3.21,2 -0.31,0.14 -1.32,0.77 -1.73,0.9 -0.39,0.13 -0.25,0.16 -0.56,0.3 -0.33,0.15 -0.97,0.35 -1.26,0.52 -0.97,0.56 -4.27,1.13 -5.86,1.13 -2.44,0 -1.91,-0.17 -3.91,-0.38 -0.52,-0.05 -2.05,-0.57 -2.46,-0.78 -0.26,-0.13 -0.35,-0.09 -0.6,-0.2 -1.15,-0.51 -2.83,-1.9 -3.65,-2.85l-0.97 -1.49c-0.16,-0.28 -0.38,-0.78 -0.5,-1.1 -0.11,-0.28 -0.43,-0.92 -0.5,-1.16 -0.18,-0.63 -0.31,-2.22 -0.53,-2.72 -0.26,-0.6 -0.32,-2.86 -0.32,-3.73 0,-2.85 0.55,-3.02 0.76,-4.4 0.16,-1.08 0.73,-3 1.22,-3.93 0.35,-0.67 1.05,-0.56 2.01,-0.57 0.76,-0.01 1.64,-0.06 2.51,-0.06 1.72,0 3.43,0 5.15,0 6.79,0 13.95,-0.18 20.54,-0.18 0.76,0 0.73,-0.47 0.94,-1.39 0.28,-1.27 0.21,-3.81 -0.15,-4.98 -0.06,-0.2 -0.07,-0.46 -0.11,-0.68 -0.07,-0.37 -0.12,-0.3 -0.22,-0.58 -0.08,-0.21 -0.08,-0.46 -0.15,-0.65 -0.67,-1.96 -1.49,-2.85 -2.79,-4.32 -0.48,-0.54 -2.06,-1.77 -2.69,-2.03 -0.2,-0.08 -0.94,-0.4 -1.1,-0.5 -0.77,-0.48 -4.04,-0.99 -5.38,-0.99 -3.28,0 -4.4,0.24 -7.35,0.87 -0.31,0.07 -0.35,0.17 -0.6,0.26 -0.25,0.09 -0.52,0.07 -0.76,0.16 -0.26,0.1 -0.4,0.14 -0.68,0.24l-1.23 0.6c-0.41,0.12 -0.32,0.1 -0.64,0.28 -0.37,0.21 -0.84,0.48 -1.18,0.66l-3.32 2.07c-0.37,0.26 -0.69,0.52 -1.06,0.78 -1.41,1 -2.55,2.33 -3.67,3.63 -1.57,1.82 -2.49,3.42 -3.74,5.28 -0.6,0.88 -0.85,1.56 -1.33,2.35 -0.32,0.54 -1.6,3.59 -1.94,4.38 -0.11,0.25 -0.1,0.45 -0.21,0.71 -0.14,0.31 -0.14,0.32 -0.19,0.73 -0.05,0.42 -0.14,0.38 -0.25,0.67 -0.36,1.01 -0.91,5.12 -0.91,6.38z"/>
  <path class="fil0" d="M78.57 41.71c0,0.45 0.59,0.92 0.86,0.92 0.34,0 1.24,-0.73 1.47,-0.92 0.39,-0.31 2.07,-2.52 3.54,-3.76 0.42,-0.36 0.89,-0.76 1.31,-1.08 1.78,-1.33 2.69,-1.78 4.9,-2.4 1.33,-0.37 2.75,-0.31 4.33,-0.51 1.34,-0.17 3.17,-0.22 4.62,-0.22 0.8,0 1.59,-0 2.39,0 0.8,0 1.53,-0.13 2.38,-0.05 1.43,0.12 3.3,0.12 4.67,0.12 0.05,0.58 0.07,0.26 -0.33,0.72 -0.51,0.57 -1.22,1.13 -1.82,1.8 -1.31,1.45 -3.35,3.3 -4.84,4.79 -0.41,0.41 -0.84,0.73 -1.26,1.13 -0.38,0.37 -0.97,0.81 -1.28,1.17l-5.05 4.58c-0.79,0.79 -1.79,1.47 -2.57,2.27l-11.22 10.49c-0.39,0.37 -0.86,0.89 -1.25,1.21l-2.5 2.28c-0.43,0.41 -0.83,0.76 -1.25,1.15 -0.45,0.42 -0.86,0.71 -1.28,1.17 -0.28,0.3 -0.96,0.84 -1.29,1.1 -0.46,0.38 -0.8,0.79 -1.27,1.18l-1.27 1.12c-0.42,0.41 -0.95,0.82 -0.95,1.56 0,0.82 1.99,0.61 2.88,0.61l10.6 0.06c4.74,0 9.48,0 14.22,0l8.77 0.05c0.6,-0 0.98,0.07 1.34,-0.35 0.43,-0.5 0.91,-1.64 1.18,-2.38 0.1,-0.28 0.43,-0.79 0.57,-1.21 0.18,-0.51 0.27,-0.86 0.45,-1.33 0.13,-0.35 0.42,-0.9 0.52,-1.25 0.09,-0.28 0.36,-1.13 0.46,-1.32 0.19,-0.35 0.43,-0.8 0.51,-1.27 0.04,-0.24 0.42,-0.95 0.55,-1.23 0.12,-0.24 0.1,-0.42 0.19,-0.67 0.13,-0.35 0.77,-1.75 0.77,-1.92 0,-0.46 -0.52,-0.74 -1.04,-0.74 -1.41,0 -1.25,0.56 -1.78,1.4 -0.9,1.43 -1.6,2.49 -2.67,3.83 -0.44,0.55 -1.1,1.13 -1.59,1.66 -0.74,0.79 -2.75,2.26 -3.81,2.68 -0.32,0.12 -0.27,0.15 -0.52,0.28 -0.23,0.12 -0.37,0.07 -0.64,0.16 -0.19,0.06 -0.32,0.17 -0.58,0.22 -1.63,0.34 -1.45,0.5 -3.61,0.5l-10.97 0c-0.84,0 -1.59,-0.05 -2.34,-0.12 -0.66,-0.05 -2.37,0.25 -1.57,-0.42 0.93,-0.78 1.72,-1.6 2.6,-2.43l7.77 -7.25c0.89,-0.82 1.7,-1.62 2.59,-2.44 1.35,-1.26 2.57,-2.34 3.9,-3.64 0.41,-0.4 0.9,-0.79 1.31,-1.21 0.78,-0.8 1.73,-1.63 2.57,-2.4 0.45,-0.41 0.85,-0.79 1.3,-1.21 0.23,-0.22 0.39,-0.39 0.61,-0.62 0.21,-0.22 0.47,-0.39 0.68,-0.61l3.22 -3.04c0.31,-0.23 0.42,-0.47 0.64,-0.64l1.32 -1.19c1.12,-1.16 1.59,-1.47 2.6,-2.43 1.06,-1.01 2.88,-3.03 3.74,-3.8l2.33 -2.7c0.16,-0.24 0.35,-0.52 0.4,-0.83 0.13,-0.8 0.24,-0.49 0.24,-1.41 0,-0.57 -4.3,-0.59 -5.15,-0.55l-14.71 0.62c-1.93,0.04 -8.65,0.06 -9.79,-0.7 -0.88,-0.58 -0.66,-1.27 -0.22,-2.21 0.12,-0.25 0.06,-0.39 0.16,-0.64 0.91,-2.28 1.26,-2.16 -1.18,-2.16 -0.51,0 -1.16,1.41 -1.43,1.82 -1.26,1.87 -2.48,4.26 -3.65,6.22l-1.7 3.2c-0.03,0.07 -0.35,0.5 -0.62,1.03l-2.47 4.16z"/>
  <path class="fil0" d="M131.29 76.23l0.18 0c0.21,0 1.65,-1.91 1.85,-2.2 0.28,-0.41 1.77,-1.97 1.77,-2.34 0,-0.23 -3.98,-3.5 -4.23,-3.5 -0.37,0 -1.58,1.75 -1.88,2.1l-1.3 1.71c-0.13,0.18 -0.41,0.37 -0.51,0.54 -0.31,0.55 0.3,0.79 0.64,1.09l3.48 2.59z"/>
  <path class="fil0" d="M136.07 88.19c0.47,0 0.56,-0.44 0.84,-0.82 0.26,-0.36 2.16,-2.54 2.16,-2.68 0,-0.45 -1.38,-1.35 -1.74,-1.63 -0.45,-0.34 -1.01,-0.78 -1.4,-1.18 -0.33,-0.35 -0.26,-0.14 -0.54,-0.32 -0.31,0.21 -2.89,3.26 -2.91,3.64 -0.02,0.39 0.44,0.62 0.72,0.88 0.63,0.57 1.47,1.08 1.85,1.46 0.19,0.19 0.69,0.65 1.01,0.65z"/>
  <path class="fil0" d="M130.49 10.62l2.9 3.65c0.27,0.18 3.38,-2.45 3.84,-2.98 -0.36,-0.76 -0.94,-1.28 -1.45,-1.92 -0.27,-0.34 -0.53,-0.58 -0.79,-0.93 -0.17,-0.24 -0.55,-0.83 -0.89,-0.83 -0.11,0 -3.44,2.74 -3.62,3z"/>
  <path class="fil0" d="M128.9 17.67c0,0.22 2.43,3.13 2.57,3.13 0.5,0 0.81,-0.52 1.11,-0.73 0.34,-0.23 1.81,-1.37 2.03,-1.66 0.28,-0.38 -0.11,-0.73 -0.26,-0.92 -0.12,-0.15 -0.01,-0.16 -0.3,-0.19 -0.01,-0.41 -1.82,-2.33 -1.96,-2.33l-0.12 0c-0.02,0 -3.07,2.4 -3.07,2.7z"/>
  <path class="fil0" d="M130.86 78.26c0,0.46 1.81,1.63 2.32,2.09 0.26,0.23 0.55,0.51 0.99,0.55 0.49,-0.73 2.39,-2.79 2.39,-3.19 0,-0.37 -1.19,-1.19 -1.47,-1.41 -0.54,-0.42 -1.08,-0.9 -1.59,-1.35 -0.52,0.35 -0.99,1.06 -1.41,1.53 -0.23,0.26 -1.23,1.42 -1.23,1.78z"/>
  <path class="fil0" d="M124.73 78.56c0,0.44 1.01,1.12 1.33,1.36 1.97,1.53 1.53,1.39 2.25,0.44l1.53 -1.84c0.23,-0.3 0.09,-0.24 0.22,-0.45 -0.35,-0.52 -1.84,-1.47 -2.11,-1.75 -0.16,-0.17 -0.48,-0.58 -0.71,-0.58 -0.35,0 -1.14,1.02 -1.33,1.31 -0.16,0.24 -1.18,1.36 -1.18,1.51z"/>
  <path class="fil0" d="M122.83 17.24c0,0.14 2.05,2.69 2.27,2.88 0.61,-0.05 1.1,-0.72 1.61,-1.03 0.46,-0.28 1.34,-0.92 1.34,-1.48 0,-0.29 -0.29,-0.6 -0.46,-0.77 -0.23,-0.24 -0.42,-0.41 -0.6,-0.69 -0.13,-0.2 -0.97,-1.3 -1.28,-1.3 -0.27,0 -1.23,0.92 -1.51,1.13 -0.27,0.21 -1.38,0.95 -1.38,1.26z"/>
  <path class="fil0" d="M124.17 13.62c0.39,0 1.26,-0.77 1.57,-1.01 0.29,-0.23 0.42,-0.34 0.73,-0.55 0.46,-0.31 0.58,-0.46 0.58,-0.89 0,-0.19 -2.06,-2.64 -2.21,-2.64 -0.39,0 -0.51,0.32 -0.73,0.49 -0.25,0.19 -0.47,0.36 -0.72,0.56 -1.84,1.48 -1.6,1.04 -0.32,2.62 0.12,0.15 1.03,1.41 1.1,1.41z"/>
  <path class="fil0" d="M123.99 85c0,0.48 2.63,2.34 2.82,2.39 0.27,-0.25 0.84,-1.02 1.09,-1.37 0.39,-0.54 1.06,-1 1.06,-1.58 0,-0.15 -2.57,-2.21 -2.57,-2.21 -0.48,0 -0.8,0.63 -1.36,1.28 -0.2,0.24 -1.03,1.18 -1.03,1.48z"/>
  <path class="fil0" d="M120.86 25.21c0,0.34 1.97,2.73 2.21,2.74 0.22,0.01 1.18,-0.78 1.42,-1.01 0.31,-0.29 1.26,-0.83 1.32,-1.27 0.04,-0.37 -0.81,-1.21 -1.02,-1.45 -1.39,-1.62 -0.65,-1.75 -2.64,-0.3 -0.23,0.17 -0.43,0.4 -0.69,0.6 -0.24,0.19 -0.6,0.32 -0.6,0.69z"/>
  <path class="fil0" d="M127.73 70.29c0,-0.4 -0.82,-0.91 -1.31,-1.33 -1.9,-1.63 -1.36,-1.09 -2.66,0.25 -0.19,0.2 -1.03,1.2 -1.03,1.47 -0.01,0.4 0.3,0.47 0.54,0.64 0.29,0.2 1.85,1.6 2.15,1.65 0.36,0.06 0.47,-0.31 0.63,-0.54 0.22,-0.32 1.67,-2.01 1.67,-2.13z"/>
  <path class="fil0" d="M128.77 90.09c0,0.32 2.39,2.21 2.82,2.21 0.06,0 0.99,-1.19 1.09,-1.36 0.31,-0.49 0.93,-0.81 0.99,-1.52l-2.04 -1.58c-0.19,-0.2 -0.33,-0.55 -0.71,-0.48 -0.23,0.04 -0.47,0.38 -0.6,0.61 -0.28,0.5 -1.56,1.57 -1.56,2.12z"/>
  <path class="fil0" d="M126.87 5.84c0,0.2 0.88,1.21 1.06,1.39 0.26,0.28 0.8,1.24 1.19,1.22 0.35,-0.02 2.66,-1.84 2.66,-2.25 0,-0.18 -1.95,-2.58 -2.14,-2.58l-0.25 0c-0.07,0 -1.16,0.9 -1.3,1.03 -0.27,0.23 -1.21,0.83 -1.21,1.18z"/>
  <path class="fil0" d="M136.99 90.09c0,0.38 0.52,0.59 1.03,1.05 0.19,0.17 1.02,0.83 1.23,0.84 0.46,0.02 0.84,-0.71 1.05,-1.02 0.18,-0.26 0.89,-0.98 0.88,-1.23 -0.02,-0.44 -0.77,-0.67 -1.05,-1.02 -0.27,-0.33 -0.34,-0.24 -0.58,-0.46 -0.22,-0.19 -0.22,-0.42 -0.61,-0.42 -0.39,0 -0.75,0.74 -1.04,1.02 -0.16,0.16 -0.92,1.02 -0.92,1.23z"/>
  <path class="fil0" d="M140.3 84.64c0,0.26 0.88,0.82 1.1,0.99 0.29,0.22 0.84,0.85 1.29,0.85 0.02,0 1.72,-2.05 1.72,-2.15 0,-0.58 -0.06,-0.48 -0.46,-0.71l-1.57 -1.38c-0.51,0 -0.93,0.68 -1.19,1.01 -0.26,0.33 -0.89,0.9 -0.89,1.38z"/>
  <path class="fil0" d="M138.34 11.29c0.31,0.44 1.65,2.06 1.72,2.33 0.6,0 1.03,-0.51 1.36,-0.78 1.42,-1.17 1.52,-0.87 0.32,-2.37 -0.2,-0.25 -0.74,-1.01 -1.07,-1.01 -0.3,0 -2.15,1.58 -2.33,1.84z"/>
  <path class="fil0" d="M135.15 5.84c0,0.15 0.73,0.99 0.87,1.15 0.23,0.26 0.66,1.05 1.01,1.02 0.33,-0.02 2.1,-1.53 2.35,-1.81 -0.35,-0.67 -0.57,-0.77 -0.96,-1.31 -0.46,-0.64 -0.49,-0.71 -1.19,-1.08 -0.35,0.52 -2.08,1.42 -2.08,2.02z"/>
  <path class="fil0" d="M121.54 90.71c0,0.19 2.01,1.78 2.02,1.78 0.66,0 0.73,-0.55 1.09,-0.94 1.22,-1.31 1.24,-1.26 -0.05,-2.19 -1.18,-0.85 -1.12,-1.49 -2.23,0.15 -0.18,0.26 -0.83,0.79 -0.83,1.19z"/>
  <path class="fil0" d="M122.58 85.62c0,-0.12 -1.98,-1.78 -2.15,-1.78 -0.25,0 -1.26,1.3 -1.45,1.55 -0.69,0.92 -0.35,0.92 1.44,2.32 0.43,0.34 0.67,0.09 0.9,-0.28 0.27,-0.42 1.25,-1.37 1.25,-1.82z"/>
  <path class="fil0" d="M121.42 7.37c0.3,0 2.15,-1.28 2.15,-1.78 0,-0.51 -0.84,-1.37 -1.23,-1.83 -0.67,-0.79 -1.03,0.03 -1.7,0.49 -1.28,0.89 -1.07,0.97 -0.59,1.55 0.22,0.27 1.1,1.57 1.38,1.57z"/>
  <path class="fil0" d="M116.76 9.7c0,0.7 1.59,2.27 1.72,2.27 0.36,0 2.21,-1.52 2.21,-1.66 0,-0.6 -0.45,-0.83 -0.73,-1.23 -0.18,-0.25 -0.67,-0.91 -0.98,-1 -0.3,-0.09 -0.92,0.45 -1.2,0.66 -0.15,0.11 -1.01,0.84 -1.01,0.95z"/>
  <path class="fil0" d="M122.58 15.03l0 -0.25c0,-0.35 -1.43,-2.01 -1.79,-2.03 -0.17,-0.01 -2.07,1.47 -2.1,1.73 -0.03,0.31 0.52,0.93 0.74,1.13 0.28,0.25 0.58,0.95 0.92,1.03 0.43,0.09 0.92,-0.45 1.21,-0.67 0.19,-0.15 1.03,-0.73 1.03,-0.93z"/>
  <path class="fil0" d="M120.62 81.26c0,0.52 1.92,1.84 2.02,1.84l0.25 0c0.07,0 1.59,-1.7 1.59,-2.21 0,-0.24 -1.84,-1.69 -2.09,-1.7 -0.39,-0 -0.61,0.57 -0.94,0.93 -0.17,0.18 -0.83,0.9 -0.83,1.14z"/>
  <path class="fil0" d="M119.21 20.74c0,0.12 1.3,1.71 1.47,1.96 0.76,-0.18 0.71,-0.25 1.22,-0.68 0.96,-0.81 1.42,-0.81 0.23,-2.06 -1,-1.05 -0.49,-1.4 -2.01,-0.15 -0.23,0.19 -0.91,0.58 -0.91,0.93z"/>
  <path class="fil0" d="M123.32 76.72l1.53 -1.86c-0.06,-0.18 -1.61,-1.48 -1.87,-1.72 -0.52,0.09 -0.72,0.45 -1.05,0.83 -0.17,0.2 -0.78,0.94 -0.79,1.16 -0.01,0.21 0.26,0.43 0.4,0.54 0.22,0.18 0.29,0.26 0.53,0.45 0.26,0.2 0.84,0.83 1.25,0.59z"/>
  <path class="fil0" d="M126.75 13.44c0,0.34 0.37,0.84 0.57,1.03 0.76,0.73 0.44,1.35 1.93,0.18 0.29,-0.22 0.69,-0.45 0.69,-0.9 0,-0.21 -1.13,-1.56 -1.45,-1.61 -0.23,-0.04 -1.74,1.24 -1.74,1.31z"/>
  <path class="fil0" d="M119.95 78.63c0,-0.52 -0.1,-0.44 -0.79,-0.99 -0.26,-0.21 -0.5,-0.61 -0.93,-0.61 -0.28,0 -0.94,0.95 -1.16,1.17 -0.62,0.64 -0.08,0.92 0.44,1.32 0.35,0.27 0.92,1.01 1.43,0.49 0.07,-0.07 0.36,-0.57 0.46,-0.71 0.11,-0.16 0.54,-0.55 0.54,-0.69z"/>
  <path class="fil0" d="M128.71 82.18l0 0.25c0,0.13 1.19,1.29 1.72,1.29 0.36,0 0.58,-0.47 0.75,-0.72 0.28,-0.42 0.6,-0.45 0.6,-1.05 0,-0.22 -1.23,-1.11 -1.47,-1.47 -0.68,0.33 -0.44,0.18 -0.91,0.74 -0.18,0.21 -0.68,0.67 -0.68,0.97z"/>
  <path class="fil0" d="M114.92 17c0,0.48 1.09,1.67 1.35,1.9 1.33,-0.64 0.87,-0.67 1.49,-1.03 0.7,-0.4 0.21,-0.89 -0.28,-1.4 -0.27,-0.28 -0.43,-0.73 -0.8,-0.78 -0.29,-0.04 -1.75,1.18 -1.75,1.31z"/>
  <path class="fil0" d="M112.96 14.48c0.18,0 1.66,-0.92 1.66,-1.41 0,-0.45 -0.33,-0.71 -0.57,-0.96 -0.33,-0.34 -0.44,-0.76 -0.9,-0.76 -0.3,0 -1.62,1.19 -1.62,1.47 0,0.18 1.07,1.66 1.44,1.66z"/>
  <path class="fil0" d="M113.45 83.04c0,0.44 0.5,0.68 1.13,1.2 0.79,0.65 0.8,0.13 1.29,-0.43 0.33,-0.38 0.97,-0.9 0.46,-1.38 -0.09,-0.09 -1.31,-1.04 -1.35,-1.04l-0.25 0c-0.13,0 -1.29,1.29 -1.29,1.66z"/>
  <path class="fil0" d="M107.81 9.64l0 0.25c0,0.01 0.69,0.91 0.76,0.96 0.45,0.35 0.83,-0.15 1.14,-0.36 0.39,-0.26 0.71,-0.58 0.27,-1.06 -0.28,-0.3 -0.63,-0.84 -1,-0.84 -0.14,0 -1.16,0.91 -1.16,1.04z"/>
  <path class="fil0" d="M114.43 88.25c0,0.61 1.03,1.16 1.23,1.16 0.39,0 0.94,-0.92 1.1,-1.23 -0.15,-0.29 -0.79,-1.17 -1.35,-1.17 -0.18,0 -0.98,0.96 -0.98,1.23z"/>
  <path class="fil0" d="M109.71 86.11c0,0.36 0.76,1.1 1.29,1.1 0.32,0 1.04,-0.83 1.04,-1.29 0,-0.22 -0.97,-0.98 -1.16,-1.1 -0.35,0.24 -0.41,0.17 -0.69,0.54 -0.15,0.2 -0.47,0.53 -0.47,0.75z"/>
  <path class="fil0" d="M114.86 7.74c-0.1,-0.11 -0.56,-1.15 -1.07,-1.26 -0.29,-0.06 -0.58,0.27 -0.72,0.39 -0.21,0.17 -0.55,0.34 -0.58,0.62 -0.02,0.29 0.26,0.49 0.42,0.72 0.14,0.21 0.33,0.53 0.59,0.54 0.5,0.02 1.13,-0.69 1.36,-1.02z"/>
 </g>
</svg>
