<?xml version="1.0" encoding="UTF-8"?>
<!DOCTYPE svg PUBLIC "-//W3C//DTD SVG 1.1//EN" "http://www.w3.org/Graphics/SVG/1.1/DTD/svg11.dtd">
<!-- Creator: CorelDRAW 2019 (64-Bit) -->
<svg xmlns="http://www.w3.org/2000/svg" xml:space="preserve" width="0.766669in" height="0.28137in" version="1.1" style="shape-rendering:geometricPrecision; text-rendering:geometricPrecision; image-rendering:optimizeQuality; fill-rule:evenodd; clip-rule:evenodd"
viewBox="0 0 65.43 24.01"
 xmlns:xlink="http://www.w3.org/1999/xlink">
 <defs>
  <style type="text/css">
   <![CDATA[
    .fil0 {fill:#FEFEFE;fill-rule:nonzero}
   ]]>
  </style>
 </defs>
 <g id="Layer_x0020_1">
  <metadata id="CorelCorpID_0Corel-Layer"/>
  <path class="fil0" d="M5.1 0l3.21 0 -1.58 5.98 2.92 0 1.56 -5.98 3.21 0 -4.25 16.26 -3.21 0 2.1 -8.05 -2.92 0 -2.07 8.05 -3.23 0 3.43 -13.14c-0.49,0.29 -1.07,0.43 -1.74,0.43 -0.22,0 -0.44,-0.01 -0.67,-0.04l0.54 -2.04c0.19,0 0.37,0 0.54,0 0.94,0 1.66,-0.49 2.15,-1.47zm41.97 21.51l0 0.97 -5.44 0 0 -0.97 5.44 0zm17.8 0l-4.96 0 0 0.97 4.96 0 0 -0.97zm-8.66 0l0 0.97 -5.44 0 0 -0.97 5.44 0zm-51.22 -0.99c0,0.17 -0.01,0.34 -0.03,0.53 -0.02,0.18 -0.05,0.37 -0.1,0.56 -0.05,0.19 -0.11,0.38 -0.19,0.57 -0.08,0.19 -0.18,0.37 -0.3,0.54 -0.12,0.17 -0.26,0.33 -0.43,0.48 -0.17,0.15 -0.36,0.28 -0.58,0.39 -0.22,0.11 -0.46,0.19 -0.73,0.26 -0.27,0.06 -0.6,0.09 -0.97,0.09l-1.36 0c-0.05,0 -0.09,-0.01 -0.13,-0.02 -0.04,-0.01 -0.07,-0.03 -0.1,-0.05 -0.03,-0.03 -0.05,-0.06 -0.05,-0.11 -0.01,-0.04 -0.01,-0.1 0.01,-0.16l0.93 -4.66c0.02,-0.12 0.07,-0.21 0.15,-0.26 0.07,-0.05 0.16,-0.08 0.27,-0.08l1.29 0c0.42,0 0.78,0.04 1.06,0.12 0.28,0.08 0.52,0.2 0.71,0.37 0.19,0.16 0.34,0.36 0.43,0.6 0.09,0.24 0.14,0.52 0.14,0.83zm-1.14 0.13c0,-0.17 -0.02,-0.33 -0.07,-0.48 -0.05,-0.15 -0.12,-0.28 -0.23,-0.38 -0.11,-0.11 -0.24,-0.19 -0.4,-0.25 -0.16,-0.06 -0.38,-0.09 -0.66,-0.09l-0.57 0 -0.73 3.63 0.57 0c0.29,0 0.53,-0.04 0.73,-0.11 0.2,-0.07 0.37,-0.17 0.52,-0.29 0.15,-0.12 0.28,-0.26 0.38,-0.43 0.11,-0.16 0.19,-0.33 0.26,-0.51 0.07,-0.18 0.12,-0.36 0.15,-0.55 0.03,-0.19 0.05,-0.37 0.05,-0.54zm5.64 3.14c-0.01,0.03 -0.02,0.05 -0.04,0.07 -0.02,0.02 -0.06,0.04 -0.1,0.05 -0.05,0.01 -0.1,0.02 -0.18,0.03 -0.07,0.01 -0.16,0.01 -0.26,0.01 -0.11,0 -0.19,-0 -0.26,-0.01 -0.07,-0.01 -0.12,-0.02 -0.16,-0.03 -0.04,-0.01 -0.06,-0.03 -0.08,-0.05 -0.01,-0.02 -0.02,-0.05 -0.01,-0.07l1.01 -5.05c0,-0.03 0.02,-0.05 0.04,-0.07 0.02,-0.02 0.06,-0.04 0.1,-0.05 0.05,-0.01 0.1,-0.02 0.17,-0.03 0.07,-0.01 0.16,-0.01 0.26,-0.01 0.11,0 0.19,0 0.26,0.01 0.07,0.01 0.12,0.02 0.16,0.03 0.04,0.01 0.07,0.03 0.08,0.05 0.01,0.02 0.02,0.05 0.01,0.07l-1.01 5.05zm8.72 -4.03c0,0.18 -0.02,0.35 -0.07,0.53 -0.05,0.17 -0.13,0.34 -0.23,0.49 -0.1,0.15 -0.24,0.29 -0.41,0.42 -0.17,0.12 -0.37,0.22 -0.61,0.3 0.13,0.05 0.24,0.16 0.34,0.31 0.09,0.15 0.16,0.37 0.22,0.64l0.21 1.08c0.01,0.06 0.02,0.11 0.03,0.16 0.01,0.05 0.01,0.09 0.01,0.12 0,0.03 -0.01,0.05 -0.03,0.07 -0.02,0.02 -0.05,0.04 -0.1,0.05 -0.05,0.01 -0.11,0.02 -0.19,0.03 -0.08,0.01 -0.19,0.01 -0.31,0.01 -0.11,0 -0.21,-0 -0.27,-0.01 -0.07,-0.01 -0.12,-0.02 -0.16,-0.03 -0.04,-0.01 -0.06,-0.04 -0.07,-0.06 -0.01,-0.03 -0.02,-0.05 -0.03,-0.09l-0.2 -1.18c-0.02,-0.14 -0.05,-0.26 -0.09,-0.36 -0.04,-0.1 -0.09,-0.19 -0.14,-0.26 -0.06,-0.07 -0.13,-0.12 -0.21,-0.16 -0.09,-0.04 -0.19,-0.05 -0.3,-0.05l-0.34 0 -0.41 2.04c-0,0.03 -0.02,0.05 -0.04,0.07 -0.02,0.02 -0.06,0.04 -0.1,0.05 -0.05,0.01 -0.1,0.02 -0.18,0.03 -0.07,0.01 -0.16,0.01 -0.26,0.01 -0.1,0 -0.19,-0 -0.26,-0.01 -0.07,-0.01 -0.12,-0.02 -0.16,-0.03 -0.04,-0.01 -0.06,-0.03 -0.08,-0.05 -0.01,-0.02 -0.02,-0.05 -0.01,-0.08l0.97 -4.85c0.02,-0.12 0.07,-0.21 0.15,-0.26 0.08,-0.05 0.16,-0.08 0.26,-0.08l1.43 0c0.25,0 0.48,0.02 0.68,0.07 0.2,0.05 0.37,0.12 0.52,0.21 0.14,0.1 0.25,0.22 0.33,0.36 0.08,0.15 0.12,0.32 0.12,0.52zm-1.17 0.2c0,-0.08 -0.01,-0.15 -0.04,-0.22 -0.03,-0.07 -0.07,-0.12 -0.13,-0.17 -0.06,-0.05 -0.13,-0.08 -0.23,-0.11 -0.09,-0.03 -0.2,-0.04 -0.33,-0.04l-0.62 0 -0.3 1.52 0.52 0c0.21,0 0.38,-0.03 0.53,-0.09 0.14,-0.06 0.26,-0.14 0.35,-0.23 0.09,-0.09 0.15,-0.2 0.19,-0.31 0.04,-0.11 0.06,-0.23 0.06,-0.35zm8.68 -1.21c0,0.02 -0,0.05 -0.01,0.09 -0,0.04 -0.01,0.09 -0.02,0.14 -0.01,0.05 -0.02,0.1 -0.03,0.16 -0.01,0.06 -0.03,0.11 -0.05,0.15 -0.02,0.05 -0.05,0.08 -0.07,0.11 -0.03,0.03 -0.06,0.05 -0.09,0.05l-1.91 0 -0.26 1.3 1.62 0c0.04,0 0.07,0.01 0.08,0.04 0.02,0.03 0.03,0.07 0.03,0.12 0,0.02 -0,0.05 -0.01,0.09 -0,0.04 -0.01,0.09 -0.02,0.14 -0.01,0.05 -0.02,0.1 -0.03,0.15 -0.01,0.05 -0.03,0.1 -0.05,0.14 -0.02,0.04 -0.05,0.08 -0.07,0.11 -0.03,0.03 -0.06,0.04 -0.09,0.04l-1.62 0 -0.3 1.5 1.93 0c0.03,0 0.06,0.01 0.07,0.04 0.02,0.03 0.03,0.07 0.03,0.13 0,0.02 -0,0.05 -0,0.09 -0,0.04 -0.01,0.09 -0.02,0.14 -0.01,0.05 -0.02,0.1 -0.04,0.16 -0.01,0.05 -0.03,0.1 -0.05,0.15 -0.02,0.05 -0.05,0.08 -0.07,0.11 -0.03,0.03 -0.06,0.04 -0.09,0.04l-2.68 0c-0.04,0 -0.08,-0.01 -0.12,-0.02 -0.04,-0.01 -0.07,-0.03 -0.09,-0.06 -0.02,-0.03 -0.04,-0.06 -0.05,-0.11 -0.01,-0.04 -0.01,-0.09 0,-0.15l0.93 -4.66c0.03,-0.12 0.07,-0.21 0.15,-0.26 0.07,-0.05 0.16,-0.08 0.25,-0.08l2.65 0c0.07,0 0.11,0.05 0.11,0.16zm7.44 0.36c0,0.08 -0.01,0.18 -0.04,0.31 -0.03,0.13 -0.06,0.23 -0.1,0.31 -0.04,0.08 -0.08,0.12 -0.13,0.12 -0.04,0 -0.08,-0.02 -0.13,-0.07 -0.05,-0.05 -0.11,-0.09 -0.19,-0.15 -0.08,-0.05 -0.18,-0.1 -0.3,-0.15 -0.12,-0.05 -0.28,-0.07 -0.46,-0.07 -0.2,0 -0.39,0.04 -0.56,0.12 -0.17,0.08 -0.32,0.19 -0.45,0.32 -0.13,0.13 -0.25,0.29 -0.35,0.46 -0.1,0.17 -0.18,0.35 -0.25,0.54 -0.06,0.19 -0.11,0.37 -0.14,0.56 -0.03,0.18 -0.05,0.36 -0.05,0.52 0,0.19 0.02,0.36 0.07,0.51 0.05,0.15 0.12,0.27 0.21,0.36 0.09,0.1 0.2,0.17 0.34,0.22 0.13,0.05 0.28,0.07 0.45,0.07 0.19,0 0.36,-0.02 0.5,-0.06 0.14,-0.04 0.26,-0.09 0.35,-0.14 0.1,-0.05 0.18,-0.1 0.24,-0.14 0.06,-0.04 0.12,-0.06 0.18,-0.06 0.03,0 0.06,0.01 0.07,0.04 0.01,0.03 0.02,0.06 0.02,0.11 0,0.02 -0,0.05 -0.01,0.09 -0.01,0.04 -0.01,0.08 -0.02,0.13 -0.01,0.05 -0.02,0.1 -0.03,0.16 -0.01,0.06 -0.02,0.11 -0.04,0.16 -0.01,0.05 -0.03,0.09 -0.05,0.13 -0.02,0.04 -0.04,0.07 -0.07,0.1 -0.03,0.03 -0.09,0.07 -0.18,0.12 -0.09,0.05 -0.2,0.09 -0.32,0.13 -0.13,0.04 -0.27,0.08 -0.43,0.11 -0.16,0.03 -0.33,0.04 -0.51,0.04 -0.3,0 -0.57,-0.04 -0.81,-0.12 -0.24,-0.08 -0.45,-0.2 -0.61,-0.36 -0.17,-0.16 -0.3,-0.36 -0.39,-0.61 -0.09,-0.25 -0.14,-0.53 -0.14,-0.86 0,-0.26 0.03,-0.52 0.08,-0.8 0.05,-0.28 0.13,-0.55 0.24,-0.81 0.11,-0.26 0.24,-0.51 0.4,-0.75 0.16,-0.24 0.35,-0.44 0.57,-0.62 0.22,-0.18 0.47,-0.32 0.75,-0.42 0.28,-0.1 0.59,-0.16 0.94,-0.16 0.19,0 0.37,0.02 0.55,0.06 0.17,0.04 0.32,0.09 0.45,0.16 0.13,0.07 0.22,0.13 0.27,0.18 0.05,0.05 0.08,0.12 0.08,0.21zm7.56 -0.35c0,0.02 -0,0.05 -0.01,0.09 -0,0.04 -0.01,0.09 -0.02,0.14 -0.01,0.05 -0.02,0.11 -0.04,0.16 -0.01,0.06 -0.03,0.11 -0.05,0.15 -0.02,0.05 -0.05,0.08 -0.07,0.12 -0.03,0.03 -0.06,0.05 -0.09,0.05l-1.34 0 -0.86 4.31c-0.01,0.03 -0.02,0.05 -0.05,0.07 -0.02,0.02 -0.06,0.04 -0.1,0.05 -0.05,0.01 -0.1,0.02 -0.17,0.03 -0.07,0.01 -0.16,0.01 -0.27,0.01 -0.1,0 -0.19,-0 -0.26,-0.01 -0.07,-0.01 -0.12,-0.02 -0.16,-0.03 -0.04,-0.01 -0.06,-0.03 -0.07,-0.05 -0.01,-0.02 -0.02,-0.05 -0.01,-0.07l0.86 -4.31 -1.33 0c-0.04,0 -0.07,-0.02 -0.08,-0.05 -0.02,-0.03 -0.02,-0.07 -0.02,-0.12 0,-0.02 0,-0.06 0.01,-0.1 0,-0.04 0.01,-0.09 0.02,-0.15 0.01,-0.05 0.02,-0.11 0.04,-0.16 0.02,-0.06 0.03,-0.11 0.06,-0.16 0.02,-0.05 0.05,-0.08 0.07,-0.11 0.03,-0.03 0.06,-0.04 0.09,-0.04l3.76 0c0.03,0 0.06,0.02 0.08,0.05 0.02,0.03 0.03,0.07 0.03,0.13zm4.08 -9.98c0.6,0.88 0.92,1.95 0.96,3.21 0,0.45 -0.06,1.07 -0.17,1.88 -0.12,0.8 -0.17,1.33 -0.17,1.59 0,0.38 0.07,0.64 0.22,0.8 0.29,0.33 0.44,0.5 0.45,0.5 0.14,0.14 0.32,0.22 0.52,0.22 0.22,0 0.53,-0.08 0.93,-0.24l0.41 2.32c-1.08,0.62 -2.11,0.93 -3.08,0.93 -0.71,0 -1.29,-0.15 -1.76,-0.46 -0.85,-0.61 -1.28,-1.46 -1.28,-2.56 0,-0.38 0.06,-0.85 0.2,-1.42 0.13,-0.57 0.27,-1.15 0.41,-1.75 0.22,-1.01 0.33,-1.87 0.33,-2.58 0,-1.03 -0.23,-1.73 -0.69,-2.1l0.5 -1.97 4.88 -7.16 3.39 0 -6.04 8.78zm-5.26 -5.66c-0.49,0.29 -1.07,0.43 -1.73,0.43 -0.22,0 -0.44,-0.01 -0.67,-0.04l0.54 -2.04c0.19,0 0.37,0 0.55,0 0.94,0 1.66,-0.49 2.15,-1.47l3.46 0 -4.26 16.26 -3.45 0 3.43 -13.14zm10.26 9.72c0.1,0.62 0.31,1 0.63,1.15 0.09,0.06 0.2,0.12 0.33,0.17 1.04,0.01 1.94,-0.38 2.71,-1.17l-0.76 2.92c-0.61,0.39 -1.26,0.59 -1.95,0.59 -0.61,0 -1.21,-0.15 -1.82,-0.46 -1.33,-0.65 -2,-1.89 -2,-3.73 0,-0.98 0.23,-1.95 0.69,-2.91 0.51,-1.04 1.21,-1.88 2.1,-2.5 0.9,-0.63 1.8,-0.94 2.71,-0.94 0.51,0 0.98,0.1 1.41,0.3 1.14,0.39 1.71,1.26 1.71,2.6 0,0.25 -0.02,0.47 -0.07,0.67 -0.2,0.91 -0.75,1.71 -1.65,2.41 -0.9,0.69 -1.87,1.04 -2.93,1.04 -0.39,0 -0.77,-0.05 -1.13,-0.15zm0.17 -1.89c0.28,0.06 0.55,0.09 0.82,0.09 0.72,0 1.32,-0.17 1.78,-0.52 0.48,-0.42 0.72,-0.84 0.72,-1.26 0,-0.23 -0.09,-0.46 -0.26,-0.67 -0.17,-0.22 -0.38,-0.32 -0.61,-0.32 -0.51,0 -1.02,0.33 -1.54,1 -0.43,0.55 -0.74,1.11 -0.91,1.69zm13.88 6.94c0.33,0.01 0.64,-0.12 0.93,-0.41l0.65 1.95c-0.68,0.72 -1.66,1.11 -2.93,1.17 -0.84,0 -1.53,-0.3 -2.06,-0.89 -0.46,-0.49 -0.7,-1.01 -0.72,-1.56 0,0.07 0.07,-0.56 0.2,-1.88l1.8 -6.87c0.03,-0.08 0.04,-0.15 0.04,-0.22 0,-0.25 -0.12,-0.43 -0.35,-0.56 -0.1,-0.09 -0.22,-0.13 -0.35,-0.13 -0.26,0 -0.54,0.12 -0.84,0.37 -0.22,0.17 -0.43,0.35 -0.65,0.54 -0.22,0.19 -0.38,0.4 -0.5,0.63l-1.66 6.25 -2.98 0 2.69 -10.24 2.98 0 -0.16 0.69c0.81,-0.46 1.6,-0.69 2.36,-0.69 0.27,0 0.51,0.03 0.72,0.09 1.19,0.53 1.78,1.41 1.78,2.65 0,0.23 -0.02,0.44 -0.06,0.63l-1.82 6.87c-0.01,1.03 0.3,1.57 0.93,1.63zm-49.38 -1.65c-1.17,-0.51 -1.76,-1.67 -1.76,-3.5 0,-1.02 0.22,-2.03 0.65,-3.04 0.47,-1.13 1.12,-2.05 1.94,-2.77 0.82,-0.72 1.64,-1.08 2.47,-1.08 0.81,0 1.45,0.34 1.92,1.02l0.25 -0.89 2.93 0 -1.89 7.29c-0.03,0.1 -0.04,0.19 -0.04,0.28 0,0.29 0.17,0.43 0.5,0.43 0.19,0 0.4,-0.03 0.63,-0.09l-0.54 1.88c-0.75,0.5 -1.45,0.75 -2.08,0.75 -0.72,0 -1.33,-0.33 -1.82,-0.98 -0.75,0.58 -1.5,0.87 -2.23,0.87 -0.33,0 -0.64,-0.06 -0.93,-0.17zm3.62 -8.07c-0.35,0 -0.72,0.22 -1.12,0.65 -0.4,0.43 -0.73,1.01 -0.99,1.72 -0.25,0.65 -0.37,1.28 -0.37,1.89 0,0.97 0.25,1.46 0.76,1.46 0.33,0 0.7,-0.23 1.11,-0.7 0.41,-0.46 0.74,-1.06 1,-1.79 0.26,-0.65 0.39,-1.27 0.39,-1.85 0,-0.93 -0.26,-1.39 -0.78,-1.39zm8.63 5.83l3.38 0 -0.54 2.26 -7.51 0 5.5 -8.05 -3.61 0 0.56 -2.23 4.92 0 0 0 2.78 0 -5.49 8.02zm5.38 -1.91l0.76 -2.91 2.98 0 -0.74 2.91 -3 0z"/>
 </g>
</svg>
