<?xml version="1.0" encoding="UTF-8"?>
<!DOCTYPE svg PUBLIC "-//W3C//DTD SVG 1.1//EN" "http://www.w3.org/Graphics/SVG/1.1/DTD/svg11.dtd">
<!-- Creator: CorelDRAW -->
<svg xmlns="http://www.w3.org/2000/svg" xml:space="preserve" width="0.456346in" height="0.456346in" version="1.1" style="shape-rendering:geometricPrecision; text-rendering:geometricPrecision; image-rendering:optimizeQuality; fill-rule:evenodd; clip-rule:evenodd"
viewBox="0 0 11.4 11.4"
 xmlns:xlink="http://www.w3.org/1999/xlink"
 xmlns:xodm="http://www.corel.com/coreldraw/odm/2003">
 <defs>
  <style type="text/css">
   <![CDATA[
    .fil0 {fill:#00BE6F}
    .fil1 {fill:#FEFEFE}
   ]]>
  </style>
 </defs>
 <g id="Layer_x0020_1">
  <metadata id="CorelCorpID_0Corel-Layer"/>
  <g id="_1787839161808">
   <polygon class="fil0" points="-0,11.4 11.4,11.4 11.4,0 -0,0 "/>
   <path class="fil1" d="M1.7 5.68c0.06,0.05 3.99,0.5 4.63,0.57 0.26,0.03 0.52,0.06 0.77,0.09 0.11,0.01 0.68,0.11 0.77,0.07 -0.05,-0.12 -0.5,-0.58 -0.59,-0.73 0.06,-0.13 0.54,-0.6 0.59,-0.73 -0.09,-0.04 -0.28,0.01 -0.37,0.02 -0.13,0.02 -0.26,0.03 -0.4,0.05 -0.26,0.03 -0.52,0.06 -0.78,0.09 -0.52,0.06 -1.03,0.12 -1.55,0.19 -0.35,0.04 -2.99,0.33 -3.08,0.39z"/>
   <path class="fil1" d="M1.47 7.19c0.06,0.05 0.3,0.07 0.4,0.09l1.29 0.2c0.29,0.05 0.58,0.09 0.87,0.14 0.25,0.04 0.63,0.12 0.87,0.13l0.21 -1.13c-0.24,-0.01 -3.59,0.55 -3.63,0.58z"/>
   <path class="fil1" d="M1.21 8.65c0.04,0.09 0.31,0.09 0.39,0.1 0.14,0.02 0.28,0.04 0.42,0.07 0.4,0.06 2.38,0.39 2.62,0.4 0.03,-0.25 0.2,-0.94 0.19,-1.13l-3.62 0.56z"/>
   <path class="fil1" d="M2.27 2.77l3.43 0.54 0.2 -1.13c-0.21,-0.02 -2.77,0.42 -3.43,0.52 -0.19,0.03 -0.16,0.01 -0.2,0.07z"/>
   <path class="fil1" d="M2 4.22c0.04,0.05 0.01,0.05 0.19,0.07 0.56,0.08 3.02,0.49 3.24,0.5l0.2 -1.13 -3.63 0.56z"/>
   <path class="fil1" d="M6.57 2.76c0.06,0.04 2.6,0.45 2.78,0.44 0.01,-0 0.81,-0.93 0.85,-1.03 -0.24,0.01 -0.66,0.09 -0.91,0.13 -0.3,0.05 -0.6,0.1 -0.91,0.14 -0.12,0.02 -1.72,0.24 -1.81,0.31z"/>
   <path class="fil1" d="M6.57 8.64c0,0 0.01,0 0.01,0.01 0.01,0.03 3.49,0.57 3.61,0.57 -0.03,-0.09 -0.48,-0.6 -0.57,-0.7 -0.37,-0.42 -0.16,-0.35 -0.86,-0.24 -0.29,0.05 -2.1,0.29 -2.2,0.36z"/>
   <path class="fil1" d="M5.63 7.29l3.37 0.53c-0.01,-0.11 -0.69,-0.87 -0.78,-0.96 -0.21,-0.01 -1.93,0.3 -2.44,0.37 -0.1,0.01 -0.11,-0.01 -0.15,0.07z"/>
   <path class="fil1" d="M5.79 4.14c0.12,0.06 2.09,0.37 2.4,0.41 0.04,-0.01 0.79,-0.88 0.8,-0.97 -0.24,0.02 -0.56,0.09 -0.8,0.13 -0.39,0.07 -2.32,0.34 -2.4,0.42z"/>
  </g>
 </g>
</svg>
