<?xml version="1.0" encoding="UTF-8"?>
<!DOCTYPE svg PUBLIC "-//W3C//DTD SVG 1.1//EN" "http://www.w3.org/Graphics/SVG/1.1/DTD/svg11.dtd">
<!-- Creator: CorelDRAW -->
<svg xmlns="http://www.w3.org/2000/svg" xml:space="preserve" width="0.230276in" height="0.260409in" version="1.1" style="shape-rendering:geometricPrecision; text-rendering:geometricPrecision; image-rendering:optimizeQuality; fill-rule:evenodd; clip-rule:evenodd"
viewBox="0 0 2.62 2.97"
 xmlns:xlink="http://www.w3.org/1999/xlink"
 xmlns:xodm="http://www.corel.com/coreldraw/odm/2003">
 <defs>
  <style type="text/css">
   <![CDATA[
    .fil2 {fill:#00F2E9}
    .fil0 {fill:#FEFFFF}
    .fil1 {fill:#FF004F}
   ]]>
  </style>
 </defs>
 <g id="Layer_x0020_1">
  <metadata id="CorelCorpID_0Corel-Layer"/>
  <path class="fil0" d="M0.72 2.31l-0.03 -0.02c-0.15,-0.07 -0.26,-0.31 -0.17,-0.52 0.08,-0.17 0.25,-0.27 0.49,-0.22l-0 -0.38c-0.57,0.02 -0.94,0.51 -0.87,1.01 0.03,0.27 0.13,0.33 0.18,0.46 0.02,0.01 0.02,0.02 0.04,0.04 0.02,0.02 0.03,0.02 0.05,0.04 0.11,0.05 0.18,0.09 0.32,0.12 0.36,0.06 0.69,-0.09 0.89,-0.36 0.15,-0.21 0.17,-0.37 0.17,-0.67 0,-0.19 -0.02,-0.69 0.01,-0.84 0.19,0.11 0.41,0.23 0.67,0.21l-0 -0.38c-0.07,-0.02 -0.14,-0.04 -0.2,-0.08 -0.08,-0.04 -0.1,-0.07 -0.15,-0.13 -0.03,-0.02 -0.03,-0.03 -0.05,-0.04 -0.13,-0.08 -0.21,-0.22 -0.27,-0.42l-0.36 -0c-0.02,0.31 -0,1.24 -0,1.62 0,0.31 0.04,0.47 -0.16,0.65 -0.17,0.14 -0.49,0.08 -0.57,-0.08z"/>
  <path class="fil1" d="M0.42 2.71c0.08,0.13 0.43,0.26 0.66,0.25 0.14,-0.01 0.25,-0.04 0.36,-0.09 0.69,-0.35 0.46,-1.13 0.5,-1.79 0.04,0.02 0.08,0.05 0.13,0.07 0.05,0.03 0.1,0.05 0.16,0.07 0.12,0.04 0.25,0.06 0.39,0.07l0 -0.49 -0.14 -0.02 0 0.38c-0.26,0.02 -0.49,-0.1 -0.67,-0.21 -0.03,0.15 -0.01,0.65 -0.01,0.84 0,0.3 -0.02,0.47 -0.17,0.67 -0.2,0.27 -0.53,0.42 -0.89,0.36 -0.14,-0.02 -0.21,-0.07 -0.32,-0.12z"/>
  <path class="fil2" d="M0.72 2.31c0.08,0.16 0.4,0.23 0.57,0.08 0.2,-0.17 0.16,-0.33 0.16,-0.65 0,-0.38 -0.02,-1.31 0,-1.62l0.36 0 -0.01 -0.12 -0.48 -0c-0.02,0.11 -0,1.25 -0.01,1.48 -0,0.21 0.03,0.52 -0.06,0.68 -0.09,0.15 -0.31,0.26 -0.53,0.15z"/>
  <path class="fil2" d="M0.33 2.63c-0.05,-0.13 -0.15,-0.19 -0.18,-0.46 -0.06,-0.5 0.3,-0.99 0.87,-1.01l0 -0.12c-0.42,-0.03 -0.78,0.14 -0.94,0.51 -0.08,0.18 -0.11,0.41 -0.05,0.62 0.06,0.2 0.18,0.37 0.3,0.45z"/>
  <path class="fil1" d="M0.69 2.29c-0.04,-0.13 -0.13,-0.27 0.03,-0.48 0.09,-0.12 0.24,-0.18 0.44,-0.14l-0 -0.5 -0.14 -0.01 0 0.38c-0.25,-0.05 -0.42,0.05 -0.49,0.22 -0.1,0.21 0.01,0.45 0.17,0.52z"/>
  <path class="fil1" d="M2.08 0.54c-0.03,-0.06 -0.07,-0.11 -0.1,-0.19 -0.03,-0.09 -0.03,-0.14 -0.04,-0.23l-0.13 0c0.06,0.2 0.13,0.34 0.27,0.42z"/>
  <path class="fil2" d="M2.48 0.79l-0 -0.11c-0.16,-0.01 -0.22,-0.03 -0.35,-0.1 0.05,0.05 0.08,0.08 0.15,0.13 0.06,0.03 0.12,0.06 0.2,0.08z"/>
 </g>
</svg>
