<?xml version="1.0" encoding="UTF-8"?>
<!DOCTYPE svg PUBLIC "-//W3C//DTD SVG 1.1//EN" "http://www.w3.org/Graphics/SVG/1.1/DTD/svg11.dtd">
<!-- Creator: CorelDRAW X7 -->
<svg xmlns="http://www.w3.org/2000/svg" xml:space="preserve" width="0.701811in" height="0.72374in" version="1.1" style="shape-rendering:geometricPrecision; text-rendering:geometricPrecision; image-rendering:optimizeQuality; fill-rule:evenodd; clip-rule:evenodd"
viewBox="0 0 702 724"
 xmlns:xlink="http://www.w3.org/1999/xlink">
 <defs>
  <style type="text/css">
   <![CDATA[
    .fil0 {fill:#FEFEFE}
   ]]>
  </style>
 </defs>
 <g id="Layer_x0020_1">
  <metadata id="CorelCorpID_0Corel-Layer"/>
  <path class="fil0" d="M274 402c-6,5 -9,12 -15,18 -9,10 -10,11 -17,20l-190 222c-9,9 -10,11 -18,20 -7,8 -11,11 -17,20 -4,4 -13,15 -17,22 78,-2 44,12 130,-84l102 -120c13,-16 59,-70 71,-78l195 282 204 0c-7,-17 -55,-84 -70,-104l-143 -209c-25,-36 -48,-68 -72,-105l47 -55c8,-10 10,-11 17,-20l99 -115c13,-16 20,-23 33,-38 7,-8 8,-11 15,-18 9,-9 10,-11 18,-21 13,-16 19,-21 31,-39 -63,1 -54,-8 -86,33 -37,46 -193,227 -204,233 -6,-18 -32,-48 -44,-67l-138 -198 -205 0 135 199c24,35 45,64 69,99 23,33 50,70 70,103zm253 276l87 0 -377 -550c-13,-18 -48,-64 -53,-82l-95 0c6,17 91,135 108,160 36,53 71,106 108,158l204 297c9,12 7,12 18,17z"/>
 </g>
</svg>
