<?xml version="1.0" encoding="UTF-8"?>
<!DOCTYPE svg PUBLIC "-//W3C//DTD SVG 1.1//EN" "http://www.w3.org/Graphics/SVG/1.1/DTD/svg11.dtd">
<!-- Creator: CorelDRAW 2020 (64-Bit Evaluation Version) -->
<svg xmlns="http://www.w3.org/2000/svg" xml:space="preserve" width="1.91333in" height="0.603335in" version="1.1" style="shape-rendering:geometricPrecision; text-rendering:geometricPrecision; image-rendering:optimizeQuality; fill-rule:evenodd; clip-rule:evenodd"
viewBox="0 0 25.41 8.01"
 xmlns:xlink="http://www.w3.org/1999/xlink"
 xmlns:xodm="http://www.corel.com/coreldraw/odm/2003">
 <defs>
  <style type="text/css">
   <![CDATA[
    .fil0 {fill:none}
    .fil1 {fill:#FEFEFE;fill-rule:nonzero}
   ]]>
  </style>
 </defs>
 <g id="Layer_x0020_1">
  <metadata id="CorelCorpID_0Corel-Layer"/>
  <rect class="fil0" x="-0" y="0" width="25.41" height="8.01"/>
  <g id="Logo_NeoLife.svg">
   <g>
    <path class="fil1" d="M3.38 0.63c-0,0 -0,0 -0,0 -1.87,0 -3.38,1.51 -3.38,3.38 0,1.87 1.51,3.38 3.38,3.38 1.87,0 3.38,-1.51 3.38,-3.38 -0,-1.87 -1.51,-3.38 -3.38,-3.38l0 0zm0 0.36c0,0 0,0 0,0 1.67,0 3.02,1.35 3.02,3.02 0,1.67 -1.35,3.02 -3.02,3.02 -1.67,0 -3.02,-1.35 -3.02,-3.02 0,-0 0,-0 0,-0 0,-1.67 1.35,-3.02 3.02,-3.02l0 0zm0 0l0 0 0 0z"/>
   </g>
   <path class="fil1" d="M3.69 2.37c0,0.27 -0.14,0.71 -0.31,0.71 -0.17,0 -0.31,-0.44 -0.31,-0.71 0,-0.27 0.14,-0.71 0.31,-0.71 0.17,0 0.31,0.44 0.31,0.71z"/>
   <path class="fil1" d="M3.22 3.19c0.13,0.24 0.21,0.69 0.06,0.77 -0.15,0.08 -0.49,-0.24 -0.61,-0.48 -0.13,-0.24 -0.21,-0.69 -0.06,-0.77 0.15,-0.08 0.48,0.24 0.61,0.48z"/>
   <path class="fil1" d="M3.54 3.19c-0.13,0.24 -0.21,0.69 -0.06,0.77 0.15,0.08 0.49,-0.24 0.61,-0.48 0.13,-0.23 0.21,-0.69 0.06,-0.78 -0.15,-0.08 -0.48,0.24 -0.61,0.48z"/>
   <g>
    <path class="fil1" d="M3.11 4.18c0.16,0.22 0.3,0.66 0.16,0.76 -0.14,0.1 -0.51,-0.18 -0.67,-0.39 -0.16,-0.22 -0.3,-0.66 -0.16,-0.76 0.14,-0.1 0.51,0.17 0.67,0.39l0 -0zm0 0l0 0 0 0z"/>
   </g>
   <path class="fil1" d="M4.16 4.56c0.16,-0.22 0.3,-0.66 0.16,-0.76 -0.14,-0.1 -0.51,0.17 -0.67,0.39 -0.16,0.22 -0.3,0.66 -0.16,0.76 0.14,0.1 0.51,-0.18 0.67,-0.39z"/>
   <g>
    <path class="fil1" d="M3.61 5.26c-0.15,0.22 -0.28,0.67 -0.13,0.76 0.15,0.1 0.51,-0.19 0.65,-0.42 0.15,-0.22 0.28,-0.67 0.14,-0.76 -0.14,-0.09 -0.51,0.2 -0.66,0.42l0 -0zm0 0l0 0 0 0z"/>
   </g>
   <path class="fil1" d="M2.64 5.61c-0.15,-0.22 -0.28,-0.67 -0.14,-0.76 0.14,-0.09 0.51,0.19 0.66,0.42 0.15,0.22 0.28,0.67 0.13,0.77 -0.14,0.1 -0.51,-0.2 -0.65,-0.42z"/>
   <g>
    <path class="fil1" d="M3.23 7.11l0 -1.14c-0,-0 -0,-0.01 -0,-0.01 0,-0.08 0.07,-0.15 0.15,-0.15 0.08,0 0.15,0.07 0.15,0.15 0,0 -0,0.01 -0,0.01l0 1.14c0,0 0,0.01 0,0.01 0,0.08 -0.07,0.15 -0.15,0.15 -0.08,0 -0.15,-0.07 -0.15,-0.15 0,-0 0,-0.01 0,-0.01l-0 0zm0 0l0 0 0 0z"/>
   </g>
   <polygon class="fil1" points="8.19,2.46 8.91,2.46 10.27,4.65 10.28,4.65 10.28,2.46 10.95,2.46 10.95,5.73 10.23,5.73 8.87,3.54 8.86,3.54 8.86,5.73 8.19,5.73 "/>
   <polygon class="fil1" points="11.47,2.83 13.64,2.83 13.64,3.36 12.1,3.36 12.1,3.98 13.51,3.98 13.51,4.48 12.1,4.48 12.1,5.19 13.67,5.19 13.67,5.73 11.47,5.73 "/>
   <g>
    <path class="fil1" d="M15.33 5.26c0.57,0 0.79,-0.49 0.79,-0.97 0,-0.51 -0.21,-0.99 -0.79,-0.99 -0.57,0 -0.79,0.49 -0.79,0.99 0,0.48 0.21,0.97 0.79,0.97l0 0zm0 -2.5c0.9,0 1.43,0.67 1.43,1.53 0,0.84 -0.53,1.51 -1.43,1.51 -0.9,0 -1.43,-0.67 -1.43,-1.51 0,-0.86 0.53,-1.53 1.43,-1.53z"/>
   </g>
   <polygon class="fil1" points="17.15,2.46 17.87,2.46 17.87,5.12 19.47,5.12 19.47,5.73 17.15,5.73 "/>
   <rect class="fil1" x="19.75" y="2.83" width="0.64" height="2.9"/>
   <polygon class="fil1" points="20.88,2.83 22.91,2.83 22.91,3.36 21.51,3.36 21.51,4.03 22.73,4.03 22.73,4.53 21.51,4.53 21.51,5.73 20.88,5.73 "/>
   <polygon class="fil1" points="23.21,2.83 25.38,2.83 25.38,3.36 23.85,3.36 23.85,3.98 25.25,3.98 25.25,4.48 23.85,4.48 23.85,5.19 25.41,5.19 25.41,5.73 23.21,5.73 "/>
  </g>
 </g>
</svg>
