<?xml version="1.0" encoding="utf-8"?>
<!-- Generator: Adobe Illustrator 27.6.1, SVG Export Plug-In . SVG Version: 6.00 Build 0)  -->
<svg version="1.1" id="Layer_1" xmlns="http://www.w3.org/2000/svg" xmlns:xlink="http://www.w3.org/1999/xlink" x="0px" y="0px"
	 viewBox="0 0 207.6 45.4" style="enable-background:new 0 0 207.6 45.4;" xml:space="preserve">
<style type="text/css">
	.st0{fill:#4E6D34;}
</style>
<polygon class="st0" points="78.4,35.6 73.4,35.6 61.9,18.3 61.9,35.6 56.9,35.6 56.9,10.4 61.9,10.4 73.4,27.7 73.4,10.4 
	78.4,10.4 "/>
<polygon class="st0" points="89.2,14.5 89.2,20.8 97.7,20.8 97.7,24.8 89.2,24.8 89.2,31.5 98.8,31.5 98.8,35.6 84.1,35.6 
	84.1,10.4 98.8,10.4 98.8,14.5 "/>
<g>
	<path class="st0" d="M119.8,30.3c1.2-0.7,2.1-1.7,2.7-2.9c0.6-1.3,1-2.8,1-4.4s-0.3-3.2-1-4.4c-0.7-1.3-1.5-2.2-2.7-2.9
		c-1.2-0.7-2.5-1-4-1c-1.5,0-2.9,0.3-4,1c-1.2,0.7-2.1,1.6-2.7,2.9c-0.6,1.3-1,2.7-1,4.4s0.3,3.2,1,4.4c0.7,1.3,1.6,2.3,2.7,2.9
		c1.2,0.7,2.5,1,4,1C117.3,31.4,118.6,31,119.8,30.3 M109.3,34.2c-2-1.1-3.5-2.6-4.7-4.6c-1.2-2-1.7-4.2-1.7-6.7
		c0-2.5,0.6-4.7,1.7-6.6c1.2-2,2.7-3.5,4.7-4.6c2-1.1,4.1-1.7,6.5-1.7c2.4,0,4.6,0.6,6.5,1.7c2,1.1,3.5,2.6,4.7,4.6
		c1.1,2,1.7,4.2,1.7,6.6c0,2.5-0.6,4.7-1.7,6.7c-1.1,2-2.7,3.5-4.7,4.6s-4.1,1.7-6.5,1.7C113.4,35.9,111.2,35.3,109.3,34.2"/>
</g>
<polygon class="st0" points="138.2,31.6 146.5,31.6 146.5,35.6 133.1,35.6 133.1,10.4 138.2,10.4 "/>
<rect x="152.2" y="10.4" class="st0" width="5.1" height="25.2"/>
<polygon class="st0" points="178.5,10.4 178.5,14.5 168,14.5 168,21 176,21 176,25 168,25 168,35.6 162.9,35.6 162.9,10.4 "/>
<polygon class="st0" points="189.3,14.5 189.3,20.8 197.7,20.8 197.7,24.8 189.3,24.8 189.3,31.5 198.8,31.5 198.8,35.6 184.2,35.6 
	184.2,10.4 198.8,10.4 198.8,14.5 "/>
<g>
	<path class="st0" d="M24.9,11.2c0,1.9-1,5-2.2,5c-1.2,0-2.2-3.1-2.2-5s1-5,2.2-5C23.9,6.2,24.9,9.3,24.9,11.2"/>
	<path class="st0" d="M23.9,17.2c-0.9,1.7-1.5,4.8-0.4,5.4c1.1,0.6,3.4-1.7,4.3-3.3c0.9-1.7,1.5-4.8,0.4-5.4
		C27.1,13.3,24.8,15.5,23.9,17.2"/>
	<path class="st0" d="M23.7,31.8c-1,1.6-1.9,4.7-0.9,5.3c1,0.7,3.5-1.4,4.6-2.9c1.1-1.6,2-4.7,1-5.3C27.3,28.2,24.8,30.2,23.7,31.8"
		/>
	<path class="st0" d="M28,26.6c1.1-1.5,2.1-4.6,1.1-5.3c-1-0.7-3.6,1.2-4.7,2.7c-1.1,1.5-2.1,4.6-1.1,5.3C24.3,30,26.9,28.1,28,26.6
		"/>
	<path class="st0" d="M21.4,17.2c0.9,1.7,1.5,4.8,0.4,5.4c-1.1,0.6-3.4-1.7-4.3-3.3c-0.9-1.6-1.5-4.8-0.4-5.4
		C18.2,13.3,20.5,15.5,21.4,17.2"/>
	<path class="st0" d="M20.9,24c1.1,1.5,2.1,4.6,1.1,5.3c-1,0.7-3.6-1.2-4.7-2.7c-1.1-1.5-2.1-4.6-1.1-5.3
		C17.2,20.6,19.8,22.5,20.9,24"/>
	<path class="st0" d="M17.9,34.2c-1.1-1.5-2-4.7-0.9-5.3c1-0.7,3.5,1.3,4.6,2.9c1,1.5,1.9,4.7,0.9,5.3C21.5,37.8,19,35.7,17.9,34.2"
		/>
	<path class="st0" d="M22.7,3.2C12,3.2,3.2,12,3.2,22.7c0,10.7,8.7,19.4,19.4,19.4s19.4-8.7,19.4-19.4C42.1,12,33.4,3.2,22.7,3.2
		 M22.7,45.4C10.2,45.4,0,35.2,0,22.7C0,10.2,10.2,0,22.7,0s22.7,10.2,22.7,22.7C45.4,35.2,35.2,45.4,22.7,45.4L22.7,45.4z"/>
</g>
<rect x="21.1" y="34.7" class="st0" width="3.2" height="9.6"/>
<g>
	<path class="st0" d="M204.5,4.3c1.7,0,3.1,1.3,3.1,3c0,1.7-1.4,3.1-3.1,3.1c-1.7,0-3.1-1.3-3.1-3.1C201.4,5.6,202.8,4.3,204.5,4.3
		 M204.5,9.9c1.4,0,2.5-1.1,2.5-2.6c0-1.5-1.1-2.6-2.5-2.6S202,5.9,202,7.3C202,8.8,203.1,9.9,204.5,9.9 M203.3,5.5h1.4
		c0.8,0,1.3,0.3,1.3,1c0,0.6-0.4,0.9-0.9,1l1,1.6h-0.6l-1-1.5h-0.6v1.5h-0.6V5.5z M203.9,7.1h0.6c0.5,0,0.9,0,0.9-0.6
		c0-0.5-0.4-0.5-0.8-0.5h-0.7V7.1L203.9,7.1z"/>
</g>
</svg>
