<?xml version="1.0" encoding="UTF-8"?>
<!DOCTYPE svg PUBLIC "-//W3C//DTD SVG 1.1//EN" "http://www.w3.org/Graphics/SVG/1.1/DTD/svg11.dtd">
<!-- Creator: CorelDRAW -->
<svg xmlns="http://www.w3.org/2000/svg" xml:space="preserve" width="0.230142in" height="0.110409in" version="1.1" style="shape-rendering:geometricPrecision; text-rendering:geometricPrecision; image-rendering:optimizeQuality; fill-rule:evenodd; clip-rule:evenodd"
viewBox="0 0 230.14 110.41"
 xmlns:xlink="http://www.w3.org/1999/xlink"
 xmlns:xodm="http://www.corel.com/coreldraw/odm/2003">
 <defs>
  <style type="text/css">
   <![CDATA[
    .fil0 {fill:#ED3237}
    .fil3 {fill:url(#id1)}
    .fil2 {fill:url(#id2)}
    .fil1 {fill:url(#id3)}
   ]]>
  </style>
    <clipPath id="id0">
     <path d="M69.71 83.59l90.72 0 0 -50.45 -90.72 0 0 50.45z"/>
    </clipPath>
  <linearGradient id="id1" gradientUnits="userSpaceOnUse" x1="150.28" y1="104.17" x2="230.14" y2="104.17">
   <stop offset="0" style="stop-opacity:1; stop-color:#ED3237"/>
   <stop offset="1" style="stop-opacity:1; stop-color:#FFCC29"/>
  </linearGradient>
  <linearGradient id="id2" gradientUnits="userSpaceOnUse" xlink:href="#id1" x1="105.01" y1="104.11" x2="145.37" y2="104.11">
  </linearGradient>
  <linearGradient id="id3" gradientUnits="userSpaceOnUse" x1="-0" y1="104.17" x2="95.8" y2="104.17">
   <stop offset="0" style="stop-opacity:1; stop-color:#373435"/>
   <stop offset="1" style="stop-opacity:1; stop-color:#00A859"/>
  </linearGradient>
 </defs>
 <g id="Layer_x0020_1">
  <metadata id="CorelCorpID_0Corel-Layer"/>
  <g id="_2452325229056">
   <path class="fil0" d="M88.48 2.76c9.74,7.88 23.96,20.15 26.52,32.97 5.02,25.13 -3.23,33.09 -15.9,52.68 -0.4,0.62 -0.33,0.84 0.19,0.52 8.37,-5.38 20.54,-28.75 20.94,-39.74 0.87,-23.29 -12.63,-34.72 -31.75,-46.43z"/>
   <path class="fil0" d="M114.93 77.5c12.44,-9.45 11.56,-25.54 12.85,-39.75 1.5,-16.55 2.53,-24.97 13.88,-37.75 -14.18,10.15 -17.37,22.83 -17.75,39.57 -0.41,18.14 0.81,20.72 -8.97,37.93z"/>
   <path class="fil0" d="M113.82 10.33c2.17,-1.32 5.32,0.11 7.05,3.2 1.73,3.09 1.37,6.67 -0.79,7.99 -2.17,1.32 -5.32,-0.11 -7.05,-3.2 -1.73,-3.09 -1.37,-6.67 0.79,-7.99z"/>
   <g style="clip-path:url(#id0)">
    <image x="69.71" y="33.13" width="90.74" height="50.46" xlink:href="logo_Images\logo_ImgID1.png"/>
   </g>
  </g>
  <path class="fil1" d="M17.18 98.1c0,0.57 -0.61,2.61 -1.84,6.11 -1.25,3.51 -1.86,5.48 -1.86,5.95l-2.44 0c0,-0.49 -0.38,-1.86 -1.12,-4.11 -0.8,-2.43 -1.25,-4.02 -1.35,-4.8l-0.15 0c-0.09,0.78 -0.51,2.39 -1.25,4.84 -0.67,2.28 -1,3.62 -1,4.07l-2.5 0c0,-0.59 -0.61,-2.65 -1.82,-6.2 -1.21,-3.55 -1.84,-5.5 -1.84,-5.86l2.94 0c0,0.4 0.36,1.93 1.06,4.65 0.7,2.71 1.06,4.32 1.06,4.83l0.13 0c0,-0.51 0.38,-2.09 1.14,-4.74 0.76,-2.65 1.14,-4.23 1.14,-4.74l2.64 0c0,0.47 0.38,2.07 1.12,4.81 0.76,2.75 1.14,4.31 1.14,4.67l0.15 0c0,-0.45 0.34,-1.95 1.03,-4.53 0.68,-2.58 1.02,-4.23 1.02,-4.95l2.61 0zm9.41 10.01l-0.07 2.05 -7.89 0c0.09,-1.86 0.13,-3.96 0.13,-6.31 0,-2.24 -0.04,-4.15 -0.13,-5.74l7.53 0 -0.09 2.03c-1.86,-0.09 -3.55,-0.15 -5.04,-0.15 0.06,0.87 0.09,1.87 0.09,3.03 1.29,0 2.67,-0.02 4.13,-0.09l0 1.94c-1.44,-0.06 -2.83,-0.1 -4.13,-0.1 0,1.25 0.02,2.43 0.07,3.53 1.69,0 3.49,-0.06 5.41,-0.17zm9.8 0.02l-0.07 2.03 -7.7 0c0.08,-1.67 0.11,-3.77 0.11,-6.31 0,-2.31 -0.04,-4.23 -0.11,-5.74l2.62 0c-0.07,1.4 -0.11,3.32 -0.11,5.74 0,1.86 -0.04,3.34 -0.13,4.44 1.71,0 3.51,-0.06 5.41,-0.15zm9.2 0l-0.08 2.03 -7.7 0c0.07,-1.67 0.11,-3.77 0.11,-6.31 0,-2.31 -0.04,-4.23 -0.11,-5.74l2.61 0c-0.07,1.4 -0.11,3.32 -0.11,5.74 0,1.86 -0.04,3.34 -0.13,4.44 1.7,0 3.51,-0.06 5.41,-0.15zm10.71 -1.59c0,2.45 -2.01,3.68 -6.03,3.68 -0.7,0 -1.78,-0.02 -3.26,-0.06 0.09,-1.86 0.13,-3.96 0.13,-6.31 0,-2.24 -0.04,-4.15 -0.13,-5.74l1.52 0c0.27,0 0.76,0 1.43,-0.02 0.66,-0.02 1.19,-0.04 1.57,-0.04 2.73,0 4.09,0.89 4.09,2.67 0,1.37 -0.7,2.28 -2.11,2.71l0 0.15c0.76,0.11 1.41,0.4 1.95,0.87 0.55,0.46 0.83,1.16 0.83,2.09zm-2.5 0.09c0,-1.23 -1.06,-1.84 -3.22,-1.84 -0.44,0 -0.8,0.02 -1.1,0.04 0,1.29 0.02,2.48 0.08,3.56 0.2,0.06 0.53,0.08 0.94,0.08 1.14,0 1.97,-0.13 2.5,-0.42 0.53,-0.27 0.8,-0.74 0.8,-1.43zm-0.67 -5.2c0,-1.1 -0.7,-1.65 -2.09,-1.65 -0.63,0 -1.19,0.04 -1.69,0.13 0.08,0.63 0.09,1.71 0.09,3.22 0.25,0 0.5,0.02 0.74,0.02 1.95,0 2.94,-0.57 2.94,-1.73zm13.18 6.68l-0.07 2.05 -7.89 0c0.09,-1.86 0.13,-3.96 0.13,-6.31 0,-2.24 -0.04,-4.15 -0.13,-5.74l7.53 0 -0.09 2.03c-1.86,-0.09 -3.55,-0.15 -5.04,-0.15 0.06,0.87 0.09,1.87 0.09,3.03 1.29,0 2.67,-0.02 4.13,-0.09l0 1.94c-1.44,-0.06 -2.83,-0.1 -4.13,-0.1 0,1.25 0.02,2.43 0.07,3.53 1.69,0 3.49,-0.06 5.41,-0.17zm4.67 2.05l-2.64 0c0.09,-1.91 0.13,-4.02 0.13,-6.31 0,-2.24 -0.04,-4.17 -0.13,-5.74l2.64 0c-0.09,1.56 -0.13,3.47 -0.13,5.74 0,2.33 0.04,4.44 0.13,6.31zm12.59 0l-2.28 0c0,-0.24 -0.85,-1.59 -2.56,-4.02 -1.76,-2.54 -2.79,-4.29 -3.03,-5.22l-0.15 0c0.17,1.35 0.25,2.56 0.25,3.66 0,1.52 0.04,3.38 0.13,5.57l-2.3 0c0.09,-1.91 0.15,-4.02 0.15,-6.31 0,-2.24 -0.06,-4.17 -0.15,-5.74l2.75 0c0,0.32 0.78,1.63 2.3,3.93 1.63,2.43 2.56,4.06 2.79,4.93l0.15 0c-0.15,-1.38 -0.22,-2.62 -0.22,-3.7 0,-1.69 -0.04,-3.39 -0.13,-5.16l2.31 0c-0.08,1.54 -0.13,3.45 -0.13,5.74 0,2.33 0.06,4.44 0.13,6.31zm12.21 -0.32c-1.46,0.38 -2.69,0.57 -3.68,0.57 -2.12,0 -3.74,-0.59 -4.83,-1.74 -1.08,-1.16 -1.63,-2.58 -1.63,-4.23 0,-1.75 0.59,-3.28 1.78,-4.57 1.19,-1.29 2.84,-1.94 4.97,-1.94 1,0 1.88,0.09 2.63,0.29l-0.3 2.18c-0.96,-0.27 -1.84,-0.38 -2.62,-0.38 -1.31,0 -2.28,0.4 -2.92,1.2 -0.65,0.8 -0.97,1.78 -0.97,2.94 0,1.18 0.36,2.2 1.08,3.07 0.72,0.87 1.73,1.31 2.98,1.31 0.36,0 0.76,-0.02 1.23,-0.09 -0.09,-0.7 -0.15,-1.37 -0.15,-2.03 0,-0.67 -0.06,-1.43 -0.19,-2.24l2.62 0c-0.04,0.95 -0.07,1.9 -0.07,2.87 0,0.7 0.04,1.63 0.07,2.81z"/>
  <path class="fil2" d="M114.57 98.1l-0.06 1.99c-1.23,-0.09 -2.41,-0.13 -3.49,-0.13 -0.02,1.16 -0.02,2.46 -0.02,3.89 0,2.24 0.04,4.33 0.09,6.31l-2.6 0c0.09,-1.97 0.13,-4.06 0.13,-6.31 0,-1.4 -0.02,-2.69 -0.04,-3.89 -0.87,0 -2.07,0.04 -3.58,0.15l0.07 -2.01 9.48 0zm11.3 12.06l-2.73 0c-0.72,-2.18 -1.27,-3.53 -1.65,-4.04 -0.4,-0.51 -1,-0.78 -1.86,-0.78 -0.36,0 -0.7,0 -1.02,0 0,1.59 0.02,3.2 0.07,4.81l-2.58 0c0.09,-1.86 0.13,-3.96 0.13,-6.31 0,-2.24 -0.04,-4.15 -0.13,-5.74l1.61 0c0.19,0 0.57,0 1.16,-0.02 0.59,-0.02 1.14,-0.04 1.63,-0.04 2.84,0 4.25,0.97 4.25,2.92 0,1.54 -0.8,2.6 -2.41,3.2l0 0.13c0.61,0.17 1.16,0.66 1.63,1.46 0.48,0.8 1.1,2.28 1.9,4.4zm-3.47 -8.52c0,-1.23 -0.8,-1.84 -2.37,-1.84 -0.59,0 -1.1,0.04 -1.54,0.11 0.06,0.97 0.09,2.22 0.09,3.76 0.34,0 0.63,0.02 0.87,0.02 1.95,0 2.94,-0.69 2.94,-2.05zm12.97 6.47l-0.07 2.05 -7.89 0c0.09,-1.86 0.13,-3.96 0.13,-6.31 0,-2.24 -0.04,-4.15 -0.13,-5.74l7.53 0 -0.09 2.03c-1.86,-0.09 -3.54,-0.15 -5.04,-0.15 0.06,0.87 0.09,1.87 0.09,3.03 1.29,0 2.67,-0.02 4.13,-0.09l0 1.94c-1.44,-0.06 -2.83,-0.1 -4.13,-0.1 0,1.25 0.02,2.43 0.07,3.53 1.69,0 3.49,-0.06 5.41,-0.17zm10 0l-0.07 2.05 -7.89 0c0.09,-1.86 0.13,-3.96 0.13,-6.31 0,-2.24 -0.04,-4.15 -0.13,-5.74l7.53 0 -0.09 2.03c-1.86,-0.09 -3.55,-0.15 -5.04,-0.15 0.06,0.87 0.09,1.87 0.09,3.03 1.29,0 2.67,-0.02 4.13,-0.09l0 1.94c-1.44,-0.06 -2.83,-0.1 -4.13,-0.1 0,1.25 0.02,2.43 0.07,3.53 1.69,0 3.49,-0.06 5.41,-0.17z"/>
  <path class="fil3" d="M162.04 110.16l-2.98 0c0,-0.42 -0.26,-1.56 -0.83,-3.47l-4.29 0c-0.57,1.88 -0.87,3.04 -0.87,3.47l-2.79 0c0,-0.24 0.72,-2.22 2.16,-5.93 1.44,-3.7 2.16,-5.75 2.16,-6.13l3.51 0c0,0.36 0.65,2.37 1.95,6.05 1.31,3.68 1.97,5.67 1.97,6.01zm-4.28 -5.23c-1.06,-3.19 -1.57,-4.91 -1.57,-5.16l-0.15 0c0,0.22 -0.55,1.95 -1.65,5.16l3.38 0zm13.48 3.2l-0.08 2.03 -7.7 0c0.07,-1.67 0.11,-3.77 0.11,-6.31 0,-2.31 -0.04,-4.23 -0.11,-5.74l2.61 0c-0.07,1.4 -0.11,3.32 -0.11,5.74 0,1.86 -0.04,3.34 -0.13,4.44 1.7,0 3.51,-0.06 5.41,-0.15zm9.2 0l-0.07 2.03 -7.7 0c0.07,-1.67 0.11,-3.77 0.11,-6.31 0,-2.31 -0.04,-4.23 -0.11,-5.74l2.62 0c-0.08,1.4 -0.11,3.32 -0.11,5.74 0,1.86 -0.04,3.34 -0.13,4.44 1.71,0 3.51,-0.06 5.41,-0.15zm4.06 2.03l-2.64 0c0.09,-1.91 0.13,-4.02 0.13,-6.31 0,-2.24 -0.04,-4.17 -0.13,-5.74l2.64 0c-0.09,1.56 -0.13,3.47 -0.13,5.74 0,2.33 0.04,4.44 0.13,6.31zm13.18 0l-2.98 0c0,-0.42 -0.27,-1.56 -0.83,-3.47l-4.29 0c-0.57,1.88 -0.87,3.04 -0.87,3.47l-2.79 0c0,-0.24 0.72,-2.22 2.16,-5.93 1.44,-3.7 2.17,-5.75 2.17,-6.13l3.51 0c0,0.36 0.65,2.37 1.95,6.05 1.31,3.68 1.97,5.67 1.97,6.01zm-4.29 -5.23c-1.06,-3.19 -1.57,-4.91 -1.57,-5.16l-0.15 0c0,0.22 -0.55,1.95 -1.65,5.16l3.37 0zm15.65 5.23l-2.28 0c0,-0.24 -0.85,-1.59 -2.56,-4.02 -1.76,-2.54 -2.79,-4.29 -3.04,-5.22l-0.15 0c0.17,1.35 0.24,2.56 0.24,3.66 0,1.52 0.04,3.38 0.13,5.57l-2.3 0c0.09,-1.91 0.15,-4.02 0.15,-6.31 0,-2.24 -0.06,-4.17 -0.15,-5.74l2.75 0c0,0.32 0.78,1.63 2.3,3.93 1.63,2.43 2.56,4.06 2.79,4.93l0.15 0c-0.15,-1.38 -0.23,-2.62 -0.23,-3.7 0,-1.69 -0.04,-3.39 -0.13,-5.16l2.31 0c-0.07,1.54 -0.13,3.45 -0.13,5.74 0,2.33 0.06,4.44 0.13,6.31zm11.3 -2.2l-0.15 2.12c-0.87,0.23 -1.74,0.32 -2.6,0.32 -2.11,0 -3.72,-0.59 -4.83,-1.74 -1.1,-1.18 -1.65,-2.6 -1.65,-4.27 0,-1.74 0.59,-3.24 1.76,-4.53 1.18,-1.29 2.79,-1.94 4.84,-1.94 0.76,0 1.46,0.09 2.14,0.27l-0.32 2.14c-0.74,-0.25 -1.44,-0.36 -2.1,-0.36 -1.25,0 -2.18,0.4 -2.79,1.19 -0.63,0.8 -0.93,1.76 -0.93,2.9 0,1.16 0.38,2.16 1.1,3.02 0.72,0.85 1.74,1.27 3.05,1.27 0.76,0 1.59,-0.13 2.48,-0.4zm9.81 0.15l-0.07 2.05 -7.89 0c0.09,-1.86 0.13,-3.96 0.13,-6.31 0,-2.24 -0.04,-4.15 -0.13,-5.74l7.53 0 -0.09 2.03c-1.86,-0.09 -3.55,-0.15 -5.04,-0.15 0.06,0.87 0.09,1.87 0.09,3.03 1.29,0 2.67,-0.02 4.13,-0.09l0 1.94c-1.44,-0.06 -2.83,-0.1 -4.13,-0.1 0,1.25 0.02,2.43 0.07,3.53 1.69,0 3.49,-0.06 5.41,-0.17z"/>
 </g>
</svg>
